<?xml version="1.0" standalone="no"?>
<!DOCTYPE svg PUBLIC "-//W3C//DTD SVG 1.1//EN" "http://www.w3.org/Graphics/SVG/1.1/DTD/svg11.dtd" >
<svg xmlns="http://www.w3.org/2000/svg">
<metadata></metadata>
<defs>
<font id="pt_sansregular" horiz-adv-x="1140" >
<font-face units-per-em="2048" ascent="1536" descent="-512" />
<missing-glyph horiz-adv-x="567" />
<glyph unicode="&#xfb01;" horiz-adv-x="1149" d="M47 916v149h166v59q0 201 99 291.5t291 90.5q126 0 224 -24.5t153 -58.5l-58 -137q-57 37 -136 54t-168 17q-79 0 -125 -18t-70.5 -55.5t-31.5 -92.5t-7 -126h600v-1065h-171v916h-429v-916h-171v916h-166z" />
<glyph unicode="&#xfb02;" horiz-adv-x="1240" d="M47 916v149h166v59q0 201 86.5 296.5t288.5 95.5q42 0 95.5 -3t108 -8t102 -11.5t77.5 -15.5v-1216q0 -75 26.5 -106.5t71.5 -31.5q30 0 62 4t72 19l18 -135q-17 -8 -42 -15t-52.5 -11.5t-55 -8t-49.5 -3.5q-95 0 -158 54.5t-63 184.5v1137q-32 6 -91.5 12t-117.5 6 q-73 0 -114 -20.5t-62.5 -60t-26.5 -95.5t-5 -127h219v-149h-219v-916h-171v916h-166z" />
<glyph horiz-adv-x="0" />
<glyph unicode="&#xd;" horiz-adv-x="708" />
<glyph unicode=" "  horiz-adv-x="567" />
<glyph unicode="&#x09;" horiz-adv-x="567" />
<glyph unicode="&#xa0;" horiz-adv-x="567" />
<glyph unicode="!" horiz-adv-x="648" d="M234 98q0 57 33.5 90.5t88.5 33.5q57 0 91.5 -33t34.5 -91q0 -55 -34.5 -89.5t-91.5 -34.5q-55 0 -88.5 34.5t-33.5 89.5zM270 752v739h177v-739l-36 -376h-104z" />
<glyph unicode="&#x22;" horiz-adv-x="713" d="M191 1080v411h167l-66 -411h-101zM441 1080v411h167l-66 -411h-101z" />
<glyph unicode="#" horiz-adv-x="1160" d="M59 479l30 137h169l65 278h-157l30 137h160l81 337h146l-81 -337h224l81 337h148l-81 -337h163l-33 -137h-163l-66 -278h156l-35 -137h-152l-84 -355h-146l82 355h-224l-82 -355h-148l84 355h-167zM405 616h223l67 278h-224z" />
<glyph unicode="$" horiz-adv-x="1160" d="M162 43l57 155q43 -26 116.5 -47t180.5 -23v575q-64 32 -127 68t-112 86t-79 118.5t-30 162.5q0 153 86.5 251t261.5 121v194h144v-188q109 -4 178 -20t125 -41l-51 -150q-43 21 -102.5 37.5t-149.5 20.5v-526q66 -34 132 -73.5t118.5 -90.5t84 -119t31.5 -160 q0 -166 -92.5 -274t-273.5 -137v-196h-144v187q-118 2 -208.5 20t-145.5 49zM345 1148q0 -91 58.5 -149t145.5 -105v467q-113 -12 -158.5 -74t-45.5 -139zM626 132q98 15 161 76t63 172q0 51 -18.5 91.5t-48 72t-70 57t-87.5 49.5v-518z" />
<glyph unicode="%" horiz-adv-x="1646" d="M149 1154q0 96 25.5 164t69 113t104.5 65t131 20q71 0 131.5 -19t104 -61.5t69 -112t25.5 -169.5q0 -99 -25.5 -168.5t-69 -112t-104.5 -62t-131 -19.5t-131 19.5t-104.5 62t-69 112t-25.5 168.5zM262 57l1096 1461l104 -81l-1093 -1463zM307 1154q0 -128 45.5 -183 t126.5 -55q41 0 72.5 11.5t54 38t34 72.5t11.5 116q0 71 -11.5 117t-34 72.5t-54.5 38t-72 11.5q-81 0 -126.5 -50t-45.5 -189zM909 366q0 96 25.5 164t69 113t104.5 65t131 20q71 0 131.5 -19t104 -61.5t69 -112t25.5 -169.5q0 -99 -25.5 -168.5t-69 -112t-104.5 -62 t-131 -19.5t-131 19.5t-104.5 62t-69 112t-25.5 168.5zM1067 366q0 -128 45.5 -183t126.5 -55q41 0 72.5 11.5t54 38t34 72.5t11.5 116q0 71 -11.5 117t-34 72.5t-54.5 38t-72 11.5q-81 0 -126.5 -50t-45.5 -189z" />
<glyph unicode="&#x26;" horiz-adv-x="1733" d="M252 398q0 86 29.5 163.5t80.5 143.5t116 121.5t136 98.5q-51 77 -88.5 153t-37.5 166q0 51 17 100t54 87.5t95.5 61.5t142.5 23q87 0 147 -22t95.5 -58t52 -81t16.5 -92q0 -90 -69.5 -184.5t-218.5 -182.5q34 -61 79.5 -126t97 -129t104.5 -127t106 -116q24 26 47.5 65 t46 83t40.5 90.5t33 89.5l132 -61q-13 -37 -36 -87t-52.5 -102t-59 -100t-55.5 -80q45 -42 81.5 -73.5t67 -53.5t59.5 -40.5t58 -34.5l-106 -120q-113 55 -258 199q-38 -39 -84 -74.5t-103 -63t-126 -44.5t-153 -17q-99 0 -188 28t-155 82t-105 133t-39 181zM422 402 q0 -65 27.5 -117.5t75.5 -87.5t110 -54t129 -19q53 0 103.5 13.5t95.5 34.5t82 49t61 58q-62 61 -121.5 134t-114.5 145t-100.5 139t-76.5 118q-58 -42 -107 -87t-86.5 -95t-57.5 -107t-20 -124zM654 1244q0 -64 26.5 -126.5t69.5 -125.5q113 73 156.5 133t43.5 104 q0 69 -33 111t-114 42q-77 0 -113 -38.5t-36 -99.5z" />
<glyph unicode="'" horiz-adv-x="463" d="M191 1080v411h167l-66 -411h-101z" />
<glyph unicode="(" horiz-adv-x="595" d="M128 518q0 117 19 246.5t62 260.5t112 257t169 234l102 -75q-86 -108 -142 -224t-90 -235.5t-48 -237.5t-14 -226q0 -102 16 -222.5t51 -241t92 -235.5t135 -209l-108 -79q-98 102 -166 224.5t-110 251.5t-61 260t-19 251z" />
<glyph unicode=")" horiz-adv-x="595" d="M4 -394q85 108 143 225.5t90.5 236.5t46.5 236.5t14 225.5q0 102 -17 222t-52.5 241t-90.5 236t-134 208l109 79q98 -102 166 -224.5t110 -251t61 -259.5t19 -251q0 -117 -19 -247t-62 -260.5t-112 -256.5t-170 -235z" />
<glyph unicode="*" horiz-adv-x="746" d="M85 1178v119h106l132 -25l-95 94l-55 97l104 60l53 -90l38 -118l45 120l51 85l103 -55l-55 -91l-99 -102l145 25h102v-119h-97l-137 25l98 -102l49 -83l-100 -59l-56 89l-49 130l-40 -123l-53 -90l-107 59l58 90l89 89l-124 -25h-106z" />
<glyph unicode="+" horiz-adv-x="1075" d="M85 643v154h375v383h154v-383h374v-154h-374v-383h-154v383h-375z" />
<glyph unicode="," horiz-adv-x="414" d="M89 -234q77 30 114 92.5t37 126.5q-18 -6 -35 -6q-43 0 -72 28.5t-29 84.5q0 50 34.5 82.5t87.5 32.5q65 0 106.5 -47t41.5 -136q0 -77 -21 -134.5t-55 -99.5t-74.5 -68.5t-81.5 -38.5z" />
<glyph unicode="-" horiz-adv-x="766" d="M126 535v158h515v-158h-515z" />
<glyph unicode="." horiz-adv-x="455" d="M104 98q0 57 33.5 90.5t88.5 33.5q57 0 91.5 -33t34.5 -91q0 -55 -34.5 -89.5t-91.5 -34.5q-55 0 -88.5 34.5t-33.5 89.5z" />
<glyph unicode="/" horiz-adv-x="752" d="M-79 -238l778 1754l134 -59l-778 -1755z" />
<glyph unicode="0" horiz-adv-x="1160" d="M92 746q0 383 124.5 576.5t362.5 193.5q258 0 374 -190t116 -580q0 -384 -124.5 -578t-365.5 -194q-253 0 -370 203t-117 569zM268 746q0 -139 18.5 -252.5t57 -196t96.5 -128t139 -45.5q163 0 238 150t75 472q0 136 -16 251t-53 198t-96.5 128t-147.5 45 q-160 0 -235.5 -151.5t-75.5 -470.5z" />
<glyph unicode="1" horiz-adv-x="1160" d="M149 1154l469 362h77v-1358h291v-158h-756v158h298v1031l21 126l-85 -101l-234 -168z" />
<glyph unicode="2" horiz-adv-x="1160" d="M132 0v61q47 49 113 122t137 161.5t140.5 187t126 201t90.5 202.5t34 189q0 104 -59.5 174t-181.5 70q-81 0 -157.5 -33.5t-132.5 -76.5l-69 122q75 64 176.5 100t219.5 36q91 0 161.5 -26.5t119.5 -75t74.5 -116t25.5 -146.5q0 -113 -41.5 -231t-108.5 -237t-150 -233 t-166 -217l-104 -92v-8l136 24h464v-158h-848z" />
<glyph unicode="3" horiz-adv-x="1160" d="M187 28l45 151q49 -24 116 -39.5t150 -15.5q73 0 135 21t106.5 63t70 99t25.5 126q0 148 -88.5 220.5t-244.5 72.5h-157v62l307 472l98 95l-138 -22h-423v158h761v-62l-338 -509l-75 -62v-4l72 15q86 -2 158 -31t125 -83t83.5 -130t30.5 -172q0 -115 -40.5 -204 t-110 -150t-163.5 -93t-198 -32q-96 0 -172.5 15t-134.5 39z" />
<glyph unicode="4" horiz-adv-x="1160" d="M43 458v70l707 986h114v-907h252v-149h-252v-458h-165v458h-656zM236 590l150 17h313v464l21 175h-7l-74 -145l-300 -406z" />
<glyph unicode="5" horiz-adv-x="1160" d="M164 17l45 145q49 -18 105 -28t139 -10q147 0 243 85t96 247q0 156 -94.5 232t-260.5 76l-179 -10v737h664v-158h-505v-424l92 5q211 -2 332.5 -117.5t121.5 -329.5q0 -120 -40.5 -212.5t-109.5 -154.5t-163 -94t-201 -32q-95 0 -161 11t-124 32z" />
<glyph unicode="6" horiz-adv-x="1160" d="M128 500q0 211 54 389t150 310t227.5 214.5t283.5 102.5l37 -136q-120 -21 -217.5 -80.5t-171.5 -147t-121 -196t-63 -223.5q34 57 114.5 105t198.5 48q201 0 314.5 -115t113.5 -322q0 -97 -30 -183.5t-87 -151.5t-142.5 -102.5t-194.5 -37.5q-106 0 -191.5 34.5 t-147.5 101.5t-94.5 164.5t-32.5 225.5zM294 479q0 -65 18 -129.5t56.5 -114.5t95 -80.5t132.5 -30.5q61 0 111.5 23.5t87 64t57 98t20.5 123.5q0 150 -71 227t-218 77q-104 0 -179.5 -51.5t-105.5 -114.5q-4 -30 -4 -49.5v-42.5z" />
<glyph unicode="7" horiz-adv-x="1160" d="M130 1333v158h890v-58l-613 -1433h-173l535 1248l93 104l-125 -19h-607z" />
<glyph unicode="8" horiz-adv-x="1160" d="M145 356q0 134 70 233t220 180q-53 32 -99 67.5t-81.5 80t-55.5 99.5t-20 128q0 83 28.5 151t83 117t130 76.5t171.5 27.5q89 0 162 -25.5t123 -70t77.5 -106.5t27.5 -136q0 -121 -55 -213.5t-183 -182.5q55 -32 105 -70.5t87 -85.5t58.5 -105.5t21.5 -132.5 q0 -92 -29.5 -167.5t-87.5 -130t-141 -85.5t-189 -31q-102 0 -181 30t-133 81t-82 120.5t-28 150.5zM311 376q0 -50 17 -97t51 -81t84.5 -54t115.5 -20q53 0 102 16t86.5 46.5t60 78.5t22.5 111q0 64 -25.5 112.5t-67 88t-95 71t-111.5 61.5q-130 -73 -185 -162t-55 -171z M345 1148q0 -59 23.5 -105.5t63 -82t90.5 -67t106 -58.5q96 75 141.5 147.5t45.5 159.5q0 108 -67 167t-160 59q-58 0 -102.5 -19.5t-77 -49t-48 -69t-15.5 -82.5z" />
<glyph unicode="9" horiz-adv-x="1160" d="M110 1039q0 102 30.5 190t87.5 152t143.5 99.5t201.5 35.5q217 0 338.5 -140t121.5 -396q0 -241 -54 -420.5t-150 -303.5t-227 -193t-285 -89l-38 136q123 19 222.5 72.5t171 134.5t116 184.5t61.5 224.5q-58 -69 -127 -95t-182 -26q-88 0 -165.5 28.5t-137 84t-94 136.5 t-34.5 185zM287 1057q0 -151 80 -227t210 -76q104 0 179 34.5t106 89.5q4 28 4.5 48.5t0.5 44.5q0 77 -18 148.5t-54.5 127.5t-95 88.5t-136.5 32.5q-130 0 -203 -82.5t-73 -228.5z" />
<glyph unicode=":" horiz-adv-x="465" d="M193 98q0 57 33.5 90.5t88.5 33.5q57 0 91.5 -33t34.5 -91q0 -55 -34.5 -89.5t-91.5 -34.5q-55 0 -88.5 34.5t-33.5 89.5zM193 957q0 57 33.5 90t88.5 33q57 0 91.5 -33t34.5 -90q0 -55 -34.5 -89.5t-91.5 -34.5q-55 0 -88.5 34.5t-33.5 89.5z" />
<glyph unicode=";" horiz-adv-x="544" d="M175 -234q77 30 114 92.5t37 126.5q-19 -6 -36 -6q-42 0 -71.5 28.5t-29.5 84.5q0 50 34.5 82.5t87.5 32.5q65 0 107 -47t42 -136q0 -77 -21.5 -134.5t-55.5 -99.5t-74.5 -68.5t-80.5 -38.5zM205 957q0 57 32.5 90t88.5 33q57 0 91 -33t34 -90q0 -55 -33.5 -89.5 t-91.5 -34.5q-56 0 -88.5 34.5t-32.5 89.5z" />
<glyph unicode="&#x3c;" horiz-adv-x="1075" d="M89 650v61l805 492l82 -132l-505 -309l-194 -81l192 -67l517 -307l-81 -128z" />
<glyph unicode="=" horiz-adv-x="1075" d="M85 467v153h903v-153h-903zM85 820v153h903v-153h-903z" />
<glyph unicode="&#x3e;" horiz-adv-x="1075" d="M89 1073l82 130l815 -470v-62l-805 -492l-81 130l505 309l194 81l-192 67z" />
<glyph unicode="?" horiz-adv-x="927" d="M79 1410q81 49 170.5 77.5t221.5 28.5q94 0 165 -26.5t119 -73t71.5 -110.5t23.5 -137q0 -96 -29 -167t-72.5 -130t-93.5 -110t-93.5 -107.5t-72.5 -122t-29 -156.5h-141q-2 11 -2 24v24q0 90 26.5 158t66 124t85.5 105t85.5 99.5t66 106.5t26.5 129q0 98 -56 160 t-189 62q-76 0 -155.5 -26.5t-136.5 -63.5zM277 98q0 57 33 90.5t88 33.5q58 0 92 -33t34 -91q0 -55 -34 -89.5t-92 -34.5q-55 0 -88 34.5t-33 89.5z" />
<glyph unicode="@" horiz-adv-x="2266" d="M185 502q0 232 80 420t216.5 320t317.5 203t383 71q192 0 355.5 -56t284.5 -161.5t190 -258t69 -345.5q0 -137 -47 -261.5t-127 -218t-186.5 -150.5t-224.5 -57q-90 0 -143.5 38.5t-53.5 142.5q0 19 2 42t6 48h-8q-30 -49 -70 -97t-90 -86.5t-106.5 -63t-118.5 -24.5 q-51 0 -98 22.5t-81 65t-54.5 101.5t-20.5 133q0 136 45 268t120.5 234.5t176.5 165.5t214 63q79 0 125.5 -23.5t91.5 -57.5l73 66h73l-109 -611q-11 -55 -16 -99t-5 -78q0 -53 17.5 -77.5t62.5 -24.5q73 0 144 38t126.5 108t90.5 169.5t35 223.5q0 164 -55 289.5 t-155.5 211.5t-239 131t-304.5 45q-173 0 -324.5 -64t-263.5 -177t-177 -270.5t-65 -342.5q0 -189 58.5 -338.5t167 -252t260 -155.5t336.5 -53q61 0 140 13.5t144 45.5l42 -136q-95 -40 -176.5 -54t-174.5 -14q-198 0 -372 59.5t-302.5 176.5t-203.5 291t-75 401zM827 358 q0 -83 33.5 -141.5t123.5 -58.5q42 0 88 27.5t90.5 75.5t85.5 107.5t73 121.5l63 347q-36 43 -72 59t-91 16q-83 0 -156 -50.5t-125 -130t-82.5 -179t-30.5 -194.5z" />
<glyph unicode="A" horiz-adv-x="1245" d="M17 0l564 1514h81l567 -1514h-185l-154 413h-549l-150 -413h-174zM398 567h439l-166 453l-53 226h-2l-53 -230z" />
<glyph unicode="B" horiz-adv-x="1243" d="M181 10v1468q79 12 183.5 21t227.5 9q83 0 169.5 -14t156.5 -53t116 -110t46 -181q0 -53 -17 -108.5t-51 -103.5t-87 -84.5t-126 -54.5v-9q63 -10 122 -36t103.5 -70.5t72 -108t27.5 -151.5q0 -115 -47.5 -199.5t-125 -137.5t-178 -78.5t-204.5 -25.5h-85.5t-102 3.5 t-106.5 8.5t-94 15zM358 151q14 -4 42 -6.5t60 -4.5t66 -3t60 -1q68 0 132 16t113 51t77.5 86.5t28.5 121.5q0 87 -35 140.5t-91.5 83.5t-126.5 40t-141 10h-185v-534zM358 835h111q36 0 87 2t85 6q51 17 96 41.5t80 58t55 77t20 94.5q0 71 -26.5 116.5t-71 73t-102.5 39.5 t-117 12q-71 0 -129 -3.5t-88 -9.5v-507z" />
<glyph unicode="C" horiz-adv-x="1215" d="M120 746q0 209 56 354.5t148.5 238t208 135t233.5 42.5q128 0 209.5 -13.5t138.5 -37.5l-43 -155q-102 49 -291 49q-87 0 -172.5 -32t-152.5 -104.5t-107.5 -189.5t-40.5 -287q0 -153 38.5 -268.5t105.5 -192t157.5 -115t196.5 -38.5q96 0 167.5 19.5t120.5 49.5l43 -140 q-64 -49 -162 -68t-210 -19q-134 0 -251 46t-204 140t-138 239.5t-51 346.5z" />
<glyph unicode="D" horiz-adv-x="1392" d="M181 -2v1493q41 7 90.5 10t104.5 4t107 2t96 1q179 0 310 -55.5t216.5 -154.5t127 -237.5t41.5 -304.5q0 -151 -39.5 -290.5t-125 -247.5t-221.5 -172.5t-330 -64.5q-34 0 -88.5 1t-111.5 4.5t-106 5.5t-71 6zM358 147q10 -2 40 -3.5t62 -2.5t61.5 -2t41.5 -1 q148 0 249.5 51t162 137.5t86 198t25.5 231.5q0 104 -23.5 209.5t-80.5 191t-154.5 139.5t-244.5 54h-60.5t-64.5 -2t-59 -4t-41 -4v-1193z" />
<glyph unicode="E" d="M181 0v1491h811v-158h-634v-487h581v-158h-581v-530h646v-158h-823z" />
<glyph unicode="F" horiz-adv-x="1100" d="M181 0v1491h811v-158h-634v-508h592v-158h-592v-667h-177z" />
<glyph unicode="G" horiz-adv-x="1303" d="M120 746q0 207 59 353.5t155.5 239t215.5 135t238 42.5q128 0 211 -13.5t141 -37.5l-45 -155q-102 49 -292 49q-90 0 -178 -31t-158.5 -103.5t-115 -189.5t-44.5 -289q0 -158 36.5 -273t101 -190.5t156.5 -113t200 -37.5q136 0 232 53v416l-350 42v101h502v-657 q-35 -26 -82.5 -47t-102.5 -35.5t-113 -22.5t-114 -8q-143 0 -262 46t-206.5 141t-136 240.5t-48.5 344.5z" />
<glyph unicode="H" horiz-adv-x="1431" d="M181 0v1491h177v-650h715v650h177v-1491h-177v683h-715v-683h-177z" />
<glyph unicode="I" horiz-adv-x="618" d="M222 0v1491h176v-1491h-176z" />
<glyph unicode="J" horiz-adv-x="618" d="M-73 12l35 152q59 -28 130 -28q89 0 117.5 63t28.5 171v1121h177v-1163q0 -171 -75.5 -260t-229.5 -89q-16 0 -41.5 2t-51 6.5t-50 10.5t-40.5 14z" />
<glyph unicode="K" horiz-adv-x="1298" d="M181 0v1491h177v-694l95 30l502 664h204l-499 -641l-89 -70l108 -85l546 -695h-223l-544 691h-100v-691h-177z" />
<glyph unicode="L" horiz-adv-x="1100" d="M181 0v1491h177v-1333h705v-158h-882z" />
<glyph unicode="M" horiz-adv-x="1683" d="M181 0v1491h132l467 -763l70 -165h4l66 170l446 758h138v-1491h-177v1002l21 223h-11l-81 -205l-387 -673h-54l-410 675l-77 203h-11l30 -221v-1004h-166z" />
<glyph unicode="N" horiz-adv-x="1433" d="M181 0v1514h94l713 -994l111 -205h11l-24 205v971h166v-1515h-93l-710 1000l-114 215h-9l21 -215v-976h-166z" />
<glyph unicode="O" horiz-adv-x="1456" d="M120 746q0 372 157.5 571t448.5 199q158 0 273 -55t191 -156.5t111.5 -243t35.5 -315.5q0 -373 -158.5 -572.5t-452.5 -199.5q-156 0 -269.5 55.5t-189.5 156.5t-111.5 243t-35.5 317zM307 746q0 -124 24.5 -235t75.5 -195t131 -134t188 -50q198 0 311 150.5t113 463.5 q0 121 -24.5 233t-77 195.5t-132 134t-190.5 50.5q-196 0 -307.5 -150t-111.5 -463z" />
<glyph unicode="P" horiz-adv-x="1189" d="M181 0v1476q81 18 174.5 25t185.5 7q98 0 199 -19t184.5 -70t135.5 -140.5t52 -228.5q0 -136 -49 -230t-130 -152.5t-185.5 -84t-215.5 -25.5h-34.5t-51.5 1.5t-52.5 3.5t-35.5 4v-567h-177zM358 724q10 -4 33.5 -5t49.5 -2t49.5 -1h33.5q73 0 144 14t128.5 49.5 t93 101.5t35.5 169q0 88 -33.5 146t-87.5 93.5t-122 50.5t-137 15q-55 0 -106 -2.5t-81 -10.5v-618z" />
<glyph unicode="Q" horiz-adv-x="1456" d="M120 746q0 372 157.5 571t448.5 199q158 0 273 -55t191 -156.5t111.5 -243t35.5 -315.5q0 -373 -158.5 -572.5t-452.5 -199.5q-156 0 -269.5 55.5t-189.5 156.5t-111.5 243t-35.5 317zM307 746q0 -124 24.5 -235t75.5 -195t131 -134t188 -50q198 0 311 150.5t113 463.5 q0 121 -24.5 233t-77 195.5t-132 134t-190.5 50.5q-196 0 -307.5 -150t-111.5 -463zM451 -104q31 6 58.5 10.5t57.5 4.5q89 0 177.5 -22.5t180 -49t187 -49t203.5 -22.5q93 0 185 21v-153q-51 -15 -100.5 -20.5t-98.5 -5.5q-106 0 -207.5 22.5t-196 49t-182 48.5t-166.5 22 q-51 0 -98 -12v156z" />
<glyph unicode="R" horiz-adv-x="1266" d="M181 0v1476q81 14 186.5 23t193.5 9q97 0 185.5 -21.5t155.5 -70t107.5 -127.5t40.5 -192q0 -175 -96 -283.5t-243 -144.5l102 -79l372 -590h-207l-411 643l-209 32v-675h-177zM358 792h166q147 0 242.5 72.5t95.5 226.5q0 115 -78.5 189.5t-218.5 74.5h-58t-57.5 -2.5 t-52.5 -4.5t-39 -6v-550z" />
<glyph unicode="S" horiz-adv-x="1130" d="M98 53l60 160q49 -28 144.5 -54.5t215.5 -26.5q71 0 132 14t106 45t71.5 78t26.5 111q0 89 -53 145t-133 100t-174 82.5t-174 92.5t-133 134t-53 204q0 174 121 276t346 102q130 0 236 -19t167 -48l-54 -156q-49 24 -144 45t-214 21q-141 0 -211 -63t-70 -148 q0 -83 53 -138t133 -99t173.5 -86.5t174 -99t133.5 -135t53 -196.5q0 -96 -34 -172.5t-100 -132t-160 -85.5t-213 -30q-160 0 -264 25t-162 54z" />
<glyph unicode="T" horiz-adv-x="1181" d="M38 1333v158h1106v-158h-465v-1333h-177v1333h-464z" />
<glyph unicode="U" horiz-adv-x="1388" d="M181 462v1029h177v-946q0 -113 22 -190.5t67 -125.5t112 -69.5t157 -21.5q172 0 246.5 95t74.5 312v946h170v-995q0 -134 -34.5 -232t-99.5 -160.5t-156.5 -92.5t-203.5 -30q-264 0 -398 119t-134 362z" />
<glyph unicode="V" horiz-adv-x="1209" d="M-4 1491h193l380 -1024l51 -227h2l55 231l360 1020h177l-564 -1515h-79z" />
<glyph unicode="W" horiz-adv-x="1762" d="M17 1491h188l268 -999l33 -247h3l36 251l307 995h85l309 -999l36 -247h2l39 251l251 995h172l-415 -1515h-98l-302 1000l-39 225h-10l-39 -228l-302 -997h-98z" />
<glyph unicode="X" horiz-adv-x="1315" d="M55 0l496 758l-453 733h213l303 -505l53 -122l51 122l319 505h196l-469 -718l490 -773h-206l-337 535l-57 127l-56 -127l-344 -535h-199z" />
<glyph unicode="Y" horiz-adv-x="1187" d="M17 1491h207l349 -652l36 -130h3l38 134l334 648h189l-488 -897v-594h-176v592z" />
<glyph unicode="Z" horiz-adv-x="1160" d="M81 0v160l752 1088l89 85h-841v158h1001v-160l-756 -1095l-90 -78h846v-158h-1001z" />
<glyph unicode="[" horiz-adv-x="646" d="M181 -490v1981h386v-149h-220v-1683h220v-149h-386z" />
<glyph unicode="\" horiz-adv-x="809" d="M-79 1457l142 59l787 -1752l-141 -62z" />
<glyph unicode="]" horiz-adv-x="646" d="M81 -341h222v1683h-222v149h388v-1981h-388v149z" />
<glyph unicode="^" horiz-adv-x="1064" d="M102 927l396 587h63l359 -587h-174l-171 287l-49 147l-66 -149l-196 -285h-162z" />
<glyph unicode="_" horiz-adv-x="868" d="M0 -287h869v-150h-869v150z" />
<glyph unicode="`" horiz-adv-x="595" d="M128 1489v45h202l139 -318h-97z" />
<glyph unicode="a" horiz-adv-x="1055" d="M83 285q0 94 38.5 156.5t107.5 100t166 54t214 16.5h59.5t57.5 -5q6 64 7 115q0 117 -47 164t-170 47q-37 0 -78.5 -5.5t-85 -15t-83 -23t-68.5 -31.5l-54 128q81 49 188.5 72.5t225.5 23.5q110 0 177 -30t102.5 -77.5t47 -105.5t11.5 -115q0 -128 -6.5 -249t-6.5 -230 q0 -79 6.5 -149.5t23.5 -129.5h-126l-44 149h-11q-18 -31 -47.5 -59.5t-70 -51t-93.5 -37t-122 -14.5q-68 0 -126.5 21.5t-101 60.5t-67 94.5t-24.5 125.5zM260 303q0 -75 53 -123t136 -48q60 0 107 16t81 40.5t56.5 54t32.5 58.5v176q-30 2 -61 3.5t-60 1.5 q-65 0 -128.5 -7.5t-111.5 -28t-76.5 -55.5t-28.5 -88z" />
<glyph unicode="b" horiz-adv-x="1149" d="M164 61v1430h171v-530h8q49 61 124.5 95.5t164.5 34.5q207 0 310.5 -132t103.5 -410q0 -279 -136.5 -423.5t-383.5 -144.5q-119 0 -216 25.5t-146 54.5zM335 177q40 -24 97.5 -35.5t118.5 -11.5q145 0 231.5 102.5t86.5 318.5q0 83 -15 156t-47 124t-81.5 80.5 t-122.5 29.5q-106 0 -172.5 -59t-95.5 -169v-536z" />
<glyph unicode="c" horiz-adv-x="959" d="M104 532q0 271 119.5 415t343.5 144q102 0 173 -16t129 -46l-49 -147q-49 28 -108.5 43.5t-128.5 15.5q-302 0 -302 -409q0 -81 16 -154t53.5 -130t98 -90.5t149.5 -33.5q77 0 138 23.5t99 53.5l55 -130q-63 -47 -150.5 -72t-183.5 -25q-123 0 -208.5 39.5t-140 113.5 t-79 177t-24.5 228z" />
<glyph unicode="d" horiz-adv-x="1145" d="M104 528q0 273 129 414.5t355 141.5q79 0 124.5 -8.5t98.5 -27.5v443h171v-1125q0 -108 2 -196.5t20 -173.5h-116l-42 151h-9q-42 -75 -123.5 -124t-189.5 -49q-213 0 -316.5 134t-103.5 420zM281 528q0 -87 14 -161.5t45.5 -128t83.5 -84t127 -30.5q108 0 172.5 56 t87.5 172v528q-38 30 -87 42.5t-130 12.5q-147 0 -230 -96.5t-83 -310.5z" />
<glyph unicode="e" horiz-adv-x="1081" d="M104 532q0 273 121.5 416t347.5 143q73 0 145 -16t129.5 -61t94 -127t36.5 -216q0 -71 -13 -155h-684q0 -94 19 -166.5t59.5 -122.5t105.5 -76.5t159 -26.5q73 0 145 25.5t109 59.5l63 -124q-63 -51 -160.5 -81t-205.5 -30q-122 0 -211 39.5t-146.5 113.5t-85.5 176 t-28 229zM283 650h528q0 162 -61.5 226.5t-174.5 64.5q-126 0 -201.5 -66t-90.5 -225z" />
<glyph unicode="f" horiz-adv-x="679" d="M47 916v149h166v59q0 98 16 171t52 118.5t94 68t143 22.5q69 0 121 -8.5t109 -32.5l-39 -142q-49 21 -92.5 27.5t-81.5 6.5q-56 0 -87 -17t-44.5 -50.5t-16.5 -81t-3 -111.5v-30h283v-149h-283v-916h-171v916h-166z" />
<glyph unicode="g" horiz-adv-x="1142" d="M104 528q0 273 130 414.5t384 141.5q121 0 207.5 -19t154.5 -45v-1069q0 -207 -110 -304.5t-325 -97.5q-128 0 -205.5 16t-132.5 41l45 144q49 -18 108 -35.5t156 -17.5q89 0 145.5 16.5t90.5 53.5t46.5 95.5t12.5 139.5v102h-8q-43 -61 -109 -94.5t-172 -33.5 q-215 0 -316.5 134.5t-101.5 417.5zM281 530q0 -89 15 -163.5t46.5 -128t82.5 -83t126 -29.5q108 0 170.5 54t87.5 169v545q-85 41 -217 41q-145 0 -228 -98t-83 -307z" />
<glyph unicode="h" horiz-adv-x="1164" d="M164 0v1491h171v-546h8q55 66 132.5 106t193.5 40q89 0 155 -20.5t110 -72t64 -137.5t20 -218v-643h-170v607q0 84 -9.5 146t-35 104t-69 63t-114.5 21q-100 0 -181 -65t-104 -167v-709h-171z" />
<glyph unicode="i" horiz-adv-x="569" d="M164 1388q0 49 33 84.5t84 35.5t87.5 -35.5t36.5 -84.5q0 -48 -36.5 -80t-87.5 -32t-84 32t-33 80zM201 0v1065h169v-1065h-169z" />
<glyph unicode="j" horiz-adv-x="567" d="M19 -303q59 0 94.5 18.5t54.5 57t24.5 96.5t5.5 137v1059h170v-1122q0 -198 -68 -296t-217 -98q-16 0 -31.5 1t-32.5 3v144zM162 1388q0 49 33 84.5t84 35.5t87 -35.5t36 -84.5q0 -48 -36 -80t-87 -32t-84 32t-33 80z" />
<glyph unicode="k" horiz-adv-x="1019" d="M164 0v1491h171v-908l87 31l330 451h198l-326 -429l-87 -69l106 -85l356 -482h-211l-355 479h-98v-479h-171z" />
<glyph unicode="l" horiz-adv-x="621" d="M183 213v1278h171v-1229q0 -75 25.5 -106.5t71.5 -31.5q28 0 60 4t72 19l20 -135q-34 -16 -95 -27t-106 -11q-95 0 -157 54.5t-62 184.5z" />
<glyph unicode="m" horiz-adv-x="1728" d="M164 0v1065h119l32 -130h8q58 69 133.5 112.5t197.5 43.5q102 0 167 -39.5t101 -137.5q49 83 135.5 130t194.5 47q90 0 151.5 -20.5t102 -72t59 -138.5t18.5 -221v-639h-171v641q0 77 -7.5 133.5t-30 93.5t-61.5 55t-103 18q-107 0 -166.5 -59t-84.5 -171v-711h-171v603 q0 85 -7.5 147.5t-29 105.5t-60.5 64t-103 21q-98 0 -163 -59t-90 -149v-733h-171z" />
<glyph unicode="n" horiz-adv-x="1164" d="M164 0v1065h119l32 -130h8q51 69 137.5 112.5t206.5 43.5q87 0 153 -20.5t109.5 -72t66 -137.5t22.5 -218v-643h-170v607q0 167 -48 250.5t-176 83.5q-113 0 -186.5 -60.5t-102.5 -152.5v-728h-171z" />
<glyph unicode="o" d="M104 532q0 271 120.5 415t346.5 144q120 0 208 -39.5t145.5 -113.5t85 -177t27.5 -229q0 -270 -120 -414t-346 -144q-120 0 -208 39.5t-145.5 113.5t-85.5 177t-28 228zM281 532q0 -81 16 -155t50.5 -130t89.5 -89.5t134 -33.5h3q286 0 286 405q0 87 -15.5 161t-50 130 t-89.5 88.5t-134 32.5h-3q-287 0 -287 -409z" />
<glyph unicode="p" horiz-adv-x="1151" d="M164 -426v1491h117l32 -128h8q49 75 127 114.5t178 39.5q213 0 317.5 -126t104.5 -412q0 -134 -35 -241t-99 -182t-154.5 -115.5t-201.5 -40.5q-79 0 -124.5 10t-98.5 33v-443h-171zM335 185q38 -30 87 -45.5t129 -15.5q147 0 234 109.5t87 322.5q0 88 -15.5 159 t-48.5 121t-85 77.5t-129 27.5q-108 0 -171 -56t-88 -172v-528z" />
<glyph unicode="q" horiz-adv-x="1142" d="M104 528q0 275 132 415.5t386 140.5q113 0 212 -21.5t146 -44.5v-1444h-171v532h-8q-43 -63 -108 -97.5t-171 -34.5q-213 0 -315.5 135.5t-102.5 418.5zM281 530q0 -89 15 -164.5t46.5 -129t82.5 -83t126 -29.5q108 0 170.5 55t87.5 170v545q-79 41 -217 41 q-147 0 -229 -99t-82 -306z" />
<glyph unicode="r" horiz-adv-x="723" d="M164 0v1065h119l32 -130h8q41 73 97.5 112t144.5 39q61 0 138 -21l-36 -164q-64 20 -122 21q-92 0 -145 -49.5t-65 -126.5v-746h-171z" />
<glyph unicode="s" horiz-adv-x="896" d="M83 53l51 145q49 -28 128 -51t160 -23q92 0 151 36.5t59 129.5q0 64 -38 100t-94.5 60.5t-123.5 47t-123.5 57.5t-94.5 90.5t-38 149.5q0 152 87 224t242 72q116 0 193.5 -20.5t135.5 -48.5l-41 -140q-49 24 -118.5 41.5t-147.5 17.5q-93 0 -137 -31.5t-44 -110.5 q0 -55 38 -86.5t94.5 -56t124 -47.5t123.5 -61.5t94.5 -97t38.5 -154.5q0 -68 -22.5 -128t-69 -102t-116 -67t-162.5 -25q-122 0 -207.5 23.5t-142.5 55.5z" />
<glyph unicode="t" horiz-adv-x="721" d="M24 916v149h165v211l171 49v-260h290v-149h-290v-590q0 -111 27.5 -156.5t94.5 -45.5q55 0 93.5 11.5t84.5 30.5l39 -130q-57 -28 -126 -45t-147 -17q-130 0 -183.5 74t-53.5 246v622h-165z" />
<glyph unicode="u" horiz-adv-x="1147" d="M147 422v643h170v-607q0 -84 10 -146t33.5 -104t63.5 -63t102 -21q57 0 102 18t80.5 50t62 73.5t42.5 88.5v711h171v-762q0 -77 5 -159.5t19 -143.5h-118l-42 168h-11q-49 -83 -132 -138.5t-211 -55.5q-85 0 -150 20.5t-109 72t-66 137.5t-22 218z" />
<glyph unicode="v" horiz-adv-x="1026" d="M19 1065h196l256 -624l59 -203h2l54 207l239 620h183l-455 -1089h-71z" />
<glyph unicode="w" horiz-adv-x="1565" d="M17 1065h186l210 -620l36 -207h2l51 211l228 616h124l245 -622l53 -205h4l41 209l189 618h163l-358 -1089h-83l-279 703l-41 175h-6l-43 -177l-268 -701h-83z" />
<glyph unicode="x" horiz-adv-x="1096" d="M59 0l384 545l-358 520h209l202 -294l60 -121l62 121l207 294h191l-360 -512l381 -553h-202l-226 323l-64 128l-66 -128l-229 -323h-191z" />
<glyph unicode="y" horiz-adv-x="992" d="M26 1065h196l255 -691l60 -203h10l47 205l207 689h172l-315 -957q-36 -104 -71.5 -201.5t-77.5 -174.5t-95.5 -123t-123.5 -46q-77 0 -126 22l29 147q29 -11 55 -11q59 0 114 63t91 216z" />
<glyph unicode="z" horiz-adv-x="951" d="M89 0v149l492 678l90 89h-582v149h759v-149l-496 -684l-88 -83h584v-149h-759z" />
<glyph unicode="{" horiz-adv-x="736" d="M122 426v149q81 0 125.5 42.5t44.5 136.5v516q0 100 50 161.5t152 61.5h181v-149h-106q-57 0 -84 -29t-27 -97v-505q0 -93 -45 -142t-104 -59v-14q57 -8 103 -65t46 -146v-502q0 -66 25.5 -96t87.5 -30h104v-149h-181q-96 0 -149 57t-53 165v506q0 108 -44.5 148 t-125.5 40z" />
<glyph unicode="|" horiz-adv-x="506" d="M181 -277v1768h145v-1768h-145z" />
<glyph unicode="}" horiz-adv-x="736" d="M118 -341h106q57 0 84 29t27 97v505q0 94 43.5 143t103.5 59v12q-58 9 -102.5 65.5t-44.5 146.5v502q0 65 -26 95.5t-85 30.5h-106v149h183q93 0 146 -56.5t53 -164.5v-508q0 -108 45 -147.5t126 -39.5v-149q-81 0 -126 -42.5t-45 -135.5v-516q0 -100 -50 -162t-152 -62 h-180v149z" />
<glyph unicode="~" horiz-adv-x="1075" d="M66 769q91 70 166 97.5t136 27.5q59 0 110.5 -18t98.5 -40.5t91.5 -40t93.5 -17.5q41 0 83.5 16.5t91.5 59.5l73 -130q-81 -55 -146 -77.5t-118 -22.5q-58 0 -106 18t-92 40.5t-87.5 41t-94.5 18.5q-49 0 -104 -22.5t-124 -78.5z" />
<glyph unicode="&#xa1;" horiz-adv-x="646" d="M158 965q0 57 33 90.5t88 33.5q57 0 91.5 -33.5t34.5 -90.5q0 -55 -34 -89.5t-92 -34.5q-55 0 -88 34.5t-33 89.5zM198 313l36 375h105l35 -375v-739h-176v739z" />
<glyph unicode="&#xa2;" horiz-adv-x="1160" d="M185 532q0 246 101.5 387.5t288.5 164.5v194h151v-189q75 -4 132.5 -20.5t104.5 -39.5l-49 -145q-42 21 -95 36t-108 19v-815q69 4 124 26.5t92 50.5l55 -130q-51 -37 -116 -59t-140 -31v-194h-151v192q-106 11 -180 54.5t-120.5 114.5t-68 169t-21.5 215zM362 532 q0 -70 12 -135t39.5 -119t72 -92.5t110.5 -53.5v803q-234 -45 -234 -403z" />
<glyph unicode="&#xa3;" horiz-adv-x="1160" d="M89 0v153q69 0 117 25t78.5 64t45.5 89.5t15 101.5q0 70 -14 126.5t-35 107.5h-207v148h141q-26 55 -42.5 122t-16.5 156q0 209 119 316t326 107q130 0 225.5 -19t157.5 -48l-56 -152q-49 24 -131 43t-198 19q-128 0 -197.5 -69t-69.5 -187q0 -89 21.5 -157t50.5 -131 h343v-148h-278q16 -49 27 -102t11 -118q0 -63 -19 -130t-58 -110l-83 -71v-8l132 30h545v-158h-950z" />
<glyph unicode="&#xa5;" horiz-adv-x="1160" d="M4 1491h207l350 -652l35 -130h2l38 134l335 648h190l-433 -792h201v-128h-258v-134h258v-128h-258v-309h-177v309h-258v128h258v134h-258v128h201z" />
<glyph unicode="&#xa7;" horiz-adv-x="1057" d="M122 752q0 65 32.5 128t87.5 112l88 30q-55 35 -92 87t-37 139q0 120 87.5 194t246.5 74q115 0 194.5 -19t137.5 -46l-40 -144q-51 24 -122 42.5t-147 18.5q-95 0 -141.5 -34.5t-46.5 -91.5q0 -55 41.5 -86.5t105.5 -55t136.5 -46.5t136.5 -60t105.5 -98t41.5 -157 q0 -65 -31.5 -127.5t-88.5 -111.5l-95 -29q57 -34 96.5 -87.5t39.5 -141.5q0 -65 -25.5 -115t-71 -84.5t-107.5 -51.5t-132 -17q-120 0 -196 20.5t-137 50.5l43 138q49 -24 118 -41.5t150 -17.5q90 0 139 28.5t49 97.5q0 55 -41.5 86.5t-105.5 55t-136.5 47t-136 61t-105 97 t-41.5 155.5zM292 756q0 -53 27.5 -87.5t71.5 -58.5t100 -41.5t114 -38.5q30 13 59 34.5t52 48t36.5 57.5t13.5 65q0 53 -27.5 87t-73 58.5t-103.5 42.5t-115 40q-61 -28 -108 -79t-47 -128z" />
<glyph unicode="&#xa8;" horiz-adv-x="874" d="M128 1390q0 49 28.5 79.5t75.5 30.5t76 -30.5t29 -79.5q0 -44 -29 -74t-76 -30t-75.5 30t-28.5 74zM537 1390q0 49 28.5 79.5t75.5 30.5q49 0 78 -30.5t29 -79.5q0 -44 -28.5 -74t-78.5 -30q-47 0 -75.5 30t-28.5 74z" />
<glyph unicode="&#xa9;" horiz-adv-x="1716" d="M108 618q0 177 60 316t162.5 235.5t238.5 147.5t289 51t289.5 -51t239 -147.5t162 -235.5t59.5 -316t-59.5 -316.5t-162 -235.5t-238.5 -147t-290 -51q-171 0 -309 51t-236 147t-151.5 235.5t-53.5 316.5zM258 618q0 -147 47 -261.5t128 -191t190.5 -117t234.5 -40.5 q126 0 235.5 40.5t191 117t128 191t46.5 261.5q0 146 -46.5 260t-128 191t-191 117.5t-235.5 40.5t-235 -40.5t-190 -117.5t-128 -191t-47 -260zM500 618q0 193 97.5 298.5t256.5 105.5q38 0 69.5 -4t58 -11.5t52 -18t57.5 -23.5l-56 -130q-47 24 -89.5 32.5t-71.5 8.5 q-90 0 -146.5 -56t-56.5 -202q0 -124 55.5 -191t163.5 -69q100 0 171 38l45 -126q-49 -28 -110 -42.5t-142 -14.5q-173 0 -263.5 109t-90.5 296z" />
<glyph unicode="&#xaa;" horiz-adv-x="821" d="M102 1004q0 65 32 110t86.5 72.5t128 40.5t157.5 13q15 0 29 -1t30 -1q2 12 2 24v22q0 58 -25.5 81t-98.5 23q-85 0 -155.5 -15.5t-110.5 -37.5l-32 106q53 29 140 48t194 19q133 0 181.5 -55.5t48.5 -159.5q0 -81 -3 -155.5t-3 -143.5q0 -51 3 -97.5t14 -87.5h-117 l-28 98h-8q-28 -37 -79 -71.5t-143 -34.5q-110 0 -176.5 54t-66.5 149zM252 1014q0 -43 30.5 -68.5t85.5 -25.5q45 0 78 10.5t56.5 29t38.5 38.5t24 39v89q-24 2 -45.5 2h-44.5q-44 0 -85 -4t-72 -16.5t-48.5 -35t-17.5 -58.5z" />
<glyph unicode="&#xab;" horiz-adv-x="1017" d="M83 551l341 490l115 -91l-209 -309l-102 -88l102 -76l221 -302l-114 -94zM473 551l336 486l113 -90l-206 -306l-102 -88l102 -76l219 -300l-110 -92z" />
<glyph unicode="&#xac;" horiz-adv-x="1075" d="M87 681v154h903v-409h-153v255h-750z" />
<glyph unicode="&#xae;" horiz-adv-x="1490" d="M181 961q0 136 44.5 241t122.5 177t180 109t218 37q117 0 220 -37t180 -109t120.5 -177t43.5 -241t-44.5 -241.5t-122.5 -177t-180.5 -109t-216.5 -37.5q-120 0 -222 37.5t-179 109t-120.5 177t-43.5 241.5zM315 961q0 -110 34.5 -193t92.5 -137t137 -81.5t167 -27.5 q91 0 169.5 26.5t136.5 80.5t90.5 136.5t32.5 195.5q0 110 -33.5 192.5t-92.5 136.5t-136.5 82t-166.5 28q-94 0 -173 -28t-136 -82t-89.5 -136.5t-32.5 -192.5zM526 685v553q35 10 96 15t117 5q90 0 154 -36.5t64 -128.5q0 -69 -44 -105t-108 -41l59 -29l158 -233h-130 l-153 222l-103 32v-254h-110zM636 1004h73q62 0 96 18.5t34 66.5q0 74 -123 74q-24 0 -45 -1t-35 -8v-150z" />
<glyph unicode="&#xaf;" horiz-adv-x="885" d="M128 1238v132h630v-132h-630z" />
<glyph unicode="&#xb0;" horiz-adv-x="904" d="M181 1216q0 65 23.5 121t64 95.5t95.5 61.5t118 22q61 0 116.5 -20t96 -59.5t64 -95t23.5 -125.5q0 -71 -23.5 -126t-64 -94t-96 -59.5t-116.5 -20.5q-62 0 -117.5 20.5t-96 59.5t-64 94t-23.5 126zM315 1216q0 -81 50 -126.5t117 -45.5q65 0 115.5 46t50.5 126 q0 81 -50.5 126.5t-115.5 45.5q-66 0 -116.5 -45.5t-50.5 -126.5z" />
<glyph unicode="&#xb1;" horiz-adv-x="1075" d="M85 380v152h903v-152h-903zM85 899v153h375v383h154v-383h374v-153h-374v-258h-154v258h-375z" />
<glyph unicode="&#xb4;" horiz-adv-x="569" d="M128 1216l126 318h189v-45l-215 -273h-100z" />
<glyph unicode="&#xb6;" horiz-adv-x="1051" d="M79 1077q0 79 24.5 153.5t71.5 132.5t115 93t153 35h96v-1768h-145v937q-68 0 -125.5 35t-99 94t-66 134.5t-24.5 153.5zM726 -277v1768h146v-1768h-146z" />
<glyph unicode="&#xb7;" horiz-adv-x="567" d="M161 630q0 57 33.5 90.5t88.5 33.5q57 0 91.5 -33t34.5 -91q0 -55 -34.5 -89.5t-91.5 -34.5q-55 0 -88.5 34.5t-33.5 89.5z" />
<glyph unicode="&#xb8;" horiz-adv-x="610" d="M128 -435l14 105q13 -2 24 -3.5t49 -3.5q26 0 50.5 3.5t38 14t18 23.5t4.5 26q2 61 -184 79l103 191h121l-51 -92q90 -16 129.5 -54.5t39.5 -105.5q0 -87 -70.5 -139t-189.5 -52q-24 0 -47.5 2t-48.5 6z" />
<glyph unicode="&#xba;" horiz-adv-x="847" d="M94 1154q0 96 25.5 164t69 113t104.5 65t131 20q71 0 131.5 -19t104 -61.5t69 -112t25.5 -169.5q0 -99 -25.5 -168.5t-69 -112t-104.5 -62t-131 -19.5t-131 19.5t-104.5 62t-69 112t-25.5 168.5zM252 1154q0 -128 45.5 -183t126.5 -55q41 0 72.5 11.5t54 38t34 72.5 t11.5 116q0 71 -11.5 117t-34 72.5t-54.5 38t-72 11.5q-81 0 -126.5 -50t-45.5 -189z" />
<glyph unicode="&#xbb;" horiz-adv-x="1017" d="M83 945l110 92l354 -466l-340 -486l-111 90l205 307l104 87l-104 77zM467 947l112 94l356 -470l-341 -490l-115 92l209 309l102 87l-102 77z" />
<glyph unicode="&#xbf;" horiz-adv-x="927" d="M79 -104q0 96 28.5 167t72.5 130t93.5 110t93.5 107.5t73 122t29 155.5h140q3 -10 3 -23v-24q0 -90 -27 -158t-66.5 -124t-85 -105t-85 -99.5t-66 -106.5t-26.5 -129q0 -98 56 -160t188 -62q77 0 156 26.5t136 63.5l58 -132q-81 -49 -170.5 -77.5t-221.5 -28.5 q-94 0 -165 26.5t-119 73t-71.5 109.5t-23.5 138zM407 967q0 57 33 90.5t88 33.5q58 0 92 -33.5t34 -90.5q0 -55 -34 -89.5t-92 -34.5q-55 0 -88 34.5t-33 89.5z" />
<glyph unicode="&#xc0;" horiz-adv-x="1245" d="M17 0l564 1514h81l567 -1514h-185l-154 413h-549l-150 -413h-174zM288 1809v44h242l252 -251h-158zM398 567h439l-166 453l-53 226h-2l-53 -230z" />
<glyph unicode="&#xc1;" horiz-adv-x="1245" d="M17 0l564 1514h81l567 -1514h-185l-154 413h-549l-150 -413h-174zM398 567h439l-166 453l-53 226h-2l-53 -230zM454 1602l252 251h242v-44l-347 -207h-147z" />
<glyph unicode="&#xc2;" horiz-adv-x="1245" d="M17 0l564 1514h81l567 -1514h-185l-154 413h-549l-150 -413h-174zM281 1591v47l283 215h128l270 -217v-45h-173l-127 104l-36 75l-40 -73l-137 -106h-168zM398 567h439l-166 453l-53 226h-2l-53 -230z" />
<glyph unicode="&#xc3;" horiz-adv-x="1245" d="M17 0l564 1514h81l567 -1514h-185l-154 413h-549l-150 -413h-174zM288 1672q65 69 122 93t108 24q40 0 78.5 -10.5t73.5 -24.5t69.5 -24.5t66.5 -10.5q55 0 106 45l53 -92q-57 -53 -108 -73t-96 -20q-40 0 -76.5 10.5t-72 24.5t-69.5 24t-68 10t-67 -13.5t-69 -49.5z M398 567h439l-166 453l-53 226h-2l-53 -230z" />
<glyph unicode="&#xc4;" horiz-adv-x="1245" d="M17 0l564 1514h81l567 -1514h-185l-154 413h-549l-150 -413h-174zM307 1691q0 45 31.5 72.5t82.5 27.5q49 0 80.5 -27.5t31.5 -72.5q0 -43 -31 -70.5t-81 -27.5q-51 0 -82.5 27.5t-31.5 70.5zM398 567h439l-166 453l-53 226h-2l-53 -230zM716 1691q0 45 30.5 72.5 t80.5 27.5q51 0 82.5 -27.5t31.5 -72.5q0 -43 -31.5 -70.5t-82.5 -27.5q-49 0 -80 27.5t-31 70.5z" />
<glyph unicode="&#xc5;" horiz-adv-x="1245" d="M17 0l546 1463q-81 13 -122 58.5t-41 114.5q0 79 53 130t171 51q106 0 166 -46t60 -135q0 -69 -43 -114.5t-126 -58.5l548 -1463h-185l-154 413h-549l-150 -413h-174zM398 567h439l-166 453l-53 226h-2l-53 -230zM530 1636q0 -36 22.5 -60.5t71.5 -24.5q47 0 71.5 23 t24.5 62q0 40 -23.5 64.5t-72.5 24.5q-47 0 -70.5 -24.5t-23.5 -64.5z" />
<glyph unicode="&#xc6;" horiz-adv-x="1801" d="M-47 0l884 1491h816v-158h-635v-487h582v-158h-582v-530h645v-158h-822v422h-455l-239 -422h-194zM477 571h364v707h-8l-73 -219z" />
<glyph unicode="&#xc7;" horiz-adv-x="1215" d="M120 746q0 209 56 354.5t148.5 238t208 135t233.5 42.5q128 0 209.5 -13.5t138.5 -37.5l-43 -155q-102 49 -291 49q-87 0 -172.5 -32t-152.5 -104.5t-107.5 -189.5t-40.5 -287q0 -153 38.5 -268.5t105.5 -192t157.5 -115t196.5 -38.5q96 0 167.5 19.5t120.5 49.5l43 -140 q-55 -42 -136.5 -61t-176.5 -24l-37 -68q90 -16 129.5 -54.5t39.5 -105.5q0 -83 -69 -137t-191 -54q-24 0 -47.5 2t-49.5 6l20 83q12 -2 23 -2h21q47 0 73.5 8.5t40.5 20.5t17.5 27t3.5 28q0 59 -183 79l89 170q-124 9 -230.5 58.5t-185 143.5t-123 234.5t-44.5 330.5z" />
<glyph unicode="&#xc8;" d="M181 0v1491h811v-158h-634v-487h581v-158h-581v-530h646v-158h-823zM201 1809v44h242l252 -251h-158z" />
<glyph unicode="&#xc9;" d="M181 0v1491h811v-158h-634v-487h581v-158h-581v-530h646v-158h-823zM451 1602l252 251h242v-44l-347 -207h-147z" />
<glyph unicode="&#xca;" d="M181 0v1491h811v-158h-634v-487h581v-158h-581v-530h646v-158h-823zM232 1591v47l283 215h128l270 -217v-45h-173l-127 104l-36 75l-40 -73l-137 -106h-168z" />
<glyph unicode="&#xcb;" d="M181 0v1491h811v-158h-634v-487h581v-158h-581v-530h646v-158h-823zM256 1691q0 45 31.5 72.5t82.5 27.5q49 0 80.5 -27.5t31.5 -72.5q0 -43 -31 -70.5t-81 -27.5q-51 0 -82.5 27.5t-31.5 70.5zM665 1691q0 45 30.5 72.5t80.5 27.5q51 0 82.5 -27.5t31.5 -72.5 q0 -43 -31.5 -70.5t-82.5 -27.5q-49 0 -80 27.5t-31 70.5z" />
<glyph unicode="&#xcc;" horiz-adv-x="618" d="M-77 1809v44h242l252 -251h-158zM222 0v1491h176v-1491h-176z" />
<glyph unicode="&#xcd;" horiz-adv-x="618" d="M132 1602l252 251h242v-44l-347 -207h-147zM222 0v1491h176v-1491h-176z" />
<glyph unicode="&#xce;" horiz-adv-x="618" d="M-30 1591v47l283 215h128l270 -217v-45h-173l-127 104l-36 75l-40 -73l-137 -106h-168zM222 0v1491h176v-1491h-176z" />
<glyph unicode="&#xcf;" horiz-adv-x="618" d="M-2 1691q0 45 31.5 72.5t82.5 27.5q49 0 80.5 -27.5t31.5 -72.5q0 -43 -31 -70.5t-81 -27.5q-51 0 -82.5 27.5t-31.5 70.5zM222 0v1491h176v-1491h-176zM407 1691q0 45 30.5 72.5t80.5 27.5q51 0 82.5 -27.5t31.5 -72.5q0 -43 -31.5 -70.5t-82.5 -27.5q-49 0 -80 27.5 t-31 70.5z" />
<glyph unicode="&#xd0;" horiz-adv-x="1400" d="M-2 707v128h191v656q41 7 91 10t104.5 4t106.5 2t97 1q178 0 309.5 -55.5t216.5 -154.5t126.5 -237.5t41.5 -304.5q0 -151 -39.5 -290.5t-124.5 -247.5t-221.5 -172.5t-329.5 -64.5q-35 0 -89 1t-111.5 4.5t-106.5 5.5t-71 6v709h-191zM366 147q10 -2 40.5 -3.5t62 -2.5 t62 -2t40.5 -1q149 0 250 51t162 137.5t86.5 198t25.5 231.5q0 104 -23.5 209.5t-81 191t-155 139.5t-243.5 54h-61t-64.5 -2t-58 -4t-42.5 -4v-505h313v-128h-313v-560z" />
<glyph unicode="&#xd1;" horiz-adv-x="1433" d="M181 0v1514h94l713 -994l111 -205h11l-24 205v971h166v-1515h-93l-710 1000l-114 215h-9l21 -215v-976h-166zM382 1672q65 69 122 93t108 24q40 0 78.5 -10.5t73.5 -24.5t69.5 -24.5t66.5 -10.5q55 0 106 45l53 -92q-57 -53 -108 -73t-96 -20q-40 0 -76.5 10.5t-72 24.5 t-69.5 24t-68 10t-67 -13.5t-69 -49.5z" />
<glyph unicode="&#xd2;" horiz-adv-x="1456" d="M120 746q0 372 157.5 571t448.5 199q158 0 273 -55t191 -156.5t111.5 -243t35.5 -315.5q0 -373 -158.5 -572.5t-452.5 -199.5q-156 0 -269.5 55.5t-189.5 156.5t-111.5 243t-35.5 317zM307 746q0 -124 24.5 -235t75.5 -195t131 -134t188 -50q198 0 311 150.5t113 463.5 q0 121 -24.5 233t-77 195.5t-132 134t-190.5 50.5q-196 0 -307.5 -150t-111.5 -463zM380 1809v44h242l252 -251h-158z" />
<glyph unicode="&#xd3;" horiz-adv-x="1456" d="M120 746q0 372 157.5 571t448.5 199q158 0 273 -55t191 -156.5t111.5 -243t35.5 -315.5q0 -373 -158.5 -572.5t-452.5 -199.5q-156 0 -269.5 55.5t-189.5 156.5t-111.5 243t-35.5 317zM307 746q0 -124 24.5 -235t75.5 -195t131 -134t188 -50q198 0 311 150.5t113 463.5 q0 121 -24.5 233t-77 195.5t-132 134t-190.5 50.5q-196 0 -307.5 -150t-111.5 -463zM632 1602l252 251h242v-44l-347 -207h-147z" />
<glyph unicode="&#xd4;" horiz-adv-x="1456" d="M120 746q0 372 157.5 571t448.5 199q158 0 273 -55t191 -156.5t111.5 -243t35.5 -315.5q0 -373 -158.5 -572.5t-452.5 -199.5q-156 0 -269.5 55.5t-189.5 156.5t-111.5 243t-35.5 317zM307 746q0 -124 24.5 -235t75.5 -195t131 -134t188 -50q198 0 311 150.5t113 463.5 q0 121 -24.5 233t-77 195.5t-132 134t-190.5 50.5q-196 0 -307.5 -150t-111.5 -463zM382 1591v47l283 215h128l270 -217v-45h-173l-127 104l-36 75l-40 -73l-137 -106h-168z" />
<glyph unicode="&#xd5;" horiz-adv-x="1456" d="M120 746q0 372 157.5 571t448.5 199q158 0 273 -55t191 -156.5t111.5 -243t35.5 -315.5q0 -373 -158.5 -572.5t-452.5 -199.5q-156 0 -269.5 55.5t-189.5 156.5t-111.5 243t-35.5 317zM307 746q0 -124 24.5 -235t75.5 -195t131 -134t188 -50q198 0 311 150.5t113 463.5 q0 121 -24.5 233t-77 195.5t-132 134t-190.5 50.5q-196 0 -307.5 -150t-111.5 -463zM388 1672q65 69 122 93t108 24q40 0 78.5 -10.5t73.5 -24.5t69.5 -24.5t66.5 -10.5q55 0 106 45l53 -92q-57 -53 -108 -73t-96 -20q-40 0 -76.5 10.5t-72 24.5t-69.5 24t-68 10t-67 -13.5 t-69 -49.5z" />
<glyph unicode="&#xd6;" horiz-adv-x="1456" d="M120 746q0 372 157.5 571t448.5 199q158 0 273 -55t191 -156.5t111.5 -243t35.5 -315.5q0 -373 -158.5 -572.5t-452.5 -199.5q-156 0 -269.5 55.5t-189.5 156.5t-111.5 243t-35.5 317zM307 746q0 -124 24.5 -235t75.5 -195t131 -134t188 -50q198 0 311 150.5t113 463.5 q0 121 -24.5 233t-77 195.5t-132 134t-190.5 50.5q-196 0 -307.5 -150t-111.5 -463zM405 1691q0 45 31.5 72.5t82.5 27.5q49 0 80.5 -27.5t31.5 -72.5q0 -43 -31 -70.5t-81 -27.5q-51 0 -82.5 27.5t-31.5 70.5zM814 1691q0 45 30.5 72.5t80.5 27.5q51 0 82.5 -27.5 t31.5 -72.5q0 -43 -31.5 -70.5t-82.5 -27.5q-49 0 -80 27.5t-31 70.5z" />
<glyph unicode="&#xd8;" horiz-adv-x="1456" d="M120 746q0 372 157.5 571t448.5 199q122 0 215.5 -31.5t166.5 -94.5l89 128l110 -73l-108 -154q71 -102 104.5 -239.5t33.5 -305.5q0 -373 -158.5 -572.5t-452.5 -199.5q-228 0 -372 120l-84 -120l-110 77l100 142q-73 102 -106.5 241t-33.5 312zM307 746 q0 -108 18 -204.5t57 -177.5l617 876q-48 55 -116 87t-157 32q-196 0 -307.5 -150t-111.5 -463zM460 242q49 -53 115 -81.5t151 -28.5q198 0 311 150.5t113 463.5q0 102 -18 197.5t-55 174.5z" />
<glyph unicode="&#xd9;" horiz-adv-x="1388" d="M181 462v1029h177v-946q0 -113 22 -190.5t67 -125.5t112 -69.5t157 -21.5q172 0 246.5 95t74.5 312v946h170v-995q0 -134 -34.5 -232t-99.5 -160.5t-156.5 -92.5t-203.5 -30q-264 0 -398 119t-134 362zM373 1809v44h242l252 -251h-158z" />
<glyph unicode="&#xda;" horiz-adv-x="1388" d="M181 462v1029h177v-946q0 -113 22 -190.5t67 -125.5t112 -69.5t157 -21.5q172 0 246.5 95t74.5 312v946h170v-995q0 -134 -34.5 -232t-99.5 -160.5t-156.5 -92.5t-203.5 -30q-264 0 -398 119t-134 362zM579 1602l252 251h242v-44l-347 -207h-147z" />
<glyph unicode="&#xdb;" horiz-adv-x="1388" d="M181 462v1029h177v-946q0 -113 22 -190.5t67 -125.5t112 -69.5t157 -21.5q172 0 246.5 95t74.5 312v946h170v-995q0 -134 -34.5 -232t-99.5 -160.5t-156.5 -92.5t-203.5 -30q-264 0 -398 119t-134 362zM358 1591v47l283 215h128l270 -217v-45h-173l-127 104l-36 75 l-40 -73l-137 -106h-168z" />
<glyph unicode="&#xdc;" horiz-adv-x="1388" d="M181 462v1029h177v-946q0 -113 22 -190.5t67 -125.5t112 -69.5t157 -21.5q172 0 246.5 95t74.5 312v946h170v-995q0 -134 -34.5 -232t-99.5 -160.5t-156.5 -92.5t-203.5 -30q-264 0 -398 119t-134 362zM380 1691q0 45 31.5 72.5t82.5 27.5q49 0 80.5 -27.5t31.5 -72.5 q0 -43 -31 -70.5t-81 -27.5q-51 0 -82.5 27.5t-31.5 70.5zM789 1691q0 45 30.5 72.5t80.5 27.5q51 0 82.5 -27.5t31.5 -72.5q0 -43 -31.5 -70.5t-82.5 -27.5q-49 0 -80 27.5t-31 70.5z" />
<glyph unicode="&#xdd;" horiz-adv-x="1187" d="M17 1491h207l349 -652l36 -130h3l38 134l334 648h189l-488 -897v-594h-176v592zM504 1602l252 251h242v-44l-347 -207h-147z" />
<glyph unicode="&#xde;" horiz-adv-x="1189" d="M181 0v1704h177v-373q89 6 183 6q98 0 199 -19t184.5 -70t135.5 -140.5t52 -227.5q0 -136 -49 -230t-130 -152.5t-185.5 -84t-215.5 -25.5h-34.5t-51.5 1t-52.5 3t-35.5 4v-396h-177zM358 553q10 -4 33.5 -5t49.5 -2t49.5 -1h33.5q73 0 144 14t128.5 50.5t93 102.5 t35.5 168q0 87 -33.5 145.5t-87.5 93.5t-122 50.5t-137 15.5q-55 0 -106 -2.5t-81 -11.5v-618z" />
<glyph unicode="&#xdf;" horiz-adv-x="1260" d="M47 916v149h166v49q0 207 101 298.5t280 91.5q87 0 160 -22.5t125 -64t80.5 -98t28.5 -126.5q0 -81 -40.5 -130t-88.5 -87.5t-88.5 -75t-40.5 -89.5q0 -47 32.5 -74.5t81 -48.5t104.5 -43.5t104.5 -59t80.5 -94.5t32 -152q0 -69 -25.5 -134t-73.5 -116t-120 -83t-164 -32 q-49 0 -86.5 3.5t-68.5 11t-58.5 18t-54.5 27.5l49 143q26 -13 44.5 -24t41 -17t50 -9t67.5 -3q45 0 86.5 16t74 43.5t50 64.5t17.5 84q0 63 -31.5 101t-79.5 63.5t-104.5 46t-104.5 51t-79.5 78.5t-31.5 129q0 83 39 133t89.5 89.5t88 76t37.5 91.5q0 36 -19.5 65.5t-52 52 t-71 34.5t-73.5 12q-59 0 -101 -15t-68.5 -49.5t-37 -90.5t-10.5 -139v-1061h-171v916h-166z" />
<glyph unicode="&#xe0;" horiz-adv-x="1055" d="M83 285q0 94 38.5 156.5t107.5 100t166 54t214 16.5h59.5t57.5 -5q6 64 7 115q0 117 -47 164t-170 47q-37 0 -78.5 -5.5t-85 -15t-83 -23t-68.5 -31.5l-54 128q81 49 188.5 72.5t225.5 23.5q110 0 177 -30t102.5 -77.5t47 -105.5t11.5 -115q0 -128 -6.5 -249t-6.5 -230 q0 -79 6.5 -149.5t23.5 -129.5h-126l-44 149h-11q-18 -31 -47.5 -59.5t-70 -51t-93.5 -37t-122 -14.5q-68 0 -126.5 21.5t-101 60.5t-67 94.5t-24.5 125.5zM260 303q0 -75 53 -123t136 -48q60 0 107 16t81 40.5t56.5 54t32.5 58.5v176q-30 2 -61 3.5t-60 1.5 q-65 0 -128.5 -7.5t-111.5 -28t-76.5 -55.5t-28.5 -88zM309 1489v45h202l139 -318h-97z" />
<glyph unicode="&#xe1;" horiz-adv-x="1055" d="M83 285q0 94 38.5 156.5t107.5 100t166 54t214 16.5h59.5t57.5 -5q6 64 7 115q0 117 -47 164t-170 47q-37 0 -78.5 -5.5t-85 -15t-83 -23t-68.5 -31.5l-54 128q81 49 188.5 72.5t225.5 23.5q110 0 177 -30t102.5 -77.5t47 -105.5t11.5 -115q0 -128 -6.5 -249t-6.5 -230 q0 -79 6.5 -149.5t23.5 -129.5h-126l-44 149h-11q-18 -31 -47.5 -59.5t-70 -51t-93.5 -37t-122 -14.5q-68 0 -126.5 21.5t-101 60.5t-67 94.5t-24.5 125.5zM260 303q0 -75 53 -123t136 -48q60 0 107 16t81 40.5t56.5 54t32.5 58.5v176q-30 2 -61 3.5t-60 1.5 q-65 0 -128.5 -7.5t-111.5 -28t-76.5 -55.5t-28.5 -88zM382 1216l126 318h189v-45l-215 -273h-100z" />
<glyph unicode="&#xe2;" horiz-adv-x="1055" d="M83 285q0 94 38.5 156.5t107.5 100t166 54t214 16.5h59.5t57.5 -5q6 64 7 115q0 117 -47 164t-170 47q-37 0 -78.5 -5.5t-85 -15t-83 -23t-68.5 -31.5l-54 128q81 49 188.5 72.5t225.5 23.5q110 0 177 -30t102.5 -77.5t47 -105.5t11.5 -115q0 -128 -6.5 -249t-6.5 -230 q0 -79 6.5 -149.5t23.5 -129.5h-126l-44 149h-11q-18 -31 -47.5 -59.5t-70 -51t-93.5 -37t-122 -14.5q-68 0 -126.5 21.5t-101 60.5t-67 94.5t-24.5 125.5zM248 1171l262 388h68l237 -388h-154l-83 141l-45 123l-47 -123l-96 -141h-142zM260 303q0 -75 53 -123t136 -48 q60 0 107 16t81 40.5t56.5 54t32.5 58.5v176q-30 2 -61 3.5t-60 1.5q-65 0 -128.5 -7.5t-111.5 -28t-76.5 -55.5t-28.5 -88z" />
<glyph unicode="&#xe3;" horiz-adv-x="1055" d="M83 285q0 94 38.5 156.5t107.5 100t166 54t214 16.5h59.5t57.5 -5q6 64 7 115q0 117 -47 164t-170 47q-37 0 -78.5 -5.5t-85 -15t-83 -23t-68.5 -31.5l-54 128q81 49 188.5 72.5t225.5 23.5q110 0 177 -30t102.5 -77.5t47 -105.5t11.5 -115q0 -128 -6.5 -249t-6.5 -230 q0 -79 6.5 -149.5t23.5 -129.5h-126l-44 149h-11q-18 -31 -47.5 -59.5t-70 -51t-93.5 -37t-122 -14.5q-68 0 -126.5 21.5t-101 60.5t-67 94.5t-24.5 125.5zM232 1397q61 70 112.5 96.5t94.5 26.5q36 0 67 -13.5t59.5 -29.5t55 -29t56.5 -13q47 0 98 52l51 -92 q-55 -62 -101 -84t-84 -22q-35 0 -64.5 13t-58 28.5t-57.5 29.5t-59 14q-28 0 -56.5 -15t-64.5 -52zM260 303q0 -75 53 -123t136 -48q60 0 107 16t81 40.5t56.5 54t32.5 58.5v176q-30 2 -61 3.5t-60 1.5q-65 0 -128.5 -7.5t-111.5 -28t-76.5 -55.5t-28.5 -88z" />
<glyph unicode="&#xe4;" horiz-adv-x="1055" d="M83 285q0 94 38.5 156.5t107.5 100t166 54t214 16.5h59.5t57.5 -5q6 64 7 115q0 117 -47 164t-170 47q-37 0 -78.5 -5.5t-85 -15t-83 -23t-68.5 -31.5l-54 128q81 49 188.5 72.5t225.5 23.5q110 0 177 -30t102.5 -77.5t47 -105.5t11.5 -115q0 -128 -6.5 -249t-6.5 -230 q0 -79 6.5 -149.5t23.5 -129.5h-126l-44 149h-11q-18 -31 -47.5 -59.5t-70 -51t-93.5 -37t-122 -14.5q-68 0 -126.5 21.5t-101 60.5t-67 94.5t-24.5 125.5zM224 1390q0 49 28.5 79.5t75.5 30.5t76 -30.5t29 -79.5q0 -44 -29 -74t-76 -30t-75.5 30t-28.5 74zM260 303 q0 -75 53 -123t136 -48q60 0 107 16t81 40.5t56.5 54t32.5 58.5v176q-30 2 -61 3.5t-60 1.5q-65 0 -128.5 -7.5t-111.5 -28t-76.5 -55.5t-28.5 -88zM633 1390q0 49 28.5 79.5t75.5 30.5q49 0 78 -30.5t29 -79.5q0 -44 -28.5 -74t-78.5 -30q-47 0 -75.5 30t-28.5 74z" />
<glyph unicode="&#xe5;" horiz-adv-x="1055" d="M83 285q0 94 38.5 156.5t107.5 100t166 54t214 16.5h59.5t57.5 -5q6 64 7 115q0 117 -47 164t-170 47q-37 0 -78.5 -5.5t-85 -15t-83 -23t-68.5 -31.5l-54 128q81 49 188.5 72.5t225.5 23.5q110 0 177 -30t102.5 -77.5t47 -105.5t11.5 -115q0 -128 -6.5 -249t-6.5 -230 q0 -79 6.5 -149.5t23.5 -129.5h-126l-44 149h-11q-18 -31 -47.5 -59.5t-70 -51t-93.5 -37t-122 -14.5q-68 0 -126.5 21.5t-101 60.5t-67 94.5t-24.5 125.5zM260 303q0 -75 53 -123t136 -48q60 0 107 16t81 40.5t56.5 54t32.5 58.5v176q-30 2 -61 3.5t-60 1.5 q-65 0 -128.5 -7.5t-111.5 -28t-76.5 -55.5t-28.5 -88zM324 1370q0 89 56 141t151 52q89 0 148.5 -46.5t59.5 -146.5q0 -84 -59.5 -138t-148.5 -54q-90 0 -148.5 50t-58.5 142zM438 1370q0 -43 28 -66.5t65 -23.5q40 0 66.5 21.5t26.5 68.5q0 46 -29 68.5t-64 22.5 q-37 0 -65 -21t-28 -70z" />
<glyph unicode="&#xe6;" horiz-adv-x="1695" d="M83 285q0 94 38.5 156.5t107.5 100t166 54t214 16.5h59.5t57.5 -5q2 33 4.5 61.5t2.5 53.5q0 117 -47 165t-170 46q-37 0 -78.5 -5.5t-85 -15t-83 -23t-68.5 -31.5l-54 128q81 49 188.5 72.5t225.5 23.5q223 0 289 -139q55 77 149 112.5t188 35.5q72 0 144.5 -16 t129.5 -62t93.5 -129t36.5 -217q0 -35 -3 -72t-7 -79h-689q0 -185 78 -288.5t266 -103.5q74 0 145.5 26.5t109.5 58.5l64 -124q-64 -51 -161 -81t-205 -30q-130 0 -235.5 53.5t-156.5 151.5h-15q-28 -39 -64.5 -73.5t-82 -61.5t-104 -44t-129.5 -17q-68 0 -126.5 21.5 t-101 60.5t-67 94.5t-24.5 125.5zM260 303q0 -75 53 -123t136 -48q60 0 107 16t81 40.5t56.5 54t32.5 58.5v176q-30 2 -61 3.5t-60 1.5q-65 0 -128.5 -7.5t-111.5 -28t-76.5 -55.5t-28.5 -88zM896 650h529v25q0 145 -65 205.5t-171 60.5q-126 0 -203 -66t-90 -225z" />
<glyph unicode="&#xe7;" horiz-adv-x="959" d="M104 532q0 271 119.5 415t343.5 144q102 0 173 -16t129 -46l-49 -147q-49 28 -108.5 43.5t-128.5 15.5q-302 0 -302 -409q0 -81 16 -154t53.5 -130t98 -89.5t149.5 -32.5q77 0 138 22.5t99 52.5l55 -130q-104 -75 -258 -92l-38 -71q89 -16 128.5 -54.5t39.5 -105.5 q0 -83 -68 -137t-192 -54q-24 0 -46.5 2t-48.5 6l19 83q13 -2 23.5 -2h21.5q47 0 73.5 8.5t40 20.5t17 27t3.5 28q0 59 -183 79l90 167q-111 6 -187.5 49.5t-126 115.5t-72 171t-22.5 220z" />
<glyph unicode="&#xe8;" horiz-adv-x="1081" d="M104 532q0 273 121.5 416t347.5 143q73 0 145 -16t129.5 -61t94 -127t36.5 -216q0 -71 -13 -155h-684q0 -94 19 -166.5t59.5 -122.5t105.5 -76.5t159 -26.5q73 0 145 25.5t109 59.5l63 -124q-63 -51 -160.5 -81t-205.5 -30q-122 0 -211 39.5t-146.5 113.5t-85.5 176 t-28 229zM283 650h528q0 162 -61.5 226.5t-174.5 64.5q-126 0 -201.5 -66t-90.5 -225zM362 1489v45h202l139 -318h-97z" />
<glyph unicode="&#xe9;" horiz-adv-x="1081" d="M104 532q0 273 121.5 416t347.5 143q73 0 145 -16t129.5 -61t94 -127t36.5 -216q0 -71 -13 -155h-684q0 -94 19 -166.5t59.5 -122.5t105.5 -76.5t159 -26.5q73 0 145 25.5t109 59.5l63 -124q-63 -51 -160.5 -81t-205.5 -30q-122 0 -211 39.5t-146.5 113.5t-85.5 176 t-28 229zM283 650h528q0 162 -61.5 226.5t-174.5 64.5q-126 0 -201.5 -66t-90.5 -225zM494 1216l126 318h189v-45l-215 -273h-100z" />
<glyph unicode="&#xea;" horiz-adv-x="1081" d="M104 532q0 273 121.5 416t347.5 143q73 0 145 -16t129.5 -61t94 -127t36.5 -216q0 -71 -13 -155h-684q0 -94 19 -166.5t59.5 -122.5t105.5 -76.5t159 -26.5q73 0 145 25.5t109 59.5l63 -124q-63 -51 -160.5 -81t-205.5 -30q-122 0 -211 39.5t-146.5 113.5t-85.5 176 t-28 229zM260 1171l262 388h68l237 -388h-154l-83 141l-45 123l-47 -123l-96 -141h-142zM283 650h528q0 162 -61.5 226.5t-174.5 64.5q-126 0 -201.5 -66t-90.5 -225z" />
<glyph unicode="&#xeb;" horiz-adv-x="1081" d="M104 532q0 273 121.5 416t347.5 143q73 0 145 -16t129.5 -61t94 -127t36.5 -216q0 -71 -13 -155h-684q0 -94 19 -166.5t59.5 -122.5t105.5 -76.5t159 -26.5q73 0 145 25.5t109 59.5l63 -124q-63 -51 -160.5 -81t-205.5 -30q-122 0 -211 39.5t-146.5 113.5t-85.5 176 t-28 229zM254 1390q0 49 28.5 79.5t75.5 30.5t76 -30.5t29 -79.5q0 -44 -29 -74t-76 -30t-75.5 30t-28.5 74zM283 650h528q0 162 -61.5 226.5t-174.5 64.5q-126 0 -201.5 -66t-90.5 -225zM663 1390q0 49 28.5 79.5t75.5 30.5q49 0 78 -30.5t29 -79.5q0 -44 -28.5 -74 t-78.5 -30q-47 0 -75.5 30t-28.5 74z" />
<glyph unicode="&#xec;" horiz-adv-x="569" d="M28 1489v45h202l139 -318h-97zM201 0v1065h169v-1065h-169z" />
<glyph unicode="&#xed;" horiz-adv-x="569" d="M201 0v1065h169v-1065h-169zM203 1216l126 318h189v-45l-215 -273h-100z" />
<glyph unicode="&#xee;" horiz-adv-x="569" d="M-2 1171l262 388h68l237 -388h-154l-83 141l-45 123l-47 -123l-96 -141h-142zM201 0v1065h169v-1065h-169z" />
<glyph unicode="&#xef;" horiz-adv-x="569" d="M-23 1390q0 49 28.5 79.5t75.5 30.5t76 -30.5t29 -79.5q0 -44 -29 -74t-76 -30t-75.5 30t-28.5 74zM201 0v1065h169v-1065h-169zM386 1390q0 49 28.5 79.5t75.5 30.5q49 0 78 -30.5t29 -79.5q0 -44 -28.5 -74t-78.5 -30q-47 0 -75.5 30t-28.5 74z" />
<glyph unicode="&#xf0;" horiz-adv-x="1193" d="M120 535q0 110 30.5 210.5t91.5 175.5t149 120t205 45q96 0 169.5 -30t103.5 -68q-23 79 -71 149t-110 126l-162 -88l-57 95l121 65q-81 49 -162 69l74 114q39 -14 98.5 -39.5t123.5 -70.5l145 79l56 -97l-108 -57q51 -49 98.5 -114t83.5 -151t57 -195t21 -245 q0 -172 -37.5 -295.5t-102.5 -203.5t-151.5 -117.5t-184.5 -37.5q-130 0 -222 44.5t-149 121.5t-83.5 178t-26.5 217zM294 532q0 -104 23.5 -180.5t65 -127.5t100 -75.5t126.5 -24.5q64 0 118.5 27.5t94.5 87t63.5 153.5t23.5 226q0 21 -1 48t-2 53.5t-4 51t-8 40.5 q-16 30 -47.5 53.5t-69.5 39.5t-80.5 23.5t-82.5 7.5q-84 0 -144.5 -30.5t-100 -85.5t-57.5 -128t-18 -159z" />
<glyph unicode="&#xf1;" horiz-adv-x="1164" d="M164 0v1065h119l32 -130h8q51 69 137.5 112.5t206.5 43.5q87 0 153 -20.5t109.5 -72t66 -137.5t22.5 -218v-643h-170v607q0 167 -48 250.5t-176 83.5q-113 0 -186.5 -60.5t-102.5 -152.5v-728h-171zM286 1397q61 70 112.5 96.5t94.5 26.5q36 0 67 -13.5t59.5 -29.5 t55 -29t56.5 -13q47 0 98 52l51 -92q-55 -62 -101 -84t-84 -22q-35 0 -64.5 13t-58 28.5t-57.5 29.5t-59 14q-28 0 -56.5 -15t-64.5 -52z" />
<glyph unicode="&#xf2;" d="M104 532q0 271 120.5 415t346.5 144q120 0 208 -39.5t145.5 -113.5t85 -177t27.5 -229q0 -270 -120 -414t-346 -144q-120 0 -208 39.5t-145.5 113.5t-85.5 177t-28 228zM281 532q0 -81 16 -155t50.5 -130t89.5 -89.5t134 -33.5q290 -2 289 408q0 84 -15.5 158t-50 130 t-89.5 88.5t-134 32.5q-290 2 -290 -409zM335 1489v45h202l139 -318h-97z" />
<glyph unicode="&#xf3;" d="M104 532q0 271 120.5 415t346.5 144q120 0 208 -39.5t145.5 -113.5t85 -177t27.5 -229q0 -270 -120 -414t-346 -144q-120 0 -208 39.5t-145.5 113.5t-85.5 177t-28 228zM281 532q0 -81 16 -155t50.5 -130t89.5 -89.5t134 -33.5q290 -2 289 408q0 84 -15.5 158t-50 130 t-89.5 88.5t-134 32.5q-290 2 -290 -409zM484 1216l126 318h189v-45l-215 -273h-100z" />
<glyph unicode="&#xf4;" d="M104 532q0 271 120.5 415t346.5 144q120 0 208 -39.5t145.5 -113.5t85 -177t27.5 -229q0 -270 -120 -414t-346 -144q-120 0 -208 39.5t-145.5 113.5t-85.5 177t-28 228zM281 532q0 -81 16 -155t50.5 -130t89.5 -89.5t134 -33.5q290 -2 289 408q0 84 -15.5 158t-50 130 t-89.5 88.5t-134 32.5q-290 2 -290 -409zM288 1171l262 388h68l237 -388h-154l-83 141l-45 123l-47 -123l-96 -141h-142z" />
<glyph unicode="&#xf5;" d="M104 532q0 271 120.5 415t346.5 144q120 0 208 -39.5t145.5 -113.5t85 -177t27.5 -229q0 -270 -120 -414t-346 -144q-120 0 -208 39.5t-145.5 113.5t-85.5 177t-28 228zM275 1397q61 70 112.5 96.5t94.5 26.5q36 0 67 -13.5t59.5 -29.5t55 -29t56.5 -13q47 0 98 52 l51 -92q-55 -62 -101 -84t-84 -22q-35 0 -64.5 13t-58 28.5t-57.5 29.5t-59 14q-28 0 -56.5 -15t-64.5 -52zM281 532q0 -81 16 -155t50.5 -130t89.5 -89.5t134 -33.5q290 -2 289 408q0 84 -15.5 158t-50 130t-89.5 88.5t-134 32.5q-290 2 -290 -409z" />
<glyph unicode="&#xf6;" d="M104 532q0 271 120.5 415t346.5 144q120 0 208 -39.5t145.5 -113.5t85 -177t27.5 -229q0 -270 -120 -414t-346 -144q-120 0 -208 39.5t-145.5 113.5t-85.5 177t-28 228zM264 1390q0 49 28.5 79.5t75.5 30.5t76 -30.5t29 -79.5q0 -44 -29 -74t-76 -30t-75.5 30t-28.5 74z M281 532q0 -81 16 -155t50.5 -130t89.5 -89.5t134 -33.5q290 -2 289 408q0 84 -15.5 158t-50 130t-89.5 88.5t-134 32.5q-290 2 -290 -409zM673 1390q0 49 28.5 79.5t75.5 30.5q49 0 78 -30.5t29 -79.5q0 -44 -28.5 -74t-78.5 -30q-47 0 -75.5 30t-28.5 74z" />
<glyph unicode="&#xf7;" horiz-adv-x="1075" d="M85 643v154h903v-154h-903zM413 319q0 57 33 90.5t89 33.5q57 0 91 -33.5t34 -90.5q0 -55 -34 -89t-91 -34q-56 0 -89 34t-33 89zM413 1118q0 57 33 90.5t89 33.5q57 0 91 -33.5t34 -90.5q0 -55 -34 -89.5t-91 -34.5q-56 0 -89 34.5t-33 89.5z" />
<glyph unicode="&#xf8;" d="M104 532q0 271 120.5 415t346.5 144q156 0 260 -69l55 75l106 -79l-61 -89q55 -73 80.5 -173t25.5 -224q0 -270 -120 -414t-346 -144q-166 0 -273 75l-58 -79l-110 81l71 98q-49 73 -73 169.5t-24 213.5zM281 532q0 -63 10 -123t28 -108l420 583q-32 26 -73.5 41.5 t-94.5 15.5q-290 2 -290 -409zM392 187q34 -28 78 -45.5t101 -17.5q289 -2 289 408q0 69 -10.5 131.5t-34.5 114.5z" />
<glyph unicode="&#xf9;" horiz-adv-x="1147" d="M147 422v643h170v-607q0 -84 10 -146t33.5 -104t63.5 -63t102 -21q57 0 102 18t80.5 50t62 73.5t42.5 88.5v711h171v-762q0 -77 5 -159.5t19 -143.5h-118l-42 168h-11q-49 -83 -132 -138.5t-211 -55.5q-85 0 -150 20.5t-109 72t-66 137.5t-22 218zM315 1489v45h202 l139 -318h-97z" />
<glyph unicode="&#xfa;" horiz-adv-x="1147" d="M147 422v643h170v-607q0 -84 10 -146t33.5 -104t63.5 -63t102 -21q57 0 102 18t80.5 50t62 73.5t42.5 88.5v711h171v-762q0 -77 5 -159.5t19 -143.5h-118l-42 168h-11q-49 -83 -132 -138.5t-211 -55.5q-85 0 -150 20.5t-109 72t-66 137.5t-22 218zM482 1216l126 318h189 v-45l-215 -273h-100z" />
<glyph unicode="&#xfb;" horiz-adv-x="1147" d="M147 422v643h170v-607q0 -84 10 -146t33.5 -104t63.5 -63t102 -21q57 0 102 18t80.5 50t62 73.5t42.5 88.5v711h171v-762q0 -77 5 -159.5t19 -143.5h-118l-42 168h-11q-49 -83 -132 -138.5t-211 -55.5q-85 0 -150 20.5t-109 72t-66 137.5t-22 218zM292 1171l262 388h68 l237 -388h-154l-83 141l-45 123l-47 -123l-96 -141h-142z" />
<glyph unicode="&#xfc;" horiz-adv-x="1147" d="M147 422v643h170v-607q0 -84 10 -146t33.5 -104t63.5 -63t102 -21q57 0 102 18t80.5 50t62 73.5t42.5 88.5v711h171v-762q0 -77 5 -159.5t19 -143.5h-118l-42 168h-11q-49 -83 -132 -138.5t-211 -55.5q-85 0 -150 20.5t-109 72t-66 137.5t-22 218zM266 1390 q0 49 28.5 79.5t75.5 30.5t76 -30.5t29 -79.5q0 -44 -29 -74t-76 -30t-75.5 30t-28.5 74zM675 1390q0 49 28.5 79.5t75.5 30.5q49 0 78 -30.5t29 -79.5q0 -44 -28.5 -74t-78.5 -30q-47 0 -75.5 30t-28.5 74z" />
<glyph unicode="&#xfd;" horiz-adv-x="992" d="M26 1065h196l255 -691l60 -203h10l47 205l207 689h172l-315 -957q-36 -104 -71.5 -201.5t-77.5 -174.5t-95.5 -123t-123.5 -46q-77 0 -126 22l29 147q29 -11 55 -11q59 0 114 63t91 216zM465 1216l126 318h189v-45l-215 -273h-100z" />
<glyph unicode="&#xfe;" horiz-adv-x="1151" d="M164 -426v1917h171v-532h8q43 61 113 96.5t170 35.5q213 0 317.5 -126t104.5 -412q0 -134 -35 -241t-99 -182t-154.5 -115.5t-201.5 -40.5q-79 0 -124.5 10t-98.5 33v-443h-171zM335 183q38 -30 87 -44.5t129 -14.5q147 0 234 109.5t87 322.5q0 88 -15.5 159t-48.5 121 t-85 77.5t-129 27.5q-209 2 -259 -228v-530z" />
<glyph unicode="&#xff;" horiz-adv-x="992" d="M26 1065h196l255 -691l60 -203h10l47 205l207 689h172l-315 -957q-36 -104 -71.5 -201.5t-77.5 -174.5t-95.5 -123t-123.5 -46q-77 0 -126 22l29 147q29 -11 55 -11q59 0 114 63t91 216zM189 1390q0 49 28.5 79.5t75.5 30.5t76 -30.5t29 -79.5q0 -44 -29 -74t-76 -30 t-75.5 30t-28.5 74zM598 1390q0 49 28.5 79.5t75.5 30.5q49 0 78 -30.5t29 -79.5q0 -44 -28.5 -74t-78.5 -30q-47 0 -75.5 30t-28.5 74z" />
<glyph unicode="&#x131;" horiz-adv-x="569" d="M201 0v1065h169v-1065h-169z" />
<glyph unicode="&#x152;" horiz-adv-x="1984" d="M120 746q0 372 157.5 571t448.5 199q100 0 165.5 -7t132.5 -18h812v-158h-635v-487h582v-158h-582v-530h646v-158h-823q-53 -10 -127 -18t-171 -8q-156 0 -269.5 55.5t-189.5 156.5t-111.5 243t-35.5 317zM307 746q0 -124 24.5 -235t77.5 -195t136 -134t199 -50 q61 0 126 4t154 32v1149q-59 24 -138 33t-160 9q-196 0 -307.5 -150t-111.5 -463z" />
<glyph unicode="&#x153;" horiz-adv-x="1827" d="M104 532q0 271 120.5 415t346.5 144q134 0 226.5 -55.5t147.5 -141.5q55 90 150.5 143.5t223.5 53.5q73 0 145 -16t129 -61t93.5 -127t36.5 -216q0 -37 -2 -75t-8 -80h-689q0 -94 19.5 -167.5t60 -124.5t106.5 -76.5t160 -25.5q75 0 146 26.5t107 60.5l64 -124 q-64 -51 -161 -81t-205 -30q-132 0 -228.5 53.5t-151.5 145.5q-57 -96 -149.5 -147.5t-220.5 -51.5q-120 0 -208 39.5t-145.5 113.5t-85.5 177t-28 228zM281 532q0 -81 16 -155t50.5 -131t89.5 -89.5t134 -32.5q287 -2 287 408q0 84 -14.5 158t-49 130t-89.5 88.5t-134 32.5 q-290 2 -290 -409zM1029 650h528v19q0 146 -64 210t-172 64q-124 0 -200.5 -67t-91.5 -226z" />
<glyph unicode="&#x178;" horiz-adv-x="1187" d="M17 1491h207l349 -652l36 -130h3l38 134l334 648h189l-488 -897v-594h-176v592zM284 1691q0 45 31.5 72.5t82.5 27.5q49 0 80.5 -27.5t31.5 -72.5q0 -43 -31 -70.5t-81 -27.5q-51 0 -82.5 27.5t-31.5 70.5zM693 1691q0 45 30.5 72.5t80.5 27.5q51 0 82.5 -27.5 t31.5 -72.5q0 -43 -31.5 -70.5t-82.5 -27.5q-49 0 -80 27.5t-31 70.5z" />
<glyph unicode="&#x192;" horiz-adv-x="1160" d="M-73 -392l45 140q49 -20 92.5 -31t95.5 -11q81 0 122 71.5t70 239.5l144 899h-181v149h205l23 142q26 159 93 234t220 75q71 0 138 -14.5t120 -38.5l-49 -138q-102 43 -196 43q-40 0 -65.5 -12t-42.5 -36.5t-29 -66t-21 -101.5l-14 -87h255v-149h-279l-169 -989 q-12 -79 -35.5 -145.5t-63 -117t-96.5 -79t-136 -28.5q-62 0 -128 15t-118 36z" />
<glyph unicode="&#x2c6;" horiz-adv-x="821" d="M128 1171l262 388h68l237 -388h-154l-83 141l-45 123l-47 -123l-96 -141h-142z" />
<glyph unicode="&#x2c7;" horiz-adv-x="840" d="M128 1559h166l82 -140l46 -124l47 124l96 140h148l-262 -388h-79z" />
<glyph unicode="&#x2d8;" horiz-adv-x="904" d="M128 1484l96 50q38 -77 102 -120.5t136 -43.5q73 0 131.5 42.5t94.5 121.5l90 -38q-6 -51 -33 -101.5t-69 -88.5t-97 -61.5t-119 -23.5q-60 0 -113 17.5t-96.5 53t-76 83.5t-46.5 109z" />
<glyph unicode="&#x2d9;" horiz-adv-x="496" d="M128 1388q0 49 32.5 84.5t84.5 35.5q51 0 87 -35.5t36 -84.5q0 -48 -36 -80t-87 -32t-84 32t-33 80z" />
<glyph unicode="&#x2da;" horiz-adv-x="670" d="M128 1370q0 89 56 141t151 52q89 0 148.5 -46.5t59.5 -146.5q0 -84 -59.5 -138t-148.5 -54q-90 0 -148.5 50t-58.5 142zM242 1370q0 -43 28 -66.5t65 -23.5q40 0 66.5 21.5t26.5 68.5q0 46 -29 68.5t-64 22.5q-37 0 -65 -21t-28 -70z" />
<glyph unicode="&#x2db;" horiz-adv-x="648" d="M128 -226q0 88 58.5 149.5t160.5 97.5h117q-75 -35 -117 -87t-42 -119q0 -43 27.5 -76t80.5 -33q40 0 85 22l24 -92q-32 -26 -85 -38.5t-98 -12.5q-96 0 -153.5 51t-57.5 138z" />
<glyph unicode="&#x2dc;" horiz-adv-x="849" d="M128 1397q61 70 112.5 96.5t94.5 26.5q36 0 67 -13.5t59.5 -29.5t55 -29t56.5 -13q47 0 98 52l51 -92q-55 -62 -101 -84t-84 -22q-35 0 -64.5 13t-58 28.5t-57.5 29.5t-59 14q-28 0 -56.5 -15t-64.5 -52z" />
<glyph unicode="&#x2dd;" horiz-adv-x="823" d="M128 1216l75 275h165v-34l-151 -241h-89zM358 1216l156 275h183v-34l-244 -241h-95z" />
<glyph unicode="&#x3a9;" horiz-adv-x="1707" d="M162 0v149h247l200 -21v55l-115 22q-69 32 -129 88t-105 131.5t-71.5 171t-26.5 205.5q0 166 49 298t138.5 224.5t217.5 142.5t285 50q166 0 295 -53t218.5 -149t135 -229t45.5 -293q0 -115 -29.5 -208.5t-78 -167t-106.5 -126t-116 -83.5l-121 -24v-55l204 21h247v-149 h-611v266q63 13 137 47t138 97t106.5 160t42.5 233q0 102 -29 201t-90.5 177.5t-158.5 128t-231 49.5q-241 0 -371 -142t-130 -420q0 -135 39.5 -229.5t101 -158.5t136.5 -98t145 -45v-266h-609z" />
<glyph unicode="&#x3c0;" horiz-adv-x="1413" d="M77 888q41 81 100 129t172 48h923v-149h-177v-668q0 -60 19.5 -84t48.5 -24q21 0 48 4.5t45 8.5l41 -115q-34 -14 -84 -30t-114 -16q-106 0 -140 61.5t-34 172.5v690h-405v-916h-171v916h-30q-44 0 -72 -24.5t-58 -71.5z" />
<glyph unicode="&#x401;" d="M181 0v1491h811v-158h-634v-487h581v-158h-581v-530h646v-158h-823zM256 1691q0 45 31.5 72.5t82.5 27.5q49 0 80.5 -27.5t31.5 -72.5q0 -43 -31 -70.5t-81 -27.5q-51 0 -82.5 27.5t-31.5 70.5zM665 1691q0 45 30.5 72.5t80.5 27.5q51 0 82.5 -27.5t31.5 -72.5 q0 -43 -31.5 -70.5t-82.5 -27.5q-49 0 -80 27.5t-31 70.5z" />
<glyph unicode="&#x402;" horiz-adv-x="1549" d="M38 1333v158h1106v-158h-465v-449q26 8 101.5 26.5t195.5 18.5q85 0 167 -20.5t145.5 -71.5t103 -137t39.5 -218q0 -256 -130 -377.5t-366 -121.5q-71 0 -101.5 1t-47.5 6v152q28 -4 61 -5t94 -1q303 0 303 333q0 89 -25.5 148.5t-69 95t-102.5 49t-127 13.5 q-38 0 -75.5 -5.5t-70 -12.5t-57 -15.5t-38.5 -13.5v-728h-177v1333h-464z" />
<glyph unicode="&#x403;" horiz-adv-x="941" d="M181 0v1491h799v-158h-622v-1333h-177zM420 1602l252 251h242v-44l-347 -207h-147z" />
<glyph unicode="&#x404;" horiz-adv-x="1240" d="M120 746q0 209 58 354.5t152 238t211 135t237 42.5q128 0 215 -13.5t145 -37.5l-43 -158q-49 24 -128 38t-175 14q-83 0 -163 -27t-147 -87t-113 -158.5t-60 -238.5h652v-157h-654q6 -141 49.5 -245.5t113 -173.5t159 -104.5t188.5 -35.5q96 0 173 19.5t124 49.5l45 -140 q-64 -49 -167.5 -68t-213.5 -19q-134 0 -253.5 46t-210 140t-142.5 239.5t-52 346.5z" />
<glyph unicode="&#x405;" horiz-adv-x="1130" d="M98 53l60 160q49 -28 144.5 -54.5t215.5 -26.5q71 0 132 14t106 45t71.5 78t26.5 111q0 89 -53 145t-133 100t-174 82.5t-174 92.5t-133 134t-53 204q0 174 121 276t346 102q130 0 236 -19t167 -48l-54 -156q-49 24 -144 45t-214 21q-141 0 -211 -63t-70 -148 q0 -83 53 -138t133 -99t173.5 -86.5t174 -99t133.5 -135t53 -196.5q0 -96 -34 -172.5t-100 -132t-160 -85.5t-213 -30q-160 0 -264 25t-162 54z" />
<glyph unicode="&#x406;" horiz-adv-x="618" d="M222 0v1491h176v-1491h-176z" />
<glyph unicode="&#x407;" horiz-adv-x="624" d="M69 1689q0 47 30.5 74.5t77.5 27.5q45 0 75.5 -27.5t30.5 -74.5t-30.5 -73.5t-75.5 -26.5q-47 0 -77.5 26.5t-30.5 73.5zM224 0v1491h176v-1491h-176zM343 1689q0 47 31 74.5t75 27.5q47 0 78 -27.5t31 -74.5t-31 -73.5t-78 -26.5q-44 0 -75 26.5t-31 73.5z" />
<glyph unicode="&#x408;" horiz-adv-x="618" d="M-73 12l35 152q59 -28 130 -28q89 0 117.5 63t28.5 171v1121h177v-1163q0 -171 -75.5 -260t-229.5 -89q-16 0 -41.5 2t-51 6.5t-50 10.5t-40.5 14z" />
<glyph unicode="&#x409;" horiz-adv-x="1971" d="M-4 10l23 154q21 -6 44 -6q37 0 72.5 23.5t69.5 86.5q30 58 56 154t46.5 242.5t33.5 350t19 476.5h788v-579q11 2 36.5 5t55.5 5.5t61.5 4.5t57.5 2q102 0 199 -20.5t172.5 -71.5t122.5 -137t47 -218q0 -128 -44.5 -222t-123.5 -155.5t-185 -91.5t-228 -30q-30 0 -73 1 t-90.5 4.5t-95.5 9.5t-89 17v1318h-445q-21 -426 -56 -708t-106 -440q-47 -102 -111 -148.5t-138 -46.5q-38 0 -66 5t-53 15zM1148 149q30 -7 85.5 -10t108.5 -3q77 0 144 20.5t118 62t80 104.5t29 146q0 89 -32.5 148.5t-84.5 95t-120 49t-141 13.5q-18 0 -46.5 -2 t-56 -4.5t-50.5 -6.5t-34 -6v-607z" />
<glyph unicode="&#x40a;" horiz-adv-x="2073" d="M181 0v1491h177v-617h715v617h177v-619q10 2 36 5t57 5t62.5 4t57.5 2q100 0 197.5 -17t172.5 -64t122 -130t47 -215q0 -128 -44.5 -219.5t-123 -149t-184.5 -84t-229 -26.5q-31 0 -73.5 1t-90 4.5t-95.5 9.5t-89 14v704h-715v-716h-177zM1250 149q30 -7 86 -10t109 -3 q77 0 144.5 17.5t118 56t79 96.5t28.5 141q0 90 -31 146.5t-83.5 88t-120.5 42.5t-143 11q-18 0 -46 -2.5t-56 -4.5t-51.5 -6t-33.5 -6v-567z" />
<glyph unicode="&#x40b;" horiz-adv-x="1597" d="M38 1333v158h1106v-158h-465v-492q57 33 152.5 64.5t214.5 31.5q90 0 165 -20.5t128.5 -68t83.5 -128.5t30 -200v-520h-177v488q0 292 -264 292q-102 0 -189.5 -27t-143.5 -72v-681h-177v1333h-464z" />
<glyph unicode="&#x40c;" horiz-adv-x="1298" d="M181 0v1491h177v-694l95 30l502 664h204l-499 -641l-89 -70l108 -85l546 -695h-223l-544 691h-100v-691h-177zM475 1602l252 251h242v-44l-347 -207h-147z" />
<glyph unicode="&#x40e;" horiz-adv-x="1177" d="M15 1491h204l382 -786l55 -189h11l42 195l285 780h181l-376 -969q-57 -151 -101 -252.5t-88.5 -164t-96 -89t-125.5 -26.5q-71 0 -112.5 11t-77.5 35l54 147q42 -24 78 -30t66 -6q60 0 100.5 60.5t70.5 180.5zM260 1811l168 42q9 -79 60 -121.5t136 -42.5t135 42.5 t61 119.5l151 -36q-24 -116 -107.5 -183t-241.5 -67q-151 0 -248 59t-114 187z" />
<glyph unicode="&#x40f;" horiz-adv-x="1402" d="M181 0v1491h177v-1333h688v1333h177v-1491h-431l-32 -382h-110l-43 382h-426z" />
<glyph unicode="&#x410;" horiz-adv-x="1245" d="M17 0l564 1514h81l567 -1514h-185l-154 413h-549l-150 -413h-174zM398 567h439l-166 453l-53 226h-2l-53 -230z" />
<glyph unicode="&#x411;" horiz-adv-x="1171" d="M181 15v1476h809v-158h-632v-447q36 6 89 12.5t102 6.5q108 0 206.5 -20.5t173.5 -69.5t118.5 -133t43.5 -211q0 -128 -44.5 -220.5t-119.5 -151t-174 -87.5t-208 -29q-36 0 -82 1t-96 5.5t-97.5 9.5t-88.5 16zM358 149q14 -4 39 -6.5t53.5 -4.5t58.5 -2h58 q68 0 129.5 19.5t107.5 57t72.5 94.5t26.5 134q0 98 -31 158.5t-82 94.5t-118 46t-140 12q-18 0 -44 -2t-51.5 -4t-47 -5.5t-31.5 -5.5v-586z" />
<glyph unicode="&#x412;" horiz-adv-x="1243" d="M181 10v1468q79 12 183.5 21t227.5 9q83 0 169.5 -14t156.5 -53t116 -110t46 -181q0 -53 -17 -108.5t-51 -103.5t-87 -84.5t-126 -54.5v-9q63 -10 122 -36t103.5 -70.5t72 -108t27.5 -151.5q0 -115 -47.5 -199.5t-125 -137.5t-178 -78.5t-204.5 -25.5h-85.5t-102 3.5 t-106.5 8.5t-94 15zM358 151q14 -4 42 -6.5t60 -4.5t66 -3t60 -1q68 0 132 16t113 51t77.5 86.5t28.5 121.5q0 87 -35 140.5t-91.5 83.5t-126.5 40t-141 10h-185v-534zM358 835h111q36 0 87 2t85 6q51 17 96 41.5t80 58t55 77t20 94.5q0 71 -26.5 116.5t-71 73t-102.5 39.5 t-117 12q-71 0 -129 -3.5t-88 -9.5v-507z" />
<glyph unicode="&#x413;" horiz-adv-x="941" d="M181 0v1491h799v-158h-622v-1333h-177z" />
<glyph unicode="&#x414;" horiz-adv-x="1424" d="M10 158h152q17 24 52.5 110t70 246.5t62 402.5t27.5 574h797v-1333h195v-433h-122l-32 275h-1046l-32 -275h-124v433zM349 158h645v1175h-453q-6 -234 -24.5 -421.5t-44 -331t-57 -248t-66.5 -174.5z" />
<glyph unicode="&#x415;" d="M181 0v1491h811v-158h-634v-487h581v-158h-581v-530h646v-158h-823z" />
<glyph unicode="&#x416;" horiz-adv-x="1716" d="M-2 0l471 667l102 81l-98 75l-445 668h206l433 -668h95v668h171v-694l91 30l433 664h196l-430 -648l-85 -68l106 -87l475 -688h-217l-471 691h-98v-691h-171v716l-89 -31l-470 -685h-205z" />
<glyph unicode="&#x417;" horiz-adv-x="1151" d="M94 30l44 159q49 -24 137.5 -40.5t214.5 -16.5q65 0 129 18t114.5 55t81.5 93t31 133q0 134 -94 197t-246 73q-26 2 -47.5 3t-45.5 1h-117v149h34h46.5t57 2t55.5 3t43 5q56 9 104.5 29.5t85 52.5t58 74.5t21.5 93.5q0 71 -23.5 117.5t-65 75t-95.5 40.5t-117 12 q-115 0 -195.5 -16t-129.5 -40l-47 142q43 23 153.5 47t248.5 24q86 0 168 -18t146.5 -59.5t104 -113t39.5 -175.5q0 -106 -70 -203t-211 -140v-8q151 -21 238.5 -113t87.5 -245q0 -122 -48 -210.5t-125.5 -145.5t-179 -84t-205.5 -27q-140 0 -231 16t-150 40z" />
<glyph unicode="&#x418;" horiz-adv-x="1449" d="M181 0v1491h177v-1022l-15 -168h9l93 174l720 1016h105v-1491h-177v1010l13 170h-9l-91 -174l-721 -1006h-104z" />
<glyph unicode="&#x419;" horiz-adv-x="1449" d="M181 0v1491h177v-1022l-15 -168h9l93 174l720 1016h105v-1491h-177v1010l13 170h-9l-91 -174l-721 -1006h-104zM382 1811l168 42q9 -79 60 -121.5t136 -42.5t135 42.5t61 119.5l151 -36q-24 -116 -107.5 -183t-241.5 -67q-151 0 -248 59t-114 187z" />
<glyph unicode="&#x41a;" horiz-adv-x="1298" d="M181 0v1491h177v-694l95 30l502 664h204l-499 -641l-89 -70l108 -85l546 -695h-223l-544 691h-100v-691h-177z" />
<glyph unicode="&#x41b;" horiz-adv-x="1328" d="M-4 10l23 154q21 -6 44 -6q37 0 72.5 23.5t69.5 86.5q30 58 56 154t46.5 242.5t33.5 350t19 476.5h788v-1491h-177v1333h-445q-21 -426 -56 -708t-106 -440q-47 -102 -111 -148.5t-138 -46.5q-38 0 -66 5t-53 15z" />
<glyph unicode="&#x41c;" horiz-adv-x="1683" d="M181 0v1491h132l467 -763l70 -165h4l66 170l446 758h138v-1491h-177v1002l21 223h-11l-81 -205l-387 -673h-54l-410 675l-77 203h-11l30 -221v-1004h-166z" />
<glyph unicode="&#x41d;" horiz-adv-x="1431" d="M181 0v1491h177v-650h715v650h177v-1491h-177v683h-715v-683h-177z" />
<glyph unicode="&#x41e;" horiz-adv-x="1456" d="M120 746q0 372 157.5 571t448.5 199q158 0 273 -55t191 -156.5t111.5 -243t35.5 -315.5q0 -373 -158.5 -572.5t-452.5 -199.5q-156 0 -269.5 55.5t-189.5 156.5t-111.5 243t-35.5 317zM307 746q0 -124 24.5 -235t75.5 -195t131 -134t188 -50q198 0 311 150.5t113 463.5 q0 121 -24.5 233t-77 195.5t-132 134t-190.5 50.5q-196 0 -307.5 -150t-111.5 -463z" />
<glyph unicode="&#x41f;" horiz-adv-x="1402" d="M181 0v1491h1042v-1491h-177v1333h-688v-1333h-177z" />
<glyph unicode="&#x420;" horiz-adv-x="1189" d="M181 0v1476q81 18 174.5 25t185.5 7q98 0 199 -19t184.5 -70t135.5 -140.5t52 -228.5q0 -136 -49 -230t-130 -152.5t-185.5 -84t-215.5 -25.5h-34.5t-51.5 1.5t-52.5 3.5t-35.5 4v-567h-177zM358 724q10 -4 33.5 -5t49.5 -2t49.5 -1h33.5q73 0 144 14t128.5 49.5 t93 101.5t35.5 169q0 88 -33.5 146t-87.5 93.5t-122 50.5t-137 15q-55 0 -106 -2.5t-81 -10.5v-618z" />
<glyph unicode="&#x421;" horiz-adv-x="1215" d="M120 746q0 209 56 354.5t148.5 238t208 135t233.5 42.5q128 0 209.5 -13.5t138.5 -37.5l-43 -155q-102 49 -291 49q-87 0 -172.5 -32t-152.5 -104.5t-107.5 -189.5t-40.5 -287q0 -153 38.5 -268.5t105.5 -192t157.5 -115t196.5 -38.5q96 0 167.5 19.5t120.5 49.5l43 -140 q-64 -49 -162 -68t-210 -19q-134 0 -251 46t-204 140t-138 239.5t-51 346.5z" />
<glyph unicode="&#x422;" horiz-adv-x="1181" d="M38 1333v158h1106v-158h-465v-1333h-177v1333h-464z" />
<glyph unicode="&#x423;" horiz-adv-x="1177" d="M15 1491h204l382 -786l55 -189h11l42 195l285 780h181l-376 -969q-57 -151 -101 -252.5t-88.5 -164t-96 -89t-125.5 -26.5q-71 0 -112.5 11t-77.5 35l54 147q42 -24 78 -30t66 -6q60 0 100.5 60.5t70.5 180.5z" />
<glyph unicode="&#x424;" horiz-adv-x="1660" d="M87 746q0 144 37.5 258t107 193t165 120.5t212.5 41.5q29 0 70 -2t65 -7v184h174v-190q39 10 91 12.5t86 2.5q102 0 189.5 -37.5t152.5 -110.5t101 -185t36 -260q0 -150 -41.5 -265t-112 -192t-164 -115t-199.5 -38q-24 0 -70 3t-69 12v-214h-174v209q-37 -6 -84.5 -8 t-90.5 -2q-100 0 -188.5 34t-153.5 106t-102.5 184t-37.5 266zM270 746q0 -102 23.5 -184.5t67.5 -140t104.5 -87t135.5 -29.5h29t39.5 1t41 4t35.5 7v884q-26 4 -63 6.5t-67 2.5q-73 0 -136 -29t-110 -87.5t-73.5 -146t-26.5 -201.5zM916 311q21 -4 56.5 -5t68.5 -1 q73 0 136 27.5t110.5 85t75 145t27.5 203.5q0 98 -22 180.5t-63.5 142t-101 90.5t-134.5 31q-30 0 -77 -2.5t-76 -12.5v-884z" />
<glyph unicode="&#x425;" horiz-adv-x="1315" d="M55 0l496 758l-453 733h213l303 -505l53 -122l51 122l319 505h196l-469 -718l490 -773h-206l-337 535l-57 127l-56 -127l-344 -535h-199z" />
<glyph unicode="&#x426;" horiz-adv-x="1462" d="M181 0v1491h177v-1333h671v1333h176v-1333h199v-433h-122l-32 275h-1069z" />
<glyph unicode="&#x427;" horiz-adv-x="1288" d="M160 965v526h177v-495q0 -292 264 -291q100 0 187.5 26.5t142.5 71.5v688h177v-1491h-177v643q-57 -33 -151.5 -64.5t-214.5 -31.5q-90 0 -164.5 20.5t-128 68t-83 129t-29.5 200.5z" />
<glyph unicode="&#x428;" horiz-adv-x="1867" d="M181 0v1491h177v-1333h488v1333h176v-1333h488v1333h177v-1491h-1506z" />
<glyph unicode="&#x429;" horiz-adv-x="1943" d="M181 0v1491h177v-1333h488v1333h176v-1333h488v1333h177v-1333h197v-433h-122l-32 275h-1549z" />
<glyph unicode="&#x42a;" horiz-adv-x="1341" d="M-2 1333v158h518v-579q10 2 35.5 5t56.5 5.5t63 4.5t57 2q100 0 197 -20.5t173.5 -71.5t124 -137t47.5 -218q0 -128 -45 -222t-124 -155.5t-184.5 -91.5t-228.5 -30q-30 0 -72.5 1t-90.5 4.5t-96.5 9.5t-89.5 17v1318h-341zM516 149q30 -7 85 -10t110 -3q77 0 144 20.5 t117 62t80 104.5t30 146q0 89 -32 148.5t-85 95t-121.5 49t-140.5 13.5q-19 0 -47 -2t-55.5 -4.5t-51 -6.5t-33.5 -6v-607z" />
<glyph unicode="&#x42b;" horiz-adv-x="1636" d="M181 15v1476h177v-579q10 2 31.5 5t47 5.5t52.5 4.5t52 2q100 0 195 -20.5t167.5 -71.5t116 -137t43.5 -218q0 -128 -40.5 -223t-114 -155.5t-176 -90.5t-226.5 -30q-30 0 -69 1t-82.5 4.5t-88 9.5t-85.5 17zM358 149q58 -13 164 -13q153 0 253.5 83.5t100.5 249.5 q0 89 -30.5 148.5t-80 95t-114.5 49t-137 13.5q-39 0 -85.5 -6.5t-70.5 -12.5v-607zM1280 0v1491h177v-1491h-177z" />
<glyph unicode="&#x42c;" horiz-adv-x="1181" d="M181 15v1476h177v-579q10 2 35.5 5t55.5 5.5t62 4.5t58 2q102 0 198.5 -20.5t172.5 -71.5t123 -137t47 -218q0 -128 -45 -222t-124 -155.5t-184 -91.5t-229 -30q-30 0 -72.5 1t-90.5 4.5t-95.5 9.5t-88.5 17zM358 149q30 -7 85 -10t108 -3q77 0 144 20.5t118 62t80 104.5 t29 146q0 89 -32 148.5t-84 95t-120 49t-141 13.5q-19 0 -46.5 -2t-55.5 -4.5t-51.5 -6.5t-33.5 -6v-607z" />
<glyph unicode="&#x42d;" horiz-adv-x="1228" d="M96 28l46 155q49 -24 128 -37.5t165 -13.5q85 0 171.5 26.5t156.5 92.5t117 172.5t55 259.5h-616v158h614q-11 130 -51.5 229t-104.5 164t-148 95t-182 30q-100 0 -178 -17t-127 -47l-46 138q65 39 163.5 61t209.5 22q136 0 253 -42.5t203.5 -135t135.5 -239.5t49 -353 q0 -209 -55.5 -356.5t-150.5 -240t-219 -134t-261 -41.5q-106 0 -188.5 15t-139.5 39z" />
<glyph unicode="&#x42e;" horiz-adv-x="1901" d="M181 0v1491h177v-650h264q17 326 164 500.5t419 174.5q156 0 267 -55t179 -156.5t100 -243t32 -315.5q0 -373 -142.5 -572.5t-435.5 -199.5q-146 0 -255 50.5t-180 143t-107.5 223.5t-42.5 292h-262v-683h-177zM807 746q0 -124 21.5 -235t68 -195t122.5 -134t186 -50 q198 0 294 149.5t96 464.5q0 121 -19 233t-65 195.5t-120 134t-186 50.5q-197 0 -297.5 -150t-100.5 -463z" />
<glyph unicode="&#x42f;" horiz-adv-x="1211" d="M55 0l333 530l130 92q-77 17 -142 52t-113 89t-74.5 127t-26.5 167q0 130 44 216t119 138t176.5 74.5t214.5 22.5q72 0 154 -6t161 -26v-1476h-177v650l-220 -47l-370 -603h-209zM349 1057q0 -81 29 -139t77.5 -95t113.5 -54t140 -17h145v590q-30 6 -62 9.5t-85 3.5 q-71 0 -134.5 -14t-113.5 -48.5t-80 -91.5t-30 -144z" />
<glyph unicode="&#x430;" horiz-adv-x="1055" d="M83 285q0 94 38.5 156.5t107.5 100t166 54t214 16.5h59.5t57.5 -5q6 64 7 115q0 117 -47 164t-170 47q-37 0 -78.5 -5.5t-85 -15t-83 -23t-68.5 -31.5l-54 128q81 49 188.5 72.5t225.5 23.5q110 0 177 -30t102.5 -77.5t47 -105.5t11.5 -115q0 -128 -6.5 -249t-6.5 -230 q0 -79 6.5 -149.5t23.5 -129.5h-126l-44 149h-11q-18 -31 -47.5 -59.5t-70 -51t-93.5 -37t-122 -14.5q-68 0 -126.5 21.5t-101 60.5t-67 94.5t-24.5 125.5zM260 303q0 -75 53 -123t136 -48q60 0 107 16t81 40.5t56.5 54t32.5 58.5v176q-30 2 -61 3.5t-60 1.5 q-65 0 -128.5 -7.5t-111.5 -28t-76.5 -55.5t-28.5 -88z" />
<glyph unicode="&#x431;" d="M104 646q0 183 18 313t53.5 219.5t85.5 142.5t113 83.5t137.5 43.5t159.5 22q110 10 173 24t101 50l20 -154q-21 -18 -47 -31t-62 -21.5t-86 -14.5t-116 -11q-91 -6 -160.5 -22t-120 -62t-79 -130t-38.5 -222h6q71 102 155.5 143.5t212.5 41.5q196 0 301.5 -128 t105.5 -377q0 -287 -122.5 -434.5t-341.5 -147.5q-234 0 -351.5 162t-117.5 510zM281 530q0 -81 17 -155t52.5 -131t90.5 -88.5t130 -31.5q147 0 218 105.5t71 311.5q0 81 -14.5 149t-47 118t-81 77t-116.5 27q-166 2 -243 -97t-77 -285z" />
<glyph unicode="&#x432;" horiz-adv-x="1061" d="M164 2v1061q75 4 156.5 10.5t203.5 6.5q211 0 302.5 -65t91.5 -198q0 -74 -43.5 -145t-144.5 -105v-9q126 -23 177.5 -87t51.5 -170q0 -167 -119.5 -241.5t-357.5 -74.5q-90 0 -167 5.5t-151 11.5zM335 142q40 -4 79 -6t92 -2q143 0 212.5 40.5t69.5 138.5 q0 77 -58.5 125t-207.5 48h-187v-344zM335 616h208q38 0 74.5 12.5t65 34.5t47 52.5t18.5 64.5q0 85 -51 118t-179 33q-69 0 -108.5 -2t-74.5 -4v-309z" />
<glyph unicode="&#x433;" horiz-adv-x="785" d="M164 0v1065h622v-149h-451v-916h-171z" />
<glyph unicode="&#x434;" horiz-adv-x="1151" d="M10 149h126q17 24 45 84.5t54.5 170.5t47 272.5t24.5 388.5h643v-916h156v-419h-116l-31 270h-801l-32 -270h-116v419zM307 149h473v767h-320q-4 -89 -14.5 -194.5t-29 -211t-46 -199.5t-63.5 -162z" />
<glyph unicode="&#x435;" horiz-adv-x="1081" d="M104 532q0 273 121.5 416t347.5 143q73 0 145 -16t129.5 -61t94 -127t36.5 -216q0 -71 -13 -155h-684q0 -94 19 -166.5t59.5 -122.5t105.5 -76.5t159 -26.5q73 0 145 25.5t109 59.5l63 -124q-63 -51 -160.5 -81t-205.5 -30q-122 0 -211 39.5t-146.5 113.5t-85.5 176 t-28 229zM283 650h528q0 162 -61.5 226.5t-174.5 64.5q-126 0 -201.5 -66t-90.5 -225z" />
<glyph unicode="&#x436;" horiz-adv-x="1402" d="M2 0l337 488l72 63l-108 81l-277 433h181l293 -460h112v460h166v-482l100 31l295 451h179l-289 -433l-83 -67l109 -86l315 -479h-203l-313 479h-110v-479h-166v500l-100 -29l-314 -471h-196z" />
<glyph unicode="&#x437;" horiz-adv-x="939" d="M81 47l49 140q49 -28 118 -42.5t150 -14.5q130 0 198.5 44.5t68.5 136.5q0 77 -64 120.5t-211 43.5h-124v139h149q38 0 75.5 12.5t67.5 34.5t48 53.5t18 65.5q0 83 -57.5 117t-172.5 34q-83 0 -152 -25.5t-108 -49.5l-49 132q64 36 150 64t206 28q354 0 354 -263 q0 -74 -48 -145t-138 -101v-8q126 -24 176 -90t50 -175q0 -68 -27.5 -125.5t-83 -100t-140 -67t-194.5 -24.5q-108 0 -180 19t-129 47z" />
<glyph unicode="&#x438;" horiz-adv-x="1162" d="M164 0v1065h171v-650l-7 -125h9l82 132l480 643h100v-1065h-170v630l6 132h-6l-87 -136l-480 -626h-98z" />
<glyph unicode="&#x439;" horiz-adv-x="1162" d="M164 0v1065h171v-650l-7 -125h9l82 132l480 643h100v-1065h-170v630l6 132h-6l-87 -136l-480 -626h-98zM264 1445l144 51q21 -98 73.5 -136.5t121.5 -38.5t121.5 40.5t71.5 131.5l128 -40q-18 -124 -109 -190t-217 -66q-57 0 -113.5 15t-101 44.5t-77 76.5t-42.5 112z " />
<glyph unicode="&#x43a;" horiz-adv-x="1017" d="M164 0v1065h171v-482l91 31l340 451h186l-330 -429l-90 -69l111 -85l356 -482h-211l-355 479h-98v-479h-171z" />
<glyph unicode="&#x43b;" horiz-adv-x="1071" d="M-10 10l25 143q26 -8 56 -8q42 0 76 36t59.5 137t42.5 280.5t23 466.5h635v-1065h-170v916h-309q-6 -89 -12.5 -192.5t-19 -207t-34 -198t-54.5 -167t-81 -116t-114 -43.5q-40 0 -70.5 4t-52.5 14z" />
<glyph unicode="&#x43c;" horiz-adv-x="1372" d="M164 0v1065h168l298 -477l63 -124h4l63 128l279 473h171v-1065h-166v632l13 203h-11l-77 -164l-258 -417h-59l-268 417l-71 164h-8l16 -201v-634h-157z" />
<glyph unicode="&#x43d;" horiz-adv-x="1149" d="M164 0v1065h171v-445h480v445h171v-1065h-171v471h-480v-471h-171z" />
<glyph unicode="&#x43e;" d="M104 532q0 271 120.5 415t346.5 144q120 0 208 -39.5t145.5 -113.5t85 -177t27.5 -229q0 -270 -120 -414t-346 -144q-120 0 -208 39.5t-145.5 113.5t-85.5 177t-28 228zM281 532q0 -81 16 -155t50.5 -130t89.5 -89.5t134 -33.5q290 -2 289 408q0 84 -15.5 158t-50 130 t-89.5 88.5t-134 32.5q-290 2 -290 -409z" />
<glyph unicode="&#x43f;" horiz-adv-x="1138" d="M164 0v1065h812v-1065h-171v916h-470v-916h-171z" />
<glyph unicode="&#x440;" horiz-adv-x="1151" d="M164 -426v1491h117l32 -128h8q49 75 127 114.5t178 39.5q213 0 317.5 -126t104.5 -412q0 -134 -35 -241t-99 -182t-154.5 -115.5t-201.5 -40.5q-79 0 -124.5 10t-98.5 33v-443h-171zM335 185q38 -30 87 -45.5t129 -15.5q147 0 234 109.5t87 322.5q0 88 -15.5 159 t-48.5 121t-85 77.5t-129 27.5q-108 0 -171 -56t-88 -172v-528z" />
<glyph unicode="&#x441;" horiz-adv-x="959" d="M104 532q0 271 119.5 415t343.5 144q102 0 173 -16t129 -46l-49 -147q-49 28 -108.5 43.5t-128.5 15.5q-302 0 -302 -409q0 -81 16 -154t53.5 -130t98 -90.5t149.5 -33.5q77 0 138 23.5t99 53.5l55 -130q-63 -47 -150.5 -72t-183.5 -25q-123 0 -208.5 39.5t-140 113.5 t-79 177t-24.5 228z" />
<glyph unicode="&#x442;" horiz-adv-x="845" d="M6 916v149h835v-149h-332v-916h-170v916h-333z" />
<glyph unicode="&#x443;" horiz-adv-x="992" d="M26 1065h196l255 -691l60 -203h10l47 205l207 689h172l-315 -957q-36 -104 -71.5 -201.5t-77.5 -174.5t-95.5 -123t-123.5 -46q-77 0 -126 22l29 147q29 -11 55 -11q59 0 114 63t91 216z" />
<glyph unicode="&#x444;" horiz-adv-x="1447" d="M94 532q0 273 114.5 411.5t332.5 138.5q59 0 102 -9v418h162v-420q38 6 68 8.5t58 2.5q211 0 317.5 -122.5t106.5 -406.5q0 -134 -29 -241t-84 -182t-135.5 -115.5t-184.5 -40.5q-18 0 -55.5 3.5t-61.5 12.5v-416h-162v418q-37 -13 -76 -15.5t-71 -2.5q-193 0 -297.5 137 t-104.5 421zM264 532q0 -89 16 -165.5t50 -133t86 -87.5t123 -31q26 0 51.5 2.5t55.5 8.5v807q-26 4 -48.5 6t-54.5 2q-132 0 -205.5 -98.5t-73.5 -310.5zM803 122q21 -4 48 -5.5t58 -1.5q136 0 206 113t70 325q0 181 -63 284.5t-223 103.5q-26 0 -46 -1t-50 -9v-809z" />
<glyph unicode="&#x445;" horiz-adv-x="1096" d="M59 0l384 545l-358 520h209l202 -294l60 -121l62 121l207 294h191l-360 -512l381 -553h-202l-226 323l-64 128l-66 -128l-229 -323h-191z" />
<glyph unicode="&#x446;" horiz-adv-x="1166" d="M164 0v1065h171v-916h462v916h170v-916h153v-419h-114l-33 270h-809z" />
<glyph unicode="&#x447;" horiz-adv-x="1043" d="M104 742v323h171v-290q0 -57 6 -103t25.5 -78.5t55.5 -51t96 -18.5q95 0 157 21.5t94 46.5v473h171v-1065h-171v447q-34 -21 -101 -47t-184 -26q-79 0 -138.5 17.5t-100 60t-61 112.5t-20.5 178z" />
<glyph unicode="&#x448;" horiz-adv-x="1567" d="M164 0v1065h171v-916h364v916h170v-916h364v916h171v-1065h-1240z" />
<glyph unicode="&#x449;" horiz-adv-x="1603" d="M164 0v1065h171v-916h364v916h170v-916h364v916h171v-916h153v-426h-116l-31 277h-1246z" />
<glyph unicode="&#x44a;" horiz-adv-x="1057" d="M2 916v149h405v-407q51 9 96.5 12t88.5 3q110 0 187 -24.5t125 -67t69 -101t21 -124.5q0 -194 -116 -281t-360 -87q-71 0 -139 3t-143 9v916h-234zM407 149q83 -13 149 -13q135 0 198 52t63 149q0 85 -61 140t-193 55q-37 0 -77.5 -2t-78.5 -12v-369z" />
<glyph unicode="&#x44b;" horiz-adv-x="1405" d="M164 0v1065h171v-407q51 9 97.5 12t89.5 3q108 0 182 -24.5t118.5 -67t62.5 -101t18 -124.5q0 -194 -107.5 -281t-348.5 -87q-136 0 -283 12zM335 149q79 -13 151 -13q134 0 187 52t53 149q0 85 -52 140t-182 55q-36 0 -79 -2t-78 -12v-369zM1071 0v1065h171v-1065h-171z " />
<glyph unicode="&#x44c;" horiz-adv-x="988" d="M164 0v1065h171v-407q51 9 97.5 12t89.5 3q110 0 187 -24.5t125 -67t69.5 -101t21.5 -124.5q0 -194 -116 -281t-362 -87q-136 0 -283 12zM335 149q79 -13 151 -13q134 0 198 52t64 149q0 85 -62 140t-194 55q-36 0 -79 -2t-78 -12v-369z" />
<glyph unicode="&#x44d;" horiz-adv-x="990" d="M83 996q66 45 151 70t199 25q236 0 344.5 -147t108.5 -412q0 -272 -126 -415t-349 -143q-100 0 -184.5 16t-141.5 48l49 145q49 -28 120.5 -43.5t139.5 -15.5q299 -2 317 343h-453v140h451q-10 151 -88 242.5t-221 91.5q-87 0 -152 -23.5t-106 -50.5z" />
<glyph unicode="&#x44e;" horiz-adv-x="1530" d="M164 0v1065h171v-445h214q17 228 125 349.5t320 121.5q118 0 200 -39.5t134 -113.5t75.5 -177t23.5 -229q0 -270 -107.5 -414t-329.5 -144q-115 0 -197 35.5t-134 100.5t-79 157.5t-33 203.5h-212v-471h-171zM716 532q0 -83 13 -157t44.5 -131t86 -88.5t134.5 -31.5 q136 0 196 98.5t60 309.5q0 84 -11.5 158t-41.5 131t-79 88.5t-126 31.5q-146 0 -211 -98.5t-65 -310.5z" />
<glyph unicode="&#x44f;" horiz-adv-x="1010" d="M43 0l255 364l86 79q-110 17 -188 89.5t-78 195.5q0 96 32.5 164.5t94.5 113t147 65t191 20.5q79 0 147.5 -11t133.5 -23v-1057h-169v441l-165 -26l-280 -415h-207zM294 737q0 -95 75.5 -147.5t199.5 -52.5h6h17t36.5 1t66.5 3v379q-28 11 -62.5 16t-59.5 5 q-136 0 -207.5 -49t-71.5 -155z" />
<glyph unicode="&#x451;" horiz-adv-x="1081" d="M104 532q0 273 121.5 416t347.5 143q73 0 145 -16t129.5 -61t94 -127t36.5 -216q0 -71 -13 -155h-684q0 -94 19 -166.5t59.5 -122.5t105.5 -76.5t159 -26.5q73 0 145 25.5t109 59.5l63 -124q-63 -51 -160.5 -81t-205.5 -30q-122 0 -211 39.5t-146.5 113.5t-85.5 176 t-28 229zM254 1352q0 49 28.5 79.5t75.5 30.5t76 -30.5t29 -79.5q0 -44 -29 -74t-76 -30t-75.5 30t-28.5 74zM283 650h528q0 162 -61.5 226.5t-174.5 64.5q-126 0 -201.5 -66t-90.5 -225zM663 1352q0 49 28.5 79.5t75.5 30.5q49 0 78 -30.5t29 -79.5q0 -44 -28.5 -74 t-78.5 -30q-47 0 -75.5 30t-28.5 74z" />
<glyph unicode="&#x452;" horiz-adv-x="1166" d="M-4 937v128h170v426h171v-426h340v-128h-340v-315h8q55 65 133 104.5t193 39.5q89 0 155 -20t110 -71t64 -137.5t20 -218.5v-376q0 -198 -68 -296t-217 -98q-16 0 -31.5 1t-32.5 3v144q59 0 94.5 18.5t54.5 56t24.5 94.5t5.5 134v281q0 83 -9.5 147t-35 105.5t-69 63 t-114.5 21.5q-100 0 -181 -65t-104 -167v-386h-171v937h-170z" />
<glyph unicode="&#x453;" horiz-adv-x="785" d="M164 0v1065h622v-149h-451v-916h-171zM386 1216l126 318h189v-45l-215 -273h-100z" />
<glyph unicode="&#x454;" horiz-adv-x="1004" d="M104 532q0 135 36.5 239.5t101.5 174.5t156.5 107.5t202.5 37.5q102 0 178.5 -16t134.5 -46l-50 -147q-49 28 -114 43.5t-132 15.5q-147 2 -235.5 -82t-105.5 -250h503v-140h-505q6 -71 30.5 -135t68 -110.5t107.5 -73t153 -26.5q75 0 140 23.5t104 53.5l55 -130 q-64 -47 -156 -72t-187 -25q-124 0 -214.5 39.5t-151 113.5t-90.5 177t-30 228z" />
<glyph unicode="&#x455;" horiz-adv-x="896" d="M83 53l51 145q49 -28 128 -51t160 -23q92 0 151 36.5t59 129.5q0 64 -38 100t-94.5 60.5t-123.5 47t-123.5 57.5t-94.5 90.5t-38 149.5q0 152 87 224t242 72q116 0 193.5 -20.5t135.5 -48.5l-41 -140q-49 24 -118.5 41.5t-147.5 17.5q-93 0 -137 -31.5t-44 -110.5 q0 -55 38 -86.5t94.5 -56t124 -47.5t123.5 -61.5t94.5 -97t38.5 -154.5q0 -68 -22.5 -128t-69 -102t-116 -67t-162.5 -25q-122 0 -207.5 23.5t-142.5 55.5z" />
<glyph unicode="&#x456;" horiz-adv-x="569" d="M164 1388q0 49 33 84.5t84 35.5t87.5 -35.5t36.5 -84.5q0 -48 -36.5 -80t-87.5 -32t-84 32t-33 80zM201 0v1065h169v-1065h-169z" />
<glyph unicode="&#x457;" horiz-adv-x="591" d="M61 1348q0 49 27 78t76 29q47 0 74.5 -29t27.5 -78q0 -45 -27.5 -74.5t-74.5 -29.5q-49 0 -76 29.5t-27 74.5zM209 0v1065h171v-1065h-171zM328 1348q0 49 27 78t73 29q49 0 76.5 -29t27.5 -78q0 -45 -27.5 -74.5t-76.5 -29.5q-46 0 -73 29.5t-27 74.5z" />
<glyph unicode="&#x458;" horiz-adv-x="567" d="M19 -303q59 0 94.5 18.5t54.5 57t24.5 96.5t5.5 137v1059h170v-1122q0 -198 -68 -296t-217 -98q-16 0 -31.5 1t-32.5 3v144zM162 1388q0 49 33 84.5t84 35.5t87 -35.5t36 -84.5q0 -48 -36 -80t-87 -32t-84 32t-33 80z" />
<glyph unicode="&#x459;" horiz-adv-x="1561" d="M-10 10l25 143q26 -8 56 -8q42 0 76 36t59.5 137t42.5 280.5t23 466.5h635v-407q51 9 98 12t90 3q110 0 187 -24.5t125 -67t69.5 -101t21.5 -124.5q0 -194 -116 -281t-362 -87q-136 0 -283 12v916h-309q-6 -89 -12.5 -192.5t-19 -207t-34 -198t-54.5 -167t-81 -116 t-114 -43.5q-40 0 -70.5 4t-52.5 14zM907 147q79 -13 152 -13q134 0 198 53t64 150q0 85 -62 140t-194 55q-36 0 -79 -2t-79 -12v-371z" />
<glyph unicode="&#x45a;" horiz-adv-x="1639" d="M164 0v1065h171v-441h480v441h171v-407q51 9 97.5 12t89.5 3q110 0 187 -24.5t125.5 -67t70 -101t21.5 -124.5q0 -194 -116.5 -281t-361.5 -87q-136 0 -284 12v475h-480v-475h-171zM986 149q79 -13 152 -13q134 0 198 52t64 149q0 85 -62 140t-194 55q-36 0 -78 -3 t-80 -11v-369z" />
<glyph unicode="&#x45b;" horiz-adv-x="1166" d="M-4 937v128h170v426h171v-426h340v-128h-340v-315h8q55 65 133 104.5t193 39.5q89 0 155 -20t110 -71t64 -137.5t20 -218.5v-319h-170v281q0 83 -9.5 147t-35 105.5t-69 63t-114.5 21.5q-100 0 -181 -65t-104 -167v-386h-171v937h-170z" />
<glyph unicode="&#x45c;" horiz-adv-x="1017" d="M164 0v1065h171v-482l91 31l340 451h186l-330 -429l-90 -69l111 -85l356 -482h-211l-355 479h-98v-479h-171zM420 1216l126 318h189v-45l-215 -273h-100z" />
<glyph unicode="&#x45e;" horiz-adv-x="992" d="M26 1065h196l255 -691l60 -203h10l47 205l207 689h172l-315 -957q-36 -104 -71.5 -201.5t-77.5 -174.5t-95.5 -123t-123.5 -46q-77 0 -126 22l29 147q29 -11 55 -11q59 0 114 63t91 216zM189 1445l144 51q21 -98 73.5 -136.5t121.5 -38.5t121.5 40.5t71.5 131.5l128 -40 q-18 -124 -109 -190t-217 -66q-57 0 -113.5 15t-101 44.5t-77 76.5t-42.5 112z" />
<glyph unicode="&#x45f;" horiz-adv-x="1138" d="M164 0v1065h171v-916h470v916h171v-1065h-311l-33 -382h-110l-43 382h-315z" />
<glyph unicode="&#x462;" horiz-adv-x="1317" d="M0 1171v150h317v215h177v-215h441v-150h-441v-262q10 2 36 5.5t56 5.5t61.5 4.5t57.5 2.5q102 0 199.5 -20.5t172.5 -70.5t122 -136t47 -218q0 -128 -45 -222t-123.5 -155.5t-184 -91.5t-228.5 -30q-31 0 -73.5 1t-90.5 4.5t-95.5 9.5t-88.5 17v1156h-317zM494 149 q30 -7 85.5 -10t108.5 -3q77 0 144 20.5t118.5 62t80 104.5t28.5 146q0 89 -32.5 148.5t-84.5 94t-120 48t-141 13.5q-19 0 -46.5 -2t-55.5 -4.5t-51.5 -6.5t-33.5 -6v-605z" />
<glyph unicode="&#x463;" horiz-adv-x="1057" d="M2 925v140h232v426h171v-426h341v-140h-341v-267q51 9 97.5 12t89.5 3q110 0 187 -24.5t125 -67t69 -101t21 -124.5q0 -194 -116 -281t-360 -87q-136 0 -284 12v925h-232zM405 149q83 -13 151 -13q135 0 198 52t63 149q0 85 -61 140t-193 55q-37 0 -78.5 -2t-79.5 -12 v-369z" />
<glyph unicode="&#x472;" horiz-adv-x="1456" d="M120 746q0 372 157.5 571t448.5 199q158 0 273 -55t191 -156.5t111.5 -243t35.5 -315.5q0 -373 -158.5 -572.5t-452.5 -199.5q-156 0 -269.5 55.5t-189.5 156.5t-111.5 243t-35.5 317zM307 677q16 -275 132.5 -410t286.5 -135q79 0 154 25.5t132 88.5t94.5 167.5 t43.5 263.5h-843zM307 835h843q-16 254 -132.5 389t-291.5 135q-77 0 -149.5 -27t-129.5 -88.5t-94.5 -161.5t-45.5 -247z" />
<glyph unicode="&#x473;" d="M104 532q0 271 120.5 415t346.5 144q120 0 208 -39.5t145.5 -113.5t85 -177t27.5 -229q0 -270 -120 -414t-346 -144q-120 0 -208 39.5t-145.5 113.5t-85.5 177t-28 228zM281 462q10 -167 91 -252.5t199 -85.5q53 0 103 17t89.5 55t65 103t31.5 163h-579zM281 598h579 q-17 181 -92 262t-197 81q-55 0 -105.5 -17t-89.5 -57t-65 -106t-30 -163z" />
<glyph unicode="&#x474;" horiz-adv-x="1272" d="M-4 1491h191l380 -1024l51 -227h4l34 231q41 141 84.5 282t88.5 295q49 167 92.5 259.5t88.5 136t91.5 53t101.5 9.5q75 0 117.5 -12t79.5 -35l-52 -149q-43 24 -80 31t-67 7q-59 0 -99.5 -55t-83.5 -185l-370 -1132h-79z" />
<glyph unicode="&#x475;" horiz-adv-x="1079" d="M21 1065h196l256 -624l59 -203h3l53 207q30 77 48 122t27.5 70t13.5 35.5t8 20.5q35 91 65 162.5t65 121t80.5 76.5t110.5 27q38 0 67.5 -4.5t54.5 -14.5l-25 -158q-18 8 -36.5 13.5t-35.5 5.5q-37 0 -73 -32t-78 -132l-324 -782h-72z" />
<glyph unicode="&#x48a;" horiz-adv-x="1469" d="M181 0v1491h177v-1022l-15 -168h9l93 174l720 1016h105v-1342h221v-47l-194 -379h-115l96 277h-185v1010l13 170h-9l-91 -174l-721 -1006h-104zM376 1811l169 42q8 -79 59.5 -121.5t137.5 -42.5q85 0 135 42.5t60 119.5l152 -36q-24 -116 -108.5 -183t-241.5 -67 q-150 0 -247.5 59t-115.5 187z" />
<glyph unicode="&#x48b;" horiz-adv-x="1193" d="M164 0v1065h171v-650l-7 -125h9l82 132l480 643h100v-916h213v-47l-194 -379h-115l96 277h-170v630l6 132h-6l-87 -136l-480 -626h-98zM264 1445l145 51q21 -98 73.5 -136.5t120.5 -38.5q69 0 122 40.5t72 131.5l128 -40q-19 -124 -110 -190t-217 -66q-57 0 -113.5 15 t-101 44.5t-76.5 76.5t-43 112z" />
<glyph unicode="&#x48c;" horiz-adv-x="1193" d="M0 1359v132h193v170h177v-170h311v-132h-311v-447q11 2 37 5t55.5 5.5t61.5 4.5t57 2q102 0 199.5 -20.5t173 -71.5t122 -137t46.5 -218q0 -128 -44.5 -222t-123 -155.5t-184 -91.5t-229.5 -30q-30 0 -72.5 1t-90.5 4.5t-96 9.5t-89 17v1344h-193zM370 149q30 -7 86 -10 t109 -3q77 0 143.5 20.5t118 62t80 104.5t28.5 146q0 89 -31.5 148.5t-84.5 95t-121 49t-140 13.5q-18 0 -46 -2t-56 -4.5t-51 -6.5t-35 -6v-607z" />
<glyph unicode="&#x48d;" horiz-adv-x="1057" d="M2 925v140h232v426h171v-426h341v-140h-341v-267q51 9 97.5 12t89.5 3q110 0 187 -24.5t125 -67t69 -101t21 -124.5q0 -194 -116 -281t-360 -87q-136 0 -284 12v925h-232zM405 149q83 -13 151 -13q135 0 198 52t63 149q0 85 -61 140t-193 55q-37 0 -78.5 -2t-79.5 -12 v-369z" />
<glyph unicode="&#x48e;" horiz-adv-x="1189" d="M181 0v1476q81 18 174.5 25t185.5 7q98 0 199 -19t184.5 -70t135.5 -140.5t52 -228.5q0 -160 -67 -262.5t-173 -157.5l144 -208l-98 -70l-164 234q-102 -29 -222 -28h-34.5t-51.5 1.5t-52.5 3.5t-35.5 4v-567h-177zM358 724q10 -4 33.5 -5t49.5 -2t49.5 -1h33.5 q37 0 70.5 2t70.5 10l-137 199l92 57l151 -220q68 37 111 104t43 182q0 88 -33.5 146t-87.5 93.5t-122 50.5t-137 15q-55 0 -106 -2.5t-81 -10.5v-618z" />
<glyph unicode="&#x48f;" horiz-adv-x="1151" d="M164 -426v1491h117l32 -128h8q49 75 127 114.5t178 39.5q213 0 317.5 -126t104.5 -412q0 -160 -46.5 -278.5t-134.5 -193.5l113 -132l-90 -79l-126 147q-91 -43 -206 -43q-79 0 -124.5 10t-98.5 33v-443h-171zM335 183q38 -30 87 -44.5t129 -14.5q66 -2 116 18l-118 139 l83 66l124 -146q55 55 85.5 143.5t30.5 211.5q0 88 -15.5 159t-48.5 122t-85 77.5t-129 26.5q-108 0 -171 -56t-88 -172v-530z" />
<glyph unicode="&#x490;" horiz-adv-x="941" d="M181 0v1491h646l33 285h120v-443h-622v-1333h-177z" />
<glyph unicode="&#x491;" horiz-adv-x="785" d="M164 0v1065h468l35 285h119v-434h-451v-916h-171z" />
<glyph unicode="&#x492;" horiz-adv-x="1026" d="M21 679v141h205v671h798v-158h-622v-513h458v-141h-458v-679h-176v679h-205z" />
<glyph unicode="&#x493;" horiz-adv-x="819" d="M0 467v127h191v471h622v-149h-451v-322h360v-127h-360v-467h-171v467h-191z" />
<glyph unicode="&#x494;" horiz-adv-x="1228" d="M181 0v1491h799v-158h-622v-577q26 8 101.5 26.5t192.5 18.5q85 0 167 -23.5t147 -81t104.5 -156.5t39.5 -250q0 -292 -129 -427t-367 -135q-71 0 -101.5 1t-48.5 5v158q28 -4 61 -5.5t95 -1.5q302 0 302 390q0 108 -25 179.5t-69 115.5t-102.5 61t-127.5 17 q-38 0 -75 -6t-70.5 -13t-58 -15.5t-36.5 -12.5v-601h-177z" />
<glyph unicode="&#x495;" horiz-adv-x="1138" d="M164 0v1065h620v-149h-449v-379q24 10 87.5 27t178.5 17q85 0 161.5 -24.5t134.5 -81t91.5 -149t33.5 -230.5q0 -279 -111.5 -410t-349.5 -131q-71 0 -102 1t-48 5v149q28 -4 60.5 -5t95.5 -1q149 0 217 97t68 274q0 189 -83.5 273.5t-215.5 84.5q-77 0 -136 -17.5 t-82 -27.5v-388h-171z" />
<glyph unicode="&#x496;" horiz-adv-x="1744" d="M-2 0l471 667l102 81l-98 75l-445 668h206l433 -668h95v668h171v-694l91 30l433 664h196l-430 -648l-85 -68l106 -87l366 -530h124v-433h-124l-31 275h-77l-471 691h-98v-691h-171v716l-89 -31l-470 -685h-205z" />
<glyph unicode="&#x497;" horiz-adv-x="1475" d="M2 0l337 488l72 63l-108 81l-277 433h181l293 -460h112v460h166v-482l100 31l295 451h179l-289 -433l-83 -67l109 -86l216 -330h160v-419h-115l-31 270h-118l-313 479h-110v-479h-166v500l-100 -29l-314 -471h-196z" />
<glyph unicode="&#x498;" horiz-adv-x="1151" d="M94 30l44 159q49 -24 137.5 -39.5t214.5 -15.5q65 0 129 18.5t114.5 54t81.5 91.5t31 133q0 134 -94 197t-246 73q-26 2 -47.5 3t-45.5 1h-117v149h34h46.5t57 2t55.5 3t43 5q56 9 104.5 29.5t85 52.5t58 74.5t21.5 93.5q0 71 -23.5 117.5t-65 75t-95.5 40.5t-117 12 q-115 0 -195.5 -16t-129.5 -40l-47 142q43 23 153.5 47t248.5 24q86 0 168 -18t146.5 -59.5t104 -113t39.5 -175.5q0 -106 -70 -203t-211 -140v-8q151 -21 238.5 -113t87.5 -245q0 -110 -39 -192.5t-104 -139t-151.5 -89t-180.5 -41.5l-30 -361h-111l-41 358 q-97 4 -165.5 19t-116.5 35z" />
<glyph unicode="&#x499;" horiz-adv-x="939" d="M81 47l49 140q49 -28 118 -42.5t150 -14.5q130 0 198.5 44.5t68.5 136.5q0 77 -64 120.5t-211 43.5h-124v139h149q38 0 75.5 12.5t67.5 34.5t48 53.5t18 65.5q0 83 -57.5 117t-172.5 34q-83 0 -152 -25.5t-108 -49.5l-49 132q64 36 150 64t206 28q354 0 354 -263 q0 -74 -48 -145t-138 -101v-8q126 -24 176 -90t50 -175q0 -115 -80 -199t-241 -109l-30 -372h-112l-40 365q-86 5 -144 23t-107 41z" />
<glyph unicode="&#x49a;" horiz-adv-x="1309" d="M181 0v1491h177v-694l95 30l502 664h204l-499 -641l-89 -70l108 -85l422 -537h190v-433h-124l-31 275h-134l-544 691h-100v-691h-177z" />
<glyph unicode="&#x49b;" horiz-adv-x="1077" d="M164 0v1065h171v-482l91 31l340 451h186l-330 -429l-90 -69l111 -85l245 -333h169v-419h-116l-32 270h-121l-355 479h-98v-479h-171z" />
<glyph unicode="&#x49c;" horiz-adv-x="1458" d="M181 0v1491h177v-694l115 10v268h141v-252l48 4l456 664h203l-461 -641l-87 -70l107 -85l504 -695h-221l-494 691h-55v-276h-141v276h-115v-691h-177z" />
<glyph unicode="&#x49d;" horiz-adv-x="1151" d="M164 0v1065h171v-482l102 11v262h134v-249l55 7l279 451h179l-269 -429l-93 -69l111 -85l293 -482h-199l-295 479h-61v-270h-134v270h-102v-479h-171z" />
<glyph unicode="&#x49e;" horiz-adv-x="1413" d="M0 1210v145h296v136h177v-136h260v-141h-260v-417l104 30l494 664h203l-492 -641l-94 -70l111 -85l541 -695h-226l-537 691h-104v-691h-177v1210h-296z" />
<glyph unicode="&#x49f;" horiz-adv-x="1024" d="M-4 1178v127h172v186h171v-186h338v-127h-338v-595l87 31l330 451h199l-327 -429l-87 -69l107 -85l356 -482h-212l-355 479h-98v-479h-171v1178h-172z" />
<glyph unicode="&#x4a0;" horiz-adv-x="1458" d="M0 1333v158h520v-694l94 30l500 664h207l-501 -641l-87 -70l106 -85l547 -695h-225l-543 691h-98v-691h-177v1333h-343z" />
<glyph unicode="&#x4a1;" horiz-adv-x="1089" d="M2 916v149h405v-482l89 31l343 451h183l-329 -429l-88 -69l111 -85l355 -482h-211l-356 479h-97v-479h-171v916h-234z" />
<glyph unicode="&#x4a2;" horiz-adv-x="1504" d="M181 0v1491h177v-650h715v650h177v-1333h197v-433h-124l-32 275h-218v683h-715v-683h-177z" />
<glyph unicode="&#x4a3;" horiz-adv-x="1162" d="M164 0v1065h171v-445h480v445h171v-916h156v-419h-116l-32 270h-179v471h-480v-471h-171z" />
<glyph unicode="&#x4a4;" horiz-adv-x="1833" d="M181 0v1491h177v-650h715v650h799v-158h-622v-1333h-177v683h-715v-683h-177z" />
<glyph unicode="&#x4a5;" horiz-adv-x="1437" d="M164 0v1065h171v-445h480v445h622v-149h-451v-916h-171v471h-480v-471h-171z" />
<glyph unicode="&#x4a6;" horiz-adv-x="2093" d="M181 0v1491h1042v-735q24 8 100.5 26.5t192.5 18.5q86 0 169 -23.5t148 -81t104.5 -156.5t39.5 -250q0 -292 -130 -427t-369 -135q-71 0 -101.5 1t-47.5 5v158q28 -4 61 -5.5t94 -1.5q149 0 227 97t78 293q0 108 -25.5 179.5t-69.5 115.5t-103 61t-126 17q-38 0 -76.5 -6 t-71.5 -13t-58.5 -15.5t-35.5 -12.5v-601h-177v1333h-688v-1333h-177z" />
<glyph unicode="&#x4a7;" horiz-adv-x="1780" d="M164 0v1065h812v-528q23 10 86.5 27t179.5 17q83 0 158.5 -24.5t134 -81t92.5 -149t34 -230.5q0 -279 -111 -410t-349 -131q-71 0 -101.5 1t-47.5 5v149q29 -4 61.5 -5t93.5 -1q149 0 216.5 97t67.5 274q0 189 -82 273.5t-214 84.5q-77 0 -136.5 -17.5t-82.5 -27.5v-388 h-171v916h-470v-916h-171z" />
<glyph unicode="&#x4a8;" horiz-adv-x="1726" d="M120 746q0 185 43.5 328.5t124 241.5t199 149t265.5 51v-157q-100 0 -181 -37.5t-141 -112.5t-91.5 -190.5t-31.5 -270.5q0 -126 36.5 -239t101 -198t154 -136t198.5 -51q24 0 52.5 2t49.5 10q-69 41 -122 109t-90 152.5t-57.5 180t-20.5 193.5q0 166 38 292t104 212 t155.5 130t194.5 44q236 0 358 -159.5t122 -441.5q0 -132 -27 -245t-73 -205.5t-106 -161t-129 -108.5q10 -2 22 -2h23q81 0 143 17t102 46l53 -138q-40 -32 -100 -54.5t-172 -22.5q-69 0 -137 17t-115 47q-55 -32 -124 -48t-144 -16q-158 0 -283.5 55.5t-213 155.5 t-134 243t-46.5 318zM797 754q0 -75 18 -156.5t53 -159.5t88.5 -144t125.5 -107q57 32 112.5 91t99 141.5t71.5 187t28 228.5q0 96 -16 179t-49 145t-87 97t-131 35q-62 0 -118.5 -31t-99 -96t-69 -167.5t-26.5 -242.5z" />
<glyph unicode="&#x4a9;" horiz-adv-x="1405" d="M104 532q0 267 118.5 412t350.5 147v-150q-292 -2 -292 -406q0 -84 20 -158t63 -132t105.5 -89.5t150.5 -31.5q24 0 54.5 4t51.5 17q-77 46 -130 153t-53 241q0 93 18 187t62 169.5t118 122.5t188 47q97 0 166.5 -36.5t113 -98t64 -144.5t20.5 -179q0 -85 -21.5 -162 t-56.5 -140t-80.5 -108.5t-93.5 -66.5q32 -15 81 -15q43 0 87.5 16t81.5 54l53 -128q-39 -36 -104 -59.5t-141 -23.5q-59 0 -120 19t-99 58q-64 -45 -141 -61t-145 -16q-118 0 -209 39.5t-152.5 113.5t-95 177t-33.5 228zM720 545q0 -122 47.5 -222.5t128.5 -156.5 q45 21 84.5 62.5t69.5 99.5t48 128t18 151q0 58 -11.5 113t-35 98.5t-58.5 70.5t-84 27q-64 0 -104.5 -32t-63 -84t-31 -119t-8.5 -136z" />
<glyph unicode="&#x4aa;" horiz-adv-x="1215" d="M120 746q0 209 56 354.5t148.5 238t208 135t233.5 42.5q128 0 209.5 -13.5t138.5 -37.5l-43 -155q-102 49 -291 49q-87 0 -172.5 -32t-152.5 -104.5t-107.5 -189.5t-40.5 -287q0 -153 38.5 -268.5t105.5 -192t157.5 -114t196.5 -37.5q96 0 167.5 18.5t120.5 48.5l43 -140 q-55 -42 -134.5 -61t-170.5 -24l-30 -358h-110l-41 367q-113 17 -210 70t-168 147t-111.5 229.5t-40.5 314.5z" />
<glyph unicode="&#x4ab;" horiz-adv-x="959" d="M104 532q0 271 119.5 415t343.5 144q102 0 173 -16t129 -46l-49 -147q-49 28 -108.5 43.5t-128.5 15.5q-302 0 -302 -409q0 -81 16 -154t53.5 -130t98 -90.5t149.5 -33.5q77 0 138 23.5t99 53.5l55 -130q-93 -69 -232 -88l-30 -365h-110l-41 361q-102 13 -172.5 57.5 t-115 116t-65 168t-20.5 211.5z" />
<glyph unicode="&#x4ac;" horiz-adv-x="1181" d="M38 1333v158h1106v-158h-465v-1175h197v-433h-124l-32 275h-218v1333h-464z" />
<glyph unicode="&#x4ad;" horiz-adv-x="845" d="M4 916v149h837v-149h-332v-767h158v-419h-116l-31 270h-181v916h-335z" />
<glyph unicode="&#x4ae;" horiz-adv-x="1187" d="M17 1491h207l349 -652l36 -130h3l38 134l334 648h189l-488 -897v-594h-176v592z" />
<glyph unicode="&#x4af;" horiz-adv-x="1030" d="M21 1065h196l260 -691l60 -225h2l53 231l235 685h183l-398 -1065v-426h-171v426z" />
<glyph unicode="&#x4b0;" horiz-adv-x="1187" d="M17 1491h207l349 -652l36 -130h3l38 134l334 648h189l-478 -884h311v-132h-321v-475h-176v475h-320v132h311z" />
<glyph unicode="&#x4b1;" horiz-adv-x="1030" d="M21 1065h196l260 -691l60 -225h2l53 231l235 685h183l-398 -1065h248v-128h-248v-298h-171v298h-262v128h262z" />
<glyph unicode="&#x4b2;" horiz-adv-x="1380" d="M55 0l496 758l-453 733h213l303 -505l53 -122l51 122l319 505h196l-469 -718l390 -615h207v-433h-123l-33 275h-157l-337 535l-57 127l-56 -127l-344 -535h-199z" />
<glyph unicode="&#x4b3;" horiz-adv-x="1118" d="M59 0l384 545l-358 520h209l202 -294l60 -121l62 121l207 294h191l-360 -512l279 -404h162v-419h-115l-32 270h-115l-226 323l-64 128l-66 -128l-229 -323h-191z" />
<glyph unicode="&#x4b4;" horiz-adv-x="1784" d="M38 1333v158h1029v-158h-388v-1175h671v1333h177v-1333h196v-433h-121l-33 275h-1067v1333h-464z" />
<glyph unicode="&#x4b5;" horiz-adv-x="1341" d="M4 916v149h823v-149h-321v-767h463v916h171v-916h153v-419h-115l-32 270h-809v916h-333z" />
<glyph unicode="&#x4b6;" horiz-adv-x="1360" d="M160 965v526h177v-495q0 -292 264 -291q100 0 187.5 26.5t142.5 71.5v688h177v-1333h195v-433h-123l-32 275h-217v643q-57 -33 -151.5 -64.5t-214.5 -31.5q-90 0 -164.5 20.5t-128 68t-83 129t-29.5 200.5z" />
<glyph unicode="&#x4b7;" horiz-adv-x="1083" d="M104 742v323h171v-290q0 -57 6 -103t25.5 -80t55.5 -51t96 -17q95 0 157 21.5t94 46.5v473h171v-916h157v-419h-115l-32 270h-181v447q-34 -21 -101 -47t-184 -26q-79 0 -138.5 17.5t-100 60t-61 112.5t-20.5 178z" />
<glyph unicode="&#x4b8;" horiz-adv-x="1305" d="M160 965v526h177v-495q0 -278 240 -291v264h141v-256q68 11 127.5 34.5t101.5 55.5v688h177v-1491h-177v643q-40 -24 -98.5 -45t-130.5 -35v-254h-141v238q-95 0 -173 20.5t-132.5 68t-83 129t-28.5 200.5z" />
<glyph unicode="&#x4b9;" horiz-adv-x="1057" d="M104 742v323h171v-290q0 -53 5 -98t22 -77.5t49.5 -52t85.5 -23.5v271h134v-263q55 11 93.5 27t59.5 33v473h170v-1065h-170v447q-21 -14 -59.5 -31.5t-93.5 -27.5v-243h-134v229q-83 0 -146 17.5t-104.5 60t-62 112.5t-20.5 178z" />
<glyph unicode="&#x4ba;" horiz-adv-x="1288" d="M181 0v1491h177v-643q57 32 152 63.5t214 31.5q89 0 165 -20t129 -68t82.5 -128.5t29.5 -200.5v-526h-175v494q0 292 -264 292q-102 0 -190 -26.5t-143 -71.5v-688h-177z" />
<glyph unicode="&#x4bb;" horiz-adv-x="1164" d="M164 0v1491h171v-546h8q55 66 132.5 106t193.5 40q89 0 155 -20.5t110 -72t64 -137.5t20 -218v-643h-170v607q0 84 -9.5 146t-35 104t-69 63t-114.5 21q-100 0 -181 -65t-104 -167v-709h-171z" />
<glyph unicode="&#x4bc;" horiz-adv-x="1648" d="M2 939q0 61 16 98.5t43 65.5h167q-35 -28 -47.5 -70.5t-12.5 -73.5q0 -26 6.5 -50.5t25.5 -43.5t55.5 -30.5t96.5 -11.5h25t28 2q14 331 163.5 511t421.5 180q266 0 402.5 -159.5t136.5 -451.5q0 -106 -19 -228h-927q17 -279 138.5 -412t353.5 -133q96 0 178 28.5 t135 61.5l47 -143q-68 -43 -165 -74t-229 -31q-140 0 -254 40.5t-197.5 127t-131 218.5t-53.5 317h-79q-179 0 -251.5 74t-72.5 188zM581 827h763q4 30 6 57.5t2 54.5q0 85 -21 162t-64.5 136.5t-112 95t-162.5 35.5q-197 0 -298.5 -143t-112.5 -398z" />
<glyph unicode="&#x4bd;" horiz-adv-x="1313" d="M17 769q0 63 21 108t66 90h166q-42 -30 -70.5 -74.5t-28.5 -112.5q0 -24 7 -46.5t24 -40.5t46 -29.5t71 -11.5q15 0 24 2q26 213 144 325t318 112q73 0 145 -16t130 -61t94 -127t36 -216q0 -71 -13 -155h-683q0 -94 18.5 -166.5t59 -123.5t105.5 -76.5t159 -25.5 q73 0 145 25.5t109 59.5l63 -124q-63 -51 -160 -81t-206 -30q-120 0 -207.5 38.5t-145.5 108.5t-86.5 169.5t-30.5 223.5h-26q-77 0 -132 19.5t-91.5 54t-53.5 81.5t-17 100zM516 650h528q0 162 -62 226.5t-175 64.5q-126 0 -201.5 -66t-89.5 -225z" />
<glyph unicode="&#x4be;" horiz-adv-x="1648" d="M2 939q0 61 16 98.5t43 65.5h167q-35 -28 -47.5 -70.5t-12.5 -73.5q0 -26 6.5 -50.5t25.5 -43.5t55.5 -30.5t96.5 -11.5h25t28 2q14 331 163.5 511t421.5 180q266 0 402.5 -159.5t136.5 -451.5q0 -106 -19 -228h-927q17 -279 138.5 -412t353.5 -131q96 0 178 27.5 t135 60.5l47 -143q-61 -38 -146.5 -68t-199.5 -35l-30 -358h-112l-40 367q-224 35 -357 202t-145 490h-79q-179 0 -251.5 74t-72.5 188zM581 827h763q4 30 6 57.5t2 54.5q0 85 -21 162t-64.5 136.5t-112 95t-162.5 35.5q-197 0 -298.5 -143t-112.5 -398z" />
<glyph unicode="&#x4bf;" horiz-adv-x="1313" d="M17 769q0 68 21 110.5t66 87.5h166q-42 -30 -70.5 -74.5t-28.5 -112.5q0 -24 7 -46.5t24 -40.5t46 -29.5t71 -11.5q15 0 24 2q26 213 144 325t318 112q73 0 145 -16t130 -61t94 -127t36 -216q0 -71 -13 -155h-683q0 -94 18.5 -166.5t59 -123.5t105.5 -77.5t159 -26.5 q73 0 145 25.5t109 59.5l63 -122q-53 -42 -125 -67.5t-158 -36.5l-30 -363h-110l-41 365q-189 31 -278.5 170t-93.5 361h-26q-77 0 -132 19.5t-91.5 54t-53.5 81.5t-17 100zM516 650h528q0 162 -62 226.5t-175 64.5q-126 0 -201.5 -66t-89.5 -225z" />
<glyph unicode="&#x4c0;" horiz-adv-x="618" d="M222 0v1491h176v-1491h-176z" />
<glyph unicode="&#x4c3;" horiz-adv-x="1277" d="M181 0v1491h177v-694l95 30l502 664h204l-478 -609l-120 -81h134q113 -26 192.5 -73t130.5 -122.5t74.5 -185t23.5 -262.5v-38q0 -153 -28.5 -262.5t-83 -177.5t-131 -98.5t-172.5 -30.5h-29t-31 2v155q85 0 141.5 23.5t91.5 76t50 136t15 207.5q0 144 -28.5 246.5 t-88.5 167.5t-150.5 95.5t-213.5 30.5h-100v-691h-177z" />
<glyph unicode="&#x4c4;" horiz-adv-x="1024" d="M164 0v1065h171v-500l91 29l340 471h186l-332 -447l-77 -55l93 -14q96 -21 155 -72t92 -120.5t44.5 -153t11.5 -169.5q0 -130 -28.5 -222.5t-78.5 -152t-119.5 -87.5t-149.5 -28h-35.5t-37.5 5v146q10 -2 19 -2h19q116 0 178.5 87.5t62.5 253.5q0 224 -89.5 325 t-246.5 101h-98v-460h-171z" />
<glyph unicode="&#x4c5;" horiz-adv-x="1323" d="M-4 10l23 154q21 -6 44 -6q37 0 72.5 23.5t69.5 86.5q30 58 56 154t46.5 242.5t33.5 350t19 476.5h788v-1342h198v-47l-194 -379h-115l97 277h-163v1333h-445q-21 -426 -56 -708t-106 -440q-47 -102 -111 -148.5t-138 -46.5q-38 0 -66 5t-53 15z" />
<glyph unicode="&#x4c6;" horiz-adv-x="1098" d="M-10 10l25 143q26 -8 56 -8q42 0 76 36t59.5 137t42.5 280.5t23 466.5h635v-916h213v-47l-193 -379h-116l96 277h-170v916h-309q-6 -89 -12.5 -192.5t-19 -207t-34 -198t-54.5 -167t-81 -116t-114 -43.5q-77 0 -123 18z" />
<glyph unicode="&#x4c7;" horiz-adv-x="1431" d="M181 0v1491h177v-650h715v650h177v-1548q0 -198 -67 -296t-216 -98h-32.5t-33.5 4v149q59 0 94.5 18t52.5 53.5t21 92.5t4 134v683h-715v-683h-177z" />
<glyph unicode="&#x4c8;" horiz-adv-x="1149" d="M164 0v1065h171v-445h480v445h171v-1122q0 -198 -68 -296t-217 -98q-17 0 -32 1t-33 3v144q60 0 95 18.5t54.5 56t24.5 94.5t5 134v471h-480v-471h-171z" />
<glyph unicode="&#x4c9;" horiz-adv-x="1449" d="M181 0v1491h177v-650h715v650h177v-1342h222v-47l-194 -379h-115l95 277h-185v683h-715v-683h-177z" />
<glyph unicode="&#x4ca;" horiz-adv-x="1183" d="M164 0v1065h171v-445h480v445h171v-916h213v-47l-193 -379h-116l96 277h-171v471h-480v-471h-171z" />
<glyph unicode="&#x4cb;" horiz-adv-x="1288" d="M160 965v526h177v-495q0 -292 264 -291q100 0 187.5 26.5t142.5 71.5v688h177v-1491h-218l-32 -275h-123v433h196v485q-57 -33 -151.5 -64.5t-214.5 -31.5q-90 0 -164.5 20.5t-128 68t-83 129t-29.5 200.5z" />
<glyph unicode="&#x4cc;" horiz-adv-x="1043" d="M104 746v319h171v-285q0 -55 6 -101.5t25.5 -80t55.5 -51t96 -17.5q95 0 157 21.5t94 46.5v467h171v-1065h-187l-33 -270h-115v412h164v309q-34 -20 -101 -44.5t-184 -24.5q-79 0 -138.5 17.5t-100 59t-61 112t-20.5 175.5z" />
<glyph unicode="&#x4cd;" horiz-adv-x="1705" d="M181 0v1491h132l467 -763l70 -165h4l66 170l446 758h138v-1342h221v-47l-193 -379h-116l96 277h-185v1002l21 223h-11l-81 -205l-387 -673h-54l-410 675l-77 203h-11l30 -221v-1004h-166z" />
<glyph unicode="&#x4ce;" horiz-adv-x="1407" d="M164 0v1065h168l298 -477l63 -124h4l63 128l279 473h171v-916h213v-47l-194 -379h-115l96 277h-166v632l13 203h-11l-77 -164l-258 -417h-59l-268 417l-71 164h-8l16 -201v-634h-157z" />
<glyph unicode="&#x4cf;" horiz-adv-x="540" d="M185 0v1491h171v-1491h-171z" />
<glyph unicode="&#x4d0;" horiz-adv-x="1245" d="M17 0l564 1514h81l567 -1514h-185l-154 413h-549l-150 -413h-174zM260 1811l168 42q9 -79 60 -121.5t136 -42.5t135 42.5t61 119.5l151 -36q-24 -116 -107.5 -183t-241.5 -67q-151 0 -248 59t-114 187zM398 567h439l-166 453l-53 226h-2l-53 -230z" />
<glyph unicode="&#x4d1;" horiz-adv-x="1055" d="M83 285q0 94 38.5 156.5t107.5 100t166 54t214 16.5h59.5t57.5 -5q6 64 7 115q0 117 -47 164t-170 47q-37 0 -78.5 -5.5t-85 -15t-83 -23t-68.5 -31.5l-54 128q81 49 188.5 72.5t225.5 23.5q110 0 177 -30t102.5 -77.5t47 -105.5t11.5 -115q0 -128 -6.5 -249t-6.5 -230 q0 -79 6.5 -149.5t23.5 -129.5h-126l-44 149h-11q-18 -31 -47.5 -59.5t-70 -51t-93.5 -37t-122 -14.5q-68 0 -126.5 21.5t-101 60.5t-67 94.5t-24.5 125.5zM187 1445l144 51q21 -98 73.5 -136.5t121.5 -38.5t121.5 40.5t71.5 131.5l128 -40q-18 -124 -109 -190t-217 -66 q-57 0 -113.5 15t-101 44.5t-77 76.5t-42.5 112zM260 303q0 -75 53 -123t136 -48q60 0 107 16t81 40.5t56.5 54t32.5 58.5v176q-30 2 -61 3.5t-60 1.5q-65 0 -128.5 -7.5t-111.5 -28t-76.5 -55.5t-28.5 -88z" />
<glyph unicode="&#x4d2;" horiz-adv-x="1245" d="M17 0l564 1514h81l567 -1514h-185l-154 413h-549l-150 -413h-174zM303 1691q0 45 31.5 72.5t82.5 27.5q49 0 80.5 -27.5t31.5 -72.5q0 -43 -31 -70.5t-81 -27.5q-51 0 -82.5 27.5t-31.5 70.5zM398 567h439l-166 453l-53 226h-2l-53 -230zM712 1691q0 45 30.5 72.5 t80.5 27.5q51 0 82.5 -27.5t31.5 -72.5q0 -43 -31.5 -70.5t-82.5 -27.5q-49 0 -80 27.5t-31 70.5z" />
<glyph unicode="&#x4d3;" horiz-adv-x="1055" d="M83 285q0 94 38.5 156.5t107.5 100t166 54t214 16.5h59.5t57.5 -5q6 64 7 115q0 117 -47 164t-170 47q-37 0 -78.5 -5.5t-85 -15t-83 -23t-68.5 -31.5l-54 128q81 49 188.5 72.5t225.5 23.5q110 0 177 -30t102.5 -77.5t47 -105.5t11.5 -115q0 -128 -6.5 -249t-6.5 -230 q0 -79 6.5 -149.5t23.5 -129.5h-126l-44 149h-11q-18 -31 -47.5 -59.5t-70 -51t-93.5 -37t-122 -14.5q-68 0 -126.5 21.5t-101 60.5t-67 94.5t-24.5 125.5zM209 1352q0 49 28.5 79.5t75.5 30.5t76 -30.5t29 -79.5q0 -44 -29 -74t-76 -30t-75.5 30t-28.5 74zM260 303 q0 -75 53 -123t136 -48q60 0 107 16t81 40.5t56.5 54t32.5 58.5v176q-30 2 -61 3.5t-60 1.5q-65 0 -128.5 -7.5t-111.5 -28t-76.5 -55.5t-28.5 -88zM618 1352q0 49 28.5 79.5t75.5 30.5q49 0 78 -30.5t29 -79.5q0 -44 -28.5 -74t-78.5 -30q-47 0 -75.5 30t-28.5 74z" />
<glyph unicode="&#x4d4;" horiz-adv-x="1801" d="M-47 0l884 1491h816v-158h-635v-487h582v-158h-582v-530h645v-158h-822v422h-455l-239 -422h-194zM477 571h364v707h-8l-73 -219z" />
<glyph unicode="&#x4d5;" horiz-adv-x="1695" d="M83 285q0 94 38.5 156.5t107.5 100t166 54t214 16.5h59.5t57.5 -5q2 33 4.5 61.5t2.5 53.5q0 117 -47 165t-170 46q-37 0 -78.5 -5.5t-85 -15t-83 -23t-68.5 -31.5l-54 128q81 49 188.5 72.5t225.5 23.5q223 0 289 -139q55 77 149 112.5t188 35.5q72 0 144.5 -16 t129.5 -62t93.5 -129t36.5 -217q0 -35 -3 -72t-7 -79h-689q0 -185 78 -288.5t266 -103.5q74 0 145.5 26.5t109.5 58.5l64 -124q-64 -51 -161 -81t-205 -30q-130 0 -235.5 53.5t-156.5 151.5h-15q-28 -39 -64.5 -73.5t-82 -61.5t-104 -44t-129.5 -17q-68 0 -126.5 21.5 t-101 60.5t-67 94.5t-24.5 125.5zM260 303q0 -75 53 -123t136 -48q60 0 107 16t81 40.5t56.5 54t32.5 58.5v176q-30 2 -61 3.5t-60 1.5q-65 0 -128.5 -7.5t-111.5 -28t-76.5 -55.5t-28.5 -88zM896 650h529v25q0 145 -65 205.5t-171 60.5q-126 0 -203 -66t-90 -225z" />
<glyph unicode="&#x4d6;" d="M181 0v1491h811v-158h-634v-487h581v-158h-581v-530h646v-158h-823zM226 1811l168 42q9 -79 60 -121.5t136 -42.5t135 42.5t61 119.5l151 -36q-24 -116 -107.5 -183t-241.5 -67q-151 0 -248 59t-114 187z" />
<glyph unicode="&#x4d7;" horiz-adv-x="1081" d="M104 532q0 273 121.5 416t347.5 143q73 0 145 -16t129.5 -61t94 -127t36.5 -216q0 -71 -13 -155h-684q0 -94 19 -166.5t59.5 -122.5t105.5 -76.5t159 -26.5q73 0 145 25.5t109 59.5l63 -124q-63 -51 -160.5 -81t-205.5 -30q-122 0 -211 39.5t-146.5 113.5t-85.5 176 t-28 229zM230 1445l144 51q21 -98 73.5 -136.5t121.5 -38.5t121.5 40.5t71.5 131.5l128 -40q-18 -124 -109 -190t-217 -66q-57 0 -113.5 15t-101 44.5t-77 76.5t-42.5 112zM283 650h528q0 162 -61.5 226.5t-174.5 64.5q-126 0 -201.5 -66t-90.5 -225z" />
<glyph unicode="&#x4d8;" horiz-adv-x="1360" d="M113 594q0 55 5.5 116t15.5 125h931q-19 273 -128.5 398.5t-329.5 125.5q-49 0 -98 -8.5t-93 -21t-79.5 -28t-59.5 -29.5l-45 142q63 39 170 70.5t239 31.5q142 0 254.5 -43.5t189 -136t117 -239.5t40.5 -351q0 -368 -147.5 -570t-442.5 -202q-132 0 -233.5 43.5 t-169.5 124t-102 195t-34 257.5zM301 573q0 -87 20 -168.5t62.5 -142.5t110 -99.5t160.5 -38.5q198 0 303.5 141.5t107.5 419.5h-756q-4 -30 -6 -56t-2 -56z" />
<glyph unicode="&#x4d9;" horiz-adv-x="1079" d="M104 443q0 34 3 69t8 76h694q-10 181 -88 267t-265 86q-73 0 -144.5 -25.5t-108.5 -59.5l-65 124q64 51 161 81t205 30q122 0 211.5 -39.5t147 -113.5t85.5 -177t28 -229q0 -270 -119.5 -414t-332.5 -144q-71 0 -145 21.5t-135 75t-100.5 144t-39.5 228.5zM270 422 q0 -148 74 -223t184 -75q118 0 197.5 83t79.5 246h-535v-31z" />
<glyph unicode="&#x4da;" horiz-adv-x="1360" d="M113 594q0 55 5.5 116t15.5 125h931q-19 273 -128.5 398.5t-329.5 125.5q-49 0 -98 -8.5t-93 -21t-79.5 -28t-59.5 -29.5l-45 142q63 39 170 70.5t239 31.5q142 0 254.5 -43.5t189 -136t117 -239.5t40.5 -351q0 -368 -147.5 -570t-442.5 -202q-132 0 -233.5 43.5 t-169.5 124t-102 195t-34 257.5zM301 573q0 -87 20 -168.5t62.5 -142.5t110 -99.5t160.5 -38.5q198 0 303.5 141.5t107.5 419.5h-756q-4 -30 -6 -56t-2 -56zM343 1691q0 45 31.5 72.5t82.5 27.5q49 0 80.5 -27.5t31.5 -72.5q0 -43 -31 -70.5t-81 -27.5q-51 0 -82.5 27.5 t-31.5 70.5zM752 1691q0 45 30.5 72.5t80.5 27.5q51 0 82.5 -27.5t31.5 -72.5q0 -43 -31.5 -70.5t-82.5 -27.5q-49 0 -80 27.5t-31 70.5z" />
<glyph unicode="&#x4db;" horiz-adv-x="1079" d="M104 443q0 34 3 69t8 76h694q-10 181 -88 267t-265 86q-73 0 -144.5 -25.5t-108.5 -59.5l-65 124q64 51 161 81t205 30q122 0 211.5 -39.5t147 -113.5t85.5 -177t28 -229q0 -270 -119.5 -414t-332.5 -144q-71 0 -145 21.5t-135 75t-100.5 144t-39.5 228.5zM215 1352 q0 49 28.5 79.5t75.5 30.5t76 -30.5t29 -79.5q0 -44 -29 -74t-76 -30t-75.5 30t-28.5 74zM270 422q0 -148 74 -223t184 -75q118 0 197.5 83t79.5 246h-535v-31zM624 1352q0 49 28.5 79.5t75.5 30.5q49 0 78 -30.5t29 -79.5q0 -44 -28.5 -74t-78.5 -30q-47 0 -75.5 30 t-28.5 74z" />
<glyph unicode="&#x4dc;" horiz-adv-x="1716" d="M-2 0l471 667l102 81l-98 75l-445 668h206l433 -668h95v668h171v-694l91 30l433 664h196l-430 -648l-85 -68l106 -87l475 -688h-217l-471 691h-98v-691h-171v716l-89 -31l-470 -685h-205zM533 1691q0 45 31.5 72.5t82.5 27.5q49 0 80.5 -27.5t31.5 -72.5q0 -43 -31 -70.5 t-81 -27.5q-51 0 -82.5 27.5t-31.5 70.5zM942 1691q0 45 30.5 72.5t80.5 27.5q51 0 82.5 -27.5t31.5 -72.5q0 -43 -31.5 -70.5t-82.5 -27.5q-49 0 -80 27.5t-31 70.5z" />
<glyph unicode="&#x4dd;" horiz-adv-x="1402" d="M2 0l337 488l72 63l-108 81l-277 433h181l293 -460h112v460h166v-482l100 31l295 451h179l-289 -433l-83 -67l109 -86l315 -479h-203l-313 479h-110v-479h-166v500l-100 -29l-314 -471h-196zM390 1352q0 49 28.5 79.5t75.5 30.5t76 -30.5t29 -79.5q0 -44 -29 -74t-76 -30 t-75.5 30t-28.5 74zM799 1352q0 49 28.5 79.5t75.5 30.5q49 0 78 -30.5t29 -79.5q0 -44 -28.5 -74t-78.5 -30q-47 0 -75.5 30t-28.5 74z" />
<glyph unicode="&#x4de;" horiz-adv-x="1151" d="M94 30l44 159q49 -24 137.5 -40.5t214.5 -16.5q65 0 129 18t114.5 55t81.5 93t31 133q0 134 -94 197t-246 73q-26 2 -47.5 3t-45.5 1h-117v149h34h46.5t57 2t55.5 3t43 5q56 9 104.5 29.5t85 52.5t58 74.5t21.5 93.5q0 71 -23.5 117.5t-65 75t-95.5 40.5t-117 12 q-115 0 -195.5 -16t-129.5 -40l-47 142q43 23 153.5 47t248.5 24q86 0 168 -18t146.5 -59.5t104 -113t39.5 -175.5q0 -106 -70 -203t-211 -140v-8q151 -21 238.5 -113t87.5 -245q0 -122 -48 -210.5t-125.5 -145.5t-179 -84t-205.5 -27q-140 0 -231 16t-150 40zM199 1691 q0 45 31.5 72.5t82.5 27.5q49 0 80.5 -27.5t31.5 -72.5q0 -43 -31 -70.5t-81 -27.5q-51 0 -82.5 27.5t-31.5 70.5zM608 1691q0 45 30.5 72.5t80.5 27.5q51 0 82.5 -27.5t31.5 -72.5q0 -43 -31.5 -70.5t-82.5 -27.5q-49 0 -80 27.5t-31 70.5z" />
<glyph unicode="&#x4df;" horiz-adv-x="939" d="M81 47l49 140q49 -28 118 -42.5t150 -14.5q130 0 198.5 44.5t68.5 136.5q0 77 -64 120.5t-211 43.5h-124v139h149q38 0 75.5 12.5t67.5 34.5t48 53.5t18 65.5q0 83 -57.5 117t-172.5 34q-83 0 -152 -25.5t-108 -49.5l-49 132q64 36 150 64t206 28q354 0 354 -263 q0 -74 -48 -145t-138 -101v-8q126 -24 176 -90t50 -175q0 -68 -27.5 -125.5t-83 -100t-140 -67t-194.5 -24.5q-108 0 -180 19t-129 47zM128 1352q0 49 28.5 79.5t75.5 30.5t76 -30.5t29 -79.5q0 -44 -29 -74t-76 -30t-75.5 30t-28.5 74zM537 1352q0 49 28.5 79.5t75.5 30.5 q49 0 78 -30.5t29 -79.5q0 -44 -28.5 -74t-78.5 -30q-47 0 -75.5 30t-28.5 74z" />
<glyph unicode="&#x4e0;" horiz-adv-x="1199" d="M118 49l44 156q24 -13 62 -27t84 -23.5t92.5 -16t89.5 -6.5q83 0 156.5 21.5t128 61t85 95.5t30.5 127q0 149 -114 219t-314 70h-187v58l396 476l93 92l-132 -19h-510v158h884v-64l-427 -509l-75 -62v-8l73 19q106 0 195.5 -29t153.5 -82t99.5 -130t35.5 -173 q0 -115 -44 -203t-120.5 -150t-180.5 -94t-228 -32q-47 0 -100 5.5t-104.5 16t-95 23.5t-70.5 30z" />
<glyph unicode="&#x4e1;" horiz-adv-x="1010" d="M83 -394l49 152q51 -26 117 -43.5t151 -17.5q73 0 135.5 22.5t109 62t72 97.5t25.5 127q0 149 -92 222t-250 73h-155v55l306 477l97 92l-136 -18h-423v158h765v-61l-338 -508l-73 -61v-9l69 17q85 0 157.5 -28.5t125.5 -83t82.5 -131t29.5 -170.5q0 -115 -39 -204.5 t-109.5 -151.5t-164.5 -93.5t-202 -31.5q-96 0 -171.5 14.5t-137.5 42.5z" />
<glyph unicode="&#x4e2;" horiz-adv-x="1449" d="M181 0v1491h177v-1022l-15 -168h9l93 174l720 1016h105v-1491h-177v1010l13 170h-9l-91 -174l-721 -1006h-104zM403 1663v132h673v-132h-673z" />
<glyph unicode="&#x4e3;" horiz-adv-x="1162" d="M164 0v1065h171v-650l-7 -125h9l82 132l480 643h100v-1065h-170v630l6 132h-6l-87 -136l-480 -626h-98zM277 1238v132h630v-132h-630z" />
<glyph unicode="&#x4e4;" horiz-adv-x="1449" d="M181 0v1491h177v-1022l-15 -168h9l93 174l720 1016h105v-1491h-177v1010l13 170h-9l-91 -174l-721 -1006h-104zM405 1691q0 45 31.5 72.5t82.5 27.5q49 0 80.5 -27.5t31.5 -72.5q0 -43 -31 -70.5t-81 -27.5q-51 0 -82.5 27.5t-31.5 70.5zM814 1691q0 45 30.5 72.5 t80.5 27.5q51 0 82.5 -27.5t31.5 -72.5q0 -43 -31.5 -70.5t-82.5 -27.5q-49 0 -80 27.5t-31 70.5z" />
<glyph unicode="&#x4e5;" horiz-adv-x="1162" d="M164 0v1065h171v-650l-7 -125h9l82 132l480 643h100v-1065h-170v630l6 132h-6l-87 -136l-480 -626h-98zM290 1352q0 49 28.5 79.5t75.5 30.5t76 -30.5t29 -79.5q0 -44 -29 -74t-76 -30t-75.5 30t-28.5 74zM699 1352q0 49 28.5 79.5t75.5 30.5q49 0 78 -30.5t29 -79.5 q0 -44 -28.5 -74t-78.5 -30q-47 0 -75.5 30t-28.5 74z" />
<glyph unicode="&#x4e6;" horiz-adv-x="1456" d="M120 746q0 372 157.5 571t448.5 199q158 0 273 -55t191 -156.5t111.5 -243t35.5 -315.5q0 -373 -158.5 -572.5t-452.5 -199.5q-156 0 -269.5 55.5t-189.5 156.5t-111.5 243t-35.5 317zM307 746q0 -124 24.5 -235t75.5 -195t131 -134t188 -50q198 0 311 150.5t113 463.5 q0 121 -24.5 233t-77 195.5t-132 134t-190.5 50.5q-196 0 -307.5 -150t-111.5 -463zM411 1691q0 45 31.5 72.5t82.5 27.5q49 0 80.5 -27.5t31.5 -72.5q0 -43 -31 -70.5t-81 -27.5q-51 0 -82.5 27.5t-31.5 70.5zM820 1691q0 45 30.5 72.5t80.5 27.5q51 0 82.5 -27.5 t31.5 -72.5q0 -43 -31.5 -70.5t-82.5 -27.5q-49 0 -80 27.5t-31 70.5z" />
<glyph unicode="&#x4e7;" d="M104 532q0 271 120.5 415t346.5 144q120 0 208 -39.5t145.5 -113.5t85 -177t27.5 -229q0 -270 -120 -414t-346 -144q-120 0 -208 39.5t-145.5 113.5t-85.5 177t-28 228zM256 1352q0 49 28.5 79.5t75.5 30.5t76 -30.5t29 -79.5q0 -44 -29 -74t-76 -30t-75.5 30t-28.5 74z M281 532q0 -81 16 -155t50.5 -130t89.5 -89.5t134 -33.5q290 -2 289 408q0 84 -15.5 158t-50 130t-89.5 88.5t-134 32.5q-290 2 -290 -409zM665 1352q0 49 28.5 79.5t75.5 30.5q49 0 78 -30.5t29 -79.5q0 -44 -28.5 -74t-78.5 -30q-47 0 -75.5 30t-28.5 74z" />
<glyph unicode="&#x4e8;" horiz-adv-x="1456" d="M120 746q0 372 157.5 571t448.5 199q158 0 273 -55t191 -156.5t111.5 -243t35.5 -315.5q0 -373 -158.5 -572.5t-452.5 -199.5q-156 0 -269.5 55.5t-189.5 156.5t-111.5 243t-35.5 317zM307 677q16 -275 132.5 -410t286.5 -135q79 0 154 25.5t132 88.5t94.5 167.5 t43.5 263.5h-843zM307 835h843q-16 254 -132.5 389t-291.5 135q-77 0 -149.5 -27t-129.5 -88.5t-94.5 -161.5t-45.5 -247z" />
<glyph unicode="&#x4e9;" d="M104 532q0 271 120.5 415t346.5 144q120 0 208 -39.5t145.5 -113.5t85 -177t27.5 -229q0 -270 -120 -414t-346 -144q-120 0 -208 39.5t-145.5 113.5t-85.5 177t-28 228zM281 462q10 -167 91 -252.5t199 -85.5q53 0 103 17t89.5 55t65 103t31.5 163h-579zM281 598h579 q-17 181 -92 262t-197 81q-55 0 -105.5 -17t-89.5 -57t-65 -106t-30 -163z" />
<glyph unicode="&#x4ea;" horiz-adv-x="1456" d="M120 746q0 372 157.5 571t448.5 199q158 0 273 -55t191 -156.5t111.5 -243t35.5 -315.5q0 -373 -158.5 -572.5t-452.5 -199.5q-156 0 -269.5 55.5t-189.5 156.5t-111.5 243t-35.5 317zM307 677q16 -275 132.5 -410t286.5 -135q79 0 154 25.5t132 88.5t94.5 167.5 t43.5 263.5h-843zM307 835h843q-16 254 -132.5 389t-291.5 135q-77 0 -149.5 -27t-129.5 -88.5t-94.5 -161.5t-45.5 -247zM411 1691q0 45 31.5 72.5t82.5 27.5q49 0 80.5 -27.5t31.5 -72.5q0 -43 -31 -70.5t-81 -27.5q-51 0 -82.5 27.5t-31.5 70.5zM820 1691q0 45 30.5 72.5 t80.5 27.5q51 0 82.5 -27.5t31.5 -72.5q0 -43 -31.5 -70.5t-82.5 -27.5q-49 0 -80 27.5t-31 70.5z" />
<glyph unicode="&#x4eb;" d="M104 532q0 271 120.5 415t346.5 144q120 0 208 -39.5t145.5 -113.5t85 -177t27.5 -229q0 -270 -120 -414t-346 -144q-120 0 -208 39.5t-145.5 113.5t-85.5 177t-28 228zM256 1352q0 49 28.5 79.5t75.5 30.5t76 -30.5t29 -79.5q0 -44 -29 -74t-76 -30t-75.5 30t-28.5 74z M281 462q10 -167 91 -252.5t199 -85.5q53 0 103 17t89.5 55t65 103t31.5 163h-579zM281 598h579q-17 181 -92 262t-197 81q-55 0 -105.5 -17t-89.5 -57t-65 -106t-30 -163zM665 1352q0 49 28.5 79.5t75.5 30.5q49 0 78 -30.5t29 -79.5q0 -44 -28.5 -74t-78.5 -30 q-47 0 -75.5 30t-28.5 74z" />
<glyph unicode="&#x4ec;" horiz-adv-x="1228" d="M96 28l46 155q49 -24 128 -37.5t165 -13.5q85 0 171.5 26.5t156.5 92.5t117 172.5t55 259.5h-616v158h614q-11 130 -51.5 229t-104.5 164t-148 95t-182 30q-100 0 -178 -17t-127 -47l-46 138q65 39 163.5 61t209.5 22q136 0 253 -42.5t203.5 -135t135.5 -239.5t49 -353 q0 -209 -55.5 -356.5t-150.5 -240t-219 -134t-261 -41.5q-106 0 -188.5 15t-139.5 39zM166 1691q0 45 31.5 72.5t82.5 27.5q49 0 80.5 -27.5t31.5 -72.5q0 -43 -31 -70.5t-81 -27.5q-51 0 -82.5 27.5t-31.5 70.5zM575 1691q0 45 30.5 72.5t80.5 27.5q51 0 82.5 -27.5 t31.5 -72.5q0 -43 -31.5 -70.5t-82.5 -27.5q-49 0 -80 27.5t-31 70.5z" />
<glyph unicode="&#x4ed;" horiz-adv-x="990" d="M83 996q66 45 151 70t199 25q236 0 344.5 -147t108.5 -412q0 -272 -126 -415t-349 -143q-100 0 -184.5 16t-141.5 48l49 145q49 -28 120.5 -43.5t139.5 -15.5q299 -2 317 343h-453v140h451q-10 151 -88 242.5t-221 91.5q-87 0 -152 -23.5t-106 -50.5zM124 1352 q0 49 28.5 79.5t75.5 30.5t76 -30.5t29 -79.5q0 -44 -29 -74t-76 -30t-75.5 30t-28.5 74zM533 1352q0 49 28.5 79.5t75.5 30.5q49 0 78 -30.5t29 -79.5q0 -44 -28.5 -74t-78.5 -30q-47 0 -75.5 30t-28.5 74z" />
<glyph unicode="&#x4ee;" horiz-adv-x="1177" d="M15 1491h204l382 -786l55 -189h11l42 195l285 780h181l-376 -969q-57 -151 -101 -252.5t-88.5 -164t-96 -89t-125.5 -26.5q-71 0 -112.5 11t-77.5 35l54 147q42 -24 78 -30t66 -6q60 0 100.5 60.5t70.5 180.5zM294 1663v132h673v-132h-673z" />
<glyph unicode="&#x4ef;" horiz-adv-x="992" d="M26 1065h196l255 -691l60 -203h10l47 205l207 689h172l-315 -957q-36 -104 -71.5 -201.5t-77.5 -174.5t-95.5 -123t-123.5 -46q-77 0 -126 22l29 147q29 -11 55 -11q59 0 114 63t91 216zM209 1238v132h630v-132h-630z" />
<glyph unicode="&#x4f0;" horiz-adv-x="1177" d="M15 1491h204l382 -786l55 -189h11l42 195l285 780h181l-376 -969q-57 -151 -101 -252.5t-88.5 -164t-96 -89t-125.5 -26.5q-71 0 -112.5 11t-77.5 35l54 147q42 -24 78 -30t66 -6q60 0 100.5 60.5t70.5 180.5zM309 1691q0 45 31.5 72.5t82.5 27.5q49 0 80.5 -27.5 t31.5 -72.5q0 -43 -31 -70.5t-81 -27.5q-51 0 -82.5 27.5t-31.5 70.5zM718 1691q0 45 30.5 72.5t80.5 27.5q51 0 82.5 -27.5t31.5 -72.5q0 -43 -31.5 -70.5t-82.5 -27.5q-49 0 -80 27.5t-31 70.5z" />
<glyph unicode="&#x4f1;" horiz-adv-x="992" d="M26 1065h196l255 -691l60 -203h10l47 205l207 689h172l-315 -957q-36 -104 -71.5 -201.5t-77.5 -174.5t-95.5 -123t-123.5 -46q-77 0 -126 22l29 147q29 -11 55 -11q59 0 114 63t91 216zM211 1352q0 49 28.5 79.5t75.5 30.5t76 -30.5t29 -79.5q0 -44 -29 -74t-76 -30 t-75.5 30t-28.5 74zM620 1352q0 49 28.5 79.5t75.5 30.5q49 0 78 -30.5t29 -79.5q0 -44 -28.5 -74t-78.5 -30q-47 0 -75.5 30t-28.5 74z" />
<glyph unicode="&#x4f2;" horiz-adv-x="1177" d="M15 1491h204l382 -786l55 -189h11l42 195l285 780h181l-376 -969q-57 -151 -101 -252.5t-88.5 -164t-96 -89t-125.5 -26.5q-71 0 -112.5 11t-77.5 35l54 147q42 -24 78 -30t66 -6q60 0 100.5 60.5t70.5 180.5zM378 1579l136 232h198v-35l-212 -197h-122zM642 1579 l217 232h211v-35l-304 -197h-124z" />
<glyph unicode="&#x4f3;" horiz-adv-x="992" d="M26 1065h196l255 -691l60 -203h10l47 205l207 689h172l-315 -957q-36 -104 -71.5 -201.5t-77.5 -174.5t-95.5 -123t-123.5 -46q-77 0 -126 22l29 147q29 -11 55 -11q59 0 114 63t91 216zM341 1216l75 275h165v-34l-151 -241h-89zM571 1216l156 275h183v-34l-244 -241h-95 z" />
<glyph unicode="&#x4f4;" horiz-adv-x="1288" d="M160 965v526h177v-495q0 -292 264 -291q100 0 187.5 26.5t142.5 71.5v688h177v-1491h-177v643q-57 -33 -151.5 -64.5t-214.5 -31.5q-90 0 -164.5 20.5t-128 68t-83 129t-29.5 200.5zM335 1691q0 45 31.5 72.5t82.5 27.5q49 0 80.5 -27.5t31.5 -72.5q0 -43 -31 -70.5 t-81 -27.5q-51 0 -82.5 27.5t-31.5 70.5zM744 1691q0 45 30.5 72.5t80.5 27.5q51 0 82.5 -27.5t31.5 -72.5q0 -43 -31.5 -70.5t-82.5 -27.5q-49 0 -80 27.5t-31 70.5z" />
<glyph unicode="&#x4f5;" horiz-adv-x="1043" d="M104 742v323h171v-290q0 -57 6 -103t25.5 -78.5t55.5 -51t96 -18.5q95 0 157 21.5t94 46.5v473h171v-1065h-171v447q-34 -21 -101 -47t-184 -26q-79 0 -138.5 17.5t-100 60t-61 112.5t-20.5 178zM181 1352q0 49 28.5 79.5t75.5 30.5t76 -30.5t29 -79.5q0 -44 -29 -74 t-76 -30t-75.5 30t-28.5 74zM590 1352q0 49 28.5 79.5t75.5 30.5q49 0 78 -30.5t29 -79.5q0 -44 -28.5 -74t-78.5 -30q-47 0 -75.5 30t-28.5 74z" />
<glyph unicode="&#x4f6;" horiz-adv-x="941" d="M181 0v1491h799v-158h-622v-1175h195v-433h-122l-33 275h-217z" />
<glyph unicode="&#x4f7;" horiz-adv-x="785" d="M164 0v1065h622v-149h-451v-767h157v-419h-116l-31 270h-181z" />
<glyph unicode="&#x4f8;" horiz-adv-x="1636" d="M181 15v1476h177v-579q10 2 31.5 5t47 5.5t52.5 4.5t52 2q100 0 195 -20.5t167.5 -71.5t116 -137t43.5 -218q0 -128 -40.5 -223t-114 -155.5t-176 -90.5t-226.5 -30q-30 0 -69 1t-82.5 4.5t-88 9.5t-85.5 17zM358 149q58 -13 164 -13q153 0 253.5 83.5t100.5 249.5 q0 89 -30.5 148.5t-80 95t-114.5 49t-137 13.5q-39 0 -85.5 -6.5t-70.5 -12.5v-607zM488 1691q0 45 31.5 72.5t82.5 27.5q49 0 80.5 -27.5t31.5 -72.5q0 -43 -31 -70.5t-81 -27.5q-51 0 -82.5 27.5t-31.5 70.5zM897 1691q0 45 30.5 72.5t80.5 27.5q51 0 82.5 -27.5 t31.5 -72.5q0 -43 -31.5 -70.5t-82.5 -27.5q-49 0 -80 27.5t-31 70.5zM1280 0v1491h177v-1491h-177z" />
<glyph unicode="&#x4f9;" horiz-adv-x="1405" d="M164 0v1065h171v-407q51 9 97.5 12t89.5 3q108 0 182 -24.5t118.5 -67t62.5 -101t18 -124.5q0 -194 -107.5 -281t-348.5 -87q-136 0 -283 12zM335 149q79 -13 151 -13q134 0 187 52t53 149q0 85 -52 140t-182 55q-36 0 -79 -2t-78 -12v-369zM384 1352q0 49 28.5 79.5 t75.5 30.5t76 -30.5t29 -79.5q0 -44 -29 -74t-76 -30t-75.5 30t-28.5 74zM793 1352q0 49 28.5 79.5t75.5 30.5q49 0 78 -30.5t29 -79.5q0 -44 -28.5 -74t-78.5 -30q-47 0 -75.5 30t-28.5 74zM1071 0v1065h171v-1065h-171z" />
<glyph unicode="&#x4fc;" horiz-adv-x="1315" d="M55 0l496 758l-453 733h213l303 -505l53 -122l51 122l319 505h196l-469 -718l297 -458q68 -104 99 -191.5t31 -176.5q0 -198 -70.5 -296t-221.5 -98h-33t-33 4v145q59 0 96.5 17t58 45.5t26.5 67t6 79.5q0 104 -34 183t-77 144l-193 297l-62 127l-56 -127l-344 -535h-199 z" />
<glyph unicode="&#x4fd;" horiz-adv-x="1094" d="M59 0l384 545l-358 520h209l202 -294l60 -121l62 121l207 294h191l-360 -512l204 -285q61 -89 98.5 -176.5t37.5 -168.5q0 -185 -79.5 -279.5t-233.5 -94.5q-16 0 -33.5 1t-31.5 3v144q121 0 165 47t44 143q0 87 -37.5 164t-80.5 138l-100 134l-68 120l-62 -120 l-229 -323h-191z" />
<glyph unicode="&#x2013;" horiz-adv-x="1405" d="M252 535v158h902v-158h-902z" />
<glyph unicode="&#x2014;" horiz-adv-x="1746" d="M252 535v158h1244v-158h-1244z" />
<glyph unicode="&#x2018;" horiz-adv-x="412" d="M85 1366q0 70 20.5 120t49 85t59.5 56t54 30l53 -74q-46 -24 -75 -63.5t-29 -98.5q9 2 23 2q43 0 66.5 -30t23.5 -72q0 -49 -32 -78t-81 -29q-57 0 -94.5 38.5t-37.5 113.5z" />
<glyph unicode="&#x2019;" horiz-adv-x="412" d="M85 1404q0 49 31 76.5t80 27.5q59 0 96.5 -37.5t37.5 -111.5q0 -70 -20 -121t-49 -86.5t-61 -57t-55 -29.5l-53 73q48 26 76 64t28 99q-9 -2 -23 -2q-41 0 -64.5 29t-23.5 76z" />
<glyph unicode="&#x201a;" horiz-adv-x="412" d="M85 109q0 49 31 76.5t80 27.5q59 0 96.5 -37.5t37.5 -111.5q0 -70 -20 -121t-49 -86.5t-61 -57t-55 -29.5l-53 73q48 26 76 64t28 99q-9 -2 -23 -2q-41 0 -64.5 29t-23.5 76z" />
<glyph unicode="&#x201c;" horiz-adv-x="723" d="M85 1366q0 70 20.5 120t49 85t59.5 56t54 30l53 -74q-46 -24 -75 -63.5t-29 -98.5q9 2 23 2q43 0 66.5 -30t23.5 -72q0 -49 -32 -78t-81 -29q-57 0 -94.5 38.5t-37.5 113.5zM396 1366q0 70 20.5 120t49 85t59.5 56t54 30l53 -74q-46 -24 -75 -63.5t-29 -98.5q9 2 23 2 q43 0 66.5 -30t23.5 -72q0 -49 -32 -78t-81 -29q-57 0 -94.5 38.5t-37.5 113.5z" />
<glyph unicode="&#x201d;" horiz-adv-x="723" d="M85 1404q0 49 31 76.5t80 27.5q59 0 96.5 -37.5t37.5 -111.5q0 -70 -20 -121t-49 -86.5t-61 -57t-55 -29.5l-53 73q48 26 76 64t28 99q-9 -2 -23 -2q-41 0 -64.5 29t-23.5 76zM396 1404q0 49 31 76.5t80 27.5q59 0 96.5 -37.5t37.5 -111.5q0 -70 -20 -121t-49 -86.5 t-61 -57t-55 -29.5l-53 73q48 26 76 64t28 99q-9 -2 -23 -2q-41 0 -64.5 29t-23.5 76z" />
<glyph unicode="&#x201e;" horiz-adv-x="723" d="M85 109q0 49 31 76.5t80 27.5q59 0 96.5 -37.5t37.5 -111.5q0 -70 -20 -121t-49 -86.5t-61 -57t-55 -29.5l-53 73q48 26 76 64t28 99q-9 -2 -23 -2q-41 0 -64.5 29t-23.5 76zM396 109q0 49 31 76.5t80 27.5q59 0 96.5 -37.5t37.5 -111.5q0 -70 -20 -121t-49 -86.5 t-61 -57t-55 -29.5l-53 73q48 26 76 64t28 99q-9 -2 -23 -2q-41 0 -64.5 29t-23.5 76z" />
<glyph unicode="&#x2020;" horiz-adv-x="1034" d="M85 916v153h279l92 -23l-23 100v345h170v-345l-24 -100l92 23h279v-153h-283l-88 23l24 -89v-850l-32 -426h-107l-31 428v848l23 89l-92 -23h-279z" />
<glyph unicode="&#x2021;" horiz-adv-x="1034" d="M85 370v154h279l92 -24l-23 88v264l23 87l-92 -23h-279v153h279l92 -23l-23 98v347h170v-347l-24 -98l92 23h279v-153h-283l-88 23l24 -87v-264l-24 -88l88 24h283v-154h-279l-92 24l24 -98v-296l-34 -426h-102l-34 428v294l23 98l-92 -24h-279z" />
<glyph unicode="&#x2022;" horiz-adv-x="962" d="M185 662q0 66 23.5 120.5t63 94t93.5 61t117 21.5q61 0 115.5 -20.5t93.5 -59t63 -92.5t24 -125q0 -70 -24 -124t-63 -92.5t-93.5 -59t-115.5 -20.5q-62 0 -116.5 20.5t-94 59t-63 92.5t-23.5 124z" />
<glyph unicode="&#x2026;" horiz-adv-x="1616" d="M151 98q0 57 33 90.5t88 33.5q58 0 92 -33t34 -91q0 -55 -34 -89.5t-92 -34.5q-55 0 -88 34.5t-33 89.5zM693 98q0 57 32.5 90.5t87.5 33.5q57 0 91.5 -33t34.5 -91q0 -55 -33.5 -89.5t-92.5 -34.5q-55 0 -87.5 34.5t-32.5 89.5zM1233 98q0 57 33 90.5t89 33.5 q57 0 91 -33t34 -91q0 -55 -34 -89.5t-91 -34.5q-55 0 -88.5 34.5t-33.5 89.5z" />
<glyph unicode="&#x2030;" horiz-adv-x="2442" d="M149 1154q0 96 25.5 164t69 113t104.5 65t131 20q71 0 131.5 -19t104 -61.5t69 -112t25.5 -169.5q0 -99 -25.5 -168.5t-69 -112t-104.5 -62t-131 -19.5t-131 19.5t-104.5 62t-69 112t-25.5 168.5zM262 57l1096 1461l104 -81l-1093 -1463zM307 1154q0 -128 45.5 -183 t126.5 -55q41 0 72.5 11.5t54 38t34 72.5t11.5 116q0 71 -11.5 117t-34 72.5t-54.5 38t-72 11.5q-81 0 -126.5 -50t-45.5 -189zM907 366q0 96 25.5 164t69 113t104.5 65t131 20q71 0 131.5 -19t104 -61.5t69 -112t25.5 -169.5q0 -99 -25.5 -168.5t-69 -112t-104.5 -62 t-131 -19.5t-131 19.5t-104.5 62t-69 112t-25.5 168.5zM1065 366q0 -128 45.5 -183t126.5 -55q41 0 72.5 11.5t54 38t34 72.5t11.5 116q0 71 -11.5 117t-34 72.5t-54.5 38t-72 11.5q-81 0 -126.5 -50t-45.5 -189zM1668 366q0 96 25.5 164t69 113t104.5 65t131 20 q71 0 131.5 -19t104 -61.5t69 -112t25.5 -169.5q0 -99 -25.5 -168.5t-69 -112t-104.5 -62t-131 -19.5t-131 19.5t-104.5 62t-69 112t-25.5 168.5zM1826 366q0 -128 45.5 -183t126.5 -55q41 0 72.5 11.5t54 38t34 72.5t11.5 116q0 71 -11.5 117t-34 72.5t-54.5 38t-72 11.5 q-81 0 -126.5 -50t-45.5 -189z" />
<glyph unicode="&#x2039;" horiz-adv-x="632" d="M83 551l341 490l113 -91l-207 -309l-102 -88l102 -76l219 -302l-112 -94z" />
<glyph unicode="&#x203a;" horiz-adv-x="632" d="M83 947l113 94l353 -470l-340 -490l-113 92l207 309l102 87l-102 77z" />
<glyph unicode="&#x2044;" horiz-adv-x="391" d="M-376 51l1036 1467l111 -73l-1037 -1471z" />
<glyph unicode="&#x20ac;" horiz-adv-x="1160" d="M21 535l38 140h116v71v39.5t2 41.5h-156l38 140h132q24 147 79.5 250.5t133.5 170.5t174.5 97.5t205.5 30.5q108 0 187 -13.5t137 -37.5l-47 -150q-49 23 -115 35.5t-160 12.5q-73 0 -139 -21t-120 -68t-93.5 -123t-61.5 -184h601l-36 -140h-579q-2 -19 -2 -40v-41v-36 t2 -35h536l-36 -140h-486q37 -207 148.5 -307t294.5 -100q84 0 153 19t118 49l42 -135q-63 -49 -157.5 -68t-190.5 -19q-245 0 -397.5 135.5t-195.5 425.5h-166z" />
<glyph unicode="&#x2116;" horiz-adv-x="2178" d="M181 0v1514h94l672 -986l110 -213h10l-23 205v971h170v-1515h-98l-667 991l-114 224h-9l26 -215v-976h-171zM1384 1154q0 96 25.5 164t69.5 113t104.5 65t131.5 20t131 -19t104 -61.5t69.5 -112t25.5 -169.5q0 -99 -25.5 -168.5t-69.5 -112t-104.5 -62t-130.5 -19.5 q-71 0 -131.5 19.5t-104.5 62t-69.5 112t-25.5 168.5zM1425 509v158h592v-158h-592zM1542 1154q0 -128 46 -183t127 -55q41 0 72.5 11.5t54 38t34.5 72.5t12 116q0 71 -12 117t-34.5 72.5t-54 38t-72.5 11.5q-81 0 -127 -50t-46 -189z" />
<glyph unicode="&#x2122;" horiz-adv-x="1884" d="M81 1346v145h746v-145h-290v-622h-167v622h-289zM912 724v767h165l224 -357l60 -124h2l64 128l207 353h168v-767h-162v356l21 219h-8l-84 -181l-185 -298h-69l-191 296l-76 183h-9l28 -217v-358h-155z" />
<glyph unicode="&#x2202;" horiz-adv-x="1075" d="M43 388q0 128 36 252t107.5 223.5t178 161t247.5 61.5q89 0 131.5 -15.5t79.5 -46.5h10q-6 98 -47.5 165t-103.5 109t-136.5 61t-147.5 19h-22t-22 -2l32 140q144 0 260 -30.5t197.5 -105.5t124 -198t42.5 -308q0 -230 -41.5 -399.5t-115 -280.5t-177 -165.5 t-225.5 -54.5q-205 0 -306.5 107.5t-101.5 306.5zM219 376q0 -48 13 -95t43 -82t76.5 -55t115.5 -20q106 0 176 65t113 169t60 232t17 249q-38 45 -92 71.5t-143 26.5q-77 0 -145.5 -41.5t-121 -116t-82.5 -178t-30 -225.5z" />
<glyph unicode="&#x220f;" horiz-adv-x="1443" d="M181 -426v1917h1085v-1917h-177v1759h-731v-1759h-177z" />
<glyph unicode="&#x2211;" horiz-adv-x="1075" d="M30 -268l476 737l73 63l-75 69l-474 732v158h964v-158h-805l92 -77l458 -711l-473 -736l-85 -77h813v-158h-964v158z" />
<glyph unicode="&#x221a;" horiz-adv-x="1075" d="M-19 797v153h375l195 -483l50 -243h4l41 247l315 1020h159l-481 -1515h-66l-335 821h-257z" />
<glyph unicode="&#x221e;" horiz-adv-x="1823" d="M118 737q0 96 27.5 171.5t77 129t119 82t152.5 28.5q149 0 256.5 -67t171.5 -172q92 128 205 183.5t236 55.5q75 0 137.5 -26.5t108.5 -78t71.5 -122.5t25.5 -161q0 -95 -28 -171.5t-78.5 -130t-120 -82.5t-152.5 -29q-75 0 -139 21.5t-117 56.5t-95.5 83t-74.5 99 q-77 -123 -187.5 -191.5t-234.5 -68.5q-74 0 -139 26.5t-115 77.5t-78.5 124t-28.5 162zM283 744q0 -102 62 -171t171 -69q47 0 92.5 17.5t87 48.5t77.5 70t66 84q-57 119 -144.5 192.5t-202.5 73.5q-43 0 -81.5 -19t-67 -52t-44.5 -78.5t-16 -96.5zM984 790 q26 -57 62 -109.5t80.5 -91t96 -62t108.5 -23.5q88 0 148.5 68.5t60.5 183.5q0 45 -13 87.5t-39.5 75.5t-67 52t-93.5 19q-87 0 -177.5 -49t-165.5 -151z" />
<glyph unicode="&#x222b;" horiz-adv-x="744" d="M-94 -392l47 136q49 -19 97 -28.5t97 -9.5q81 0 109.5 51.5t28.5 176.5v1263q0 166 70.5 242.5t223.5 76.5q73 0 139 -14.5t117 -36.5l-45 -136q-48 19 -96 29t-100 10q-81 0 -109.5 -49t-28.5 -175v-1268q0 -166 -70.5 -242.5t-221.5 -76.5q-75 0 -141 15t-117 36z" />
<glyph unicode="&#x2248;" horiz-adv-x="1075" d="M66 594q91 70 166 97.5t136 27.5q59 0 110.5 -18t98.5 -40.5t91.5 -40t93.5 -17.5q41 0 83.5 16.5t91.5 59.5l73 -130q-81 -55 -146 -77.5t-118 -22.5q-58 0 -106 18t-92 40.5t-87.5 41t-94.5 18.5q-49 0 -104 -22.5t-124 -78.5zM66 946q91 70 166 97.5t136 27.5 q59 0 110.5 -18t98.5 -40.5t91.5 -40t93.5 -17.5q41 0 83.5 16.5t91.5 59.5l73 -130q-81 -55 -146 -77.5t-118 -22.5q-58 0 -106 18t-92 40.5t-87.5 41t-94.5 18.5q-49 0 -104 -22.5t-124 -78.5z" />
<glyph unicode="&#x2260;" horiz-adv-x="1075" d="M85 467v153h330l89 200h-419v153h486l130 293h153l-130 -293h264v-153h-330l-89 -200h419v-153h-486l-142 -327h-153l142 327h-264z" />
<glyph unicode="&#x2264;" horiz-adv-x="1075" d="M77 907v62l805 492l81 -132l-505 -309l-194 -81l192 -67l517 -307l-81 -128zM120 488l73 136l785 -449l-75 -134z" />
<glyph unicode="&#x2265;" horiz-adv-x="1075" d="M79 1333l81 128l816 -471v-61l-805 -492l-82 132l505 309l194 81l-192 67zM113 173l781 457l79 -132l-780 -457z" />
<glyph unicode="&#x25ca;" horiz-adv-x="1075" d="M73 728l425 786h71l433 -775l-433 -763h-71zM252 752l232 -413l61 -188h2l60 192l218 375l-233 412l-60 189h-4l-59 -193z" />
<glyph unicode="&#x25fc;" horiz-adv-x="1064" d="M0 0v1065h1065v-1065h-1065z" />
</font>
</defs>
</svg>
